<?xml version="1.0" encoding="UTF-8"?>
<svg width="65px" height="60px" viewBox="0 0 65 60" version="1.1" xmlns="http://www.w3.org/2000/svg" xmlns:xlink="http://www.w3.org/1999/xlink">
    <!-- Generator: Sketch 51.2 (57519) - http://www.bohemiancoding.com/sketch -->
    <title>abandoned_cart</title>
    <desc>Created with Sketch.</desc>
    <defs>
        <polygon id="path-1" points="0.0830379747 0.119367089 31.4756962 0.119367089 31.4756962 11.5113924 0.0830379747 11.5113924"></polygon>
        <polygon id="path-3" points="0.00759493671 0.0289873418 64.81 0.0289873418 64.81 46.0272152 0.00759493671 46.0272152"></polygon>
    </defs>
    <g id="Page-1" stroke="none" stroke-width="1" fill="none" fill-rule="evenodd">
        <g id="abandoned_cart">
            <g id="Group-4" transform="translate(21.392405, 48.481013)">
                <mask id="mask-2" fill="white">
                    <use xlink:href="#path-1"></use>
                </mask>
                <g id="Clip-2"></g>
                <path d="M5.78291139,8.3364557 C4.39481013,8.3364557 3.26556962,7.20708861 3.26556962,5.81898734 C3.26556962,4.43101266 4.39481013,3.30164557 5.78291139,3.30164557 C7.17088608,3.30164557 8.30025316,4.43101266 8.30025316,5.81898734 C8.30025316,7.20721519 7.17088608,8.3364557 5.78291139,8.3364557 Z M5.78291139,0.119367089 C2.64,0.119367089 0.0830379747,2.67632911 0.0830379747,5.81924051 C0.0830379747,8.96202532 2.64,11.5189873 5.78291139,11.5189873 C8.9256962,11.5189873 11.4826582,8.96202532 11.4826582,5.81924051 C11.4826582,2.67632911 8.9256962,0.119367089 5.78291139,0.119367089 Z" id="Fill-1" fill="#43BAEE" mask="url(#mask-2)"></path>
                <path d="M25.7759494,8.3364557 C24.3878481,8.3364557 23.2586076,7.20708861 23.2586076,5.81898734 C23.2586076,4.43101266 24.3878481,3.30164557 25.7759494,3.30164557 C27.1639241,3.30164557 28.2932911,4.43101266 28.2932911,5.81898734 C28.2932911,7.20721519 27.1639241,8.3364557 25.7759494,8.3364557 Z M25.7759494,0.119367089 C22.633038,0.119367089 20.0760759,2.67632911 20.0760759,5.81924051 C20.0760759,8.96202532 22.633038,11.5189873 25.7759494,11.5189873 C28.9187342,11.5189873 31.4756962,8.96202532 31.4756962,5.81924051 C31.4756962,2.67632911 28.9187342,0.119367089 25.7759494,0.119367089 Z" id="Fill-3" fill="#43BAEE" mask="url(#mask-2)"></path>
            </g>
            <path d="M25.7679747,21.7735443 L48.5716456,21.7735443 C49.4505063,21.7735443 50.1629114,21.0611392 50.1629114,20.1822785 C50.1629114,19.3035443 49.4505063,18.5911392 48.5716456,18.5911392 L25.7679747,18.5911392 C24.8891139,18.5911392 24.1767089,19.3035443 24.1767089,20.1822785 C24.1767089,21.0611392 24.8892405,21.7735443 25.7679747,21.7735443" id="Fill-5" fill="#43BAEE"></path>
            <g id="Group-9">
                <mask id="mask-4" fill="white">
                    <use xlink:href="#path-3"></use>
                </mask>
                <g id="Clip-7"></g>
                <path d="M47.3305063,26.8544304 L27.0092405,26.8544304 C26.1305063,26.8544304 25.4181013,27.5668354 25.4181013,28.4456962 C25.4181013,29.324557 26.1305063,30.036962 27.0092405,30.036962 L47.3305063,30.036962 C48.2092405,30.036962 48.9216456,29.324557 48.9216456,28.4456962 C48.9216456,27.566962 48.2092405,26.8544304 47.3305063,26.8544304" id="Fill-6" fill="#43BAEE" mask="url(#mask-4)"></path>
                <path d="M57.1759494,35.1159494 L17.166962,35.1159494 L12.7162025,13.5116456 L61.6268354,13.5118987 L57.1759494,35.1159494 Z M64.0937975,11.5011392 C63.4868354,10.7563291 62.5875949,10.3292405 61.6268354,10.3292405 L12.0605063,10.3292405 L11.0594937,5.46987342 C10.8505063,4.45620253 10.1591139,3.60506329 9.20962025,3.19278481 L2.22518987,0.161139241 C1.41886076,-0.189113924 0.481772152,0.180886076 0.132025316,0.986962025 C-0.217974684,1.79329114 0.151898734,2.73050633 0.957974684,3.08025316 L7.94240506,6.11202532 L15.6418987,43.486962 C15.9451899,44.9588608 17.2560759,46.0272152 18.7589873,46.0272152 L56.8812658,46.0272152 C57.7601266,46.0272152 58.4725316,45.3148101 58.4725316,44.4359494 C58.4725316,43.5570886 57.7601266,42.8446835 56.8812658,42.8446835 L18.7591139,42.8446835 L17.8225316,38.2983544 L57.1759494,38.2983544 C58.6787342,38.2983544 59.9897468,37.23 60.2929114,35.7581013 L64.7439241,14.1535443 C64.9377215,13.2127848 64.7007595,12.2458228 64.0937975,11.5011392 Z" id="Fill-8" fill="#43BAEE" mask="url(#mask-4)"></path>
            </g>
        </g>
    </g>
</svg>