<?xml version="1.0" encoding="UTF-8"?>
<svg width="218px" height="248px" viewBox="0 0 218 248" version="1.1" xmlns="http://www.w3.org/2000/svg" xmlns:xlink="http://www.w3.org/1999/xlink">
    <!-- Generator: Sketch 45.2 (43514) - http://www.bohemiancoding.com/sketch -->
    <title>Group 4 Copy</title>
    <desc>Created with Sketch.</desc>
    <defs></defs>
    <g id="Activation" stroke="none" stroke-width="1" fill="none" fill-rule="evenodd" opacity="0.300000012">
        <g transform="translate(-979.000000, -2665.000000)" id="Mobile-Promo" fill="#D8D8D8">
            <g transform="translate(274.000000, 2665.000000)">
                <g id="Group-4-Copy" transform="translate(865.500000, 139.500000) scale(-1, -1) translate(-865.500000, -139.500000) translate(702.000000, -104.000000)">
                    <path d="M47.9071502,312.701201 C47.9071502,308.829932 51.0391988,305.691649 54.8982769,305.691649 L132.676228,305.691649 C136.53732,305.691649 139.667354,308.82946 139.667354,312.701201 L139.667354,472.01543 C139.667354,475.886698 136.535306,479.024982 132.676228,479.024982 L54.8982769,479.024982 C51.0371842,479.024982 47.9071502,475.887171 47.9071502,472.01543 L47.9071502,312.701201 Z M52.4951604,328.608315 L52.4951604,456.108315 L135.079344,456.108315 L135.079344,328.608315 L52.4951604,328.608315 Z M93.7872522,474.024982 C97.4729076,474.024982 100.460722,471.040214 100.460722,467.358315 C100.460722,463.676417 97.4729076,460.691649 93.7872522,460.691649 C90.1015969,460.691649 87.1137828,463.676417 87.1137828,467.358315 C87.1137828,471.040214 90.1015969,474.024982 93.7872522,474.024982 Z M86.2953942,319.594643 L101.27911,319.594643 C102.200524,319.594643 102.947478,318.848451 102.947478,317.927977 C102.947478,317.007502 102.200524,316.26131 101.27911,316.26131 L86.2953942,316.26131 C85.3739803,316.26131 84.6270268,317.007502 84.6270268,317.927977 C84.6270268,318.848451 85.3739803,319.594643 86.2953942,319.594643 Z" id="Combined-Shape" transform="translate(93.787252, 392.358315) rotate(-45.000000) translate(-93.787252, -392.358315) "></path>
                    <path d="M186.844617,240.067605 C186.844617,236.196336 189.976666,233.058052 193.835744,233.058052 L271.613694,233.058052 C275.474787,233.058052 278.604821,236.195864 278.604821,240.067605 L278.604821,399.381833 C278.604821,403.253102 275.472772,406.391386 271.613694,406.391386 L193.835744,406.391386 C189.974651,406.391386 186.844617,403.253574 186.844617,399.381833 L186.844617,240.067605 Z M191.432627,255.974719 L191.432627,383.474719 L274.016811,383.474719 L274.016811,255.974719 L191.432627,255.974719 Z M232.724719,401.391386 C236.410374,401.391386 239.398188,398.406617 239.398188,394.724719 C239.398188,391.042821 236.410374,388.058052 232.724719,388.058052 C229.039064,388.058052 226.05125,391.042821 226.05125,394.724719 C226.05125,398.406617 229.039064,401.391386 232.724719,401.391386 Z M225.232861,246.961047 L240.216577,246.961047 C241.137991,246.961047 241.884944,246.214855 241.884944,245.29438 C241.884944,244.373906 241.137991,243.627714 240.216577,243.627714 L225.232861,243.627714 C224.311447,243.627714 223.564494,244.373906 223.564494,245.29438 C223.564494,246.214855 224.311447,246.961047 225.232861,246.961047 Z" id="Combined-Shape-Copy-2" transform="translate(232.724719, 319.724719) scale(1, -1) rotate(-45.000000) translate(-232.724719, -319.724719) "></path>
                    <path d="M186.844617,88.0676046 C186.844617,84.1963358 189.976666,81.0580523 193.835744,81.0580523 L271.613694,81.0580523 C275.474787,81.0580523 278.604821,84.1958635 278.604821,88.0676046 L278.604821,247.381833 C278.604821,251.253102 275.472772,254.391386 271.613694,254.391386 L193.835744,254.391386 C189.974651,254.391386 186.844617,251.253574 186.844617,247.381833 L186.844617,88.0676046 Z M191.432627,103.974719 L191.432627,231.474719 L274.016811,231.474719 L274.016811,103.974719 L191.432627,103.974719 Z M232.724719,249.391386 C236.410374,249.391386 239.398188,246.406617 239.398188,242.724719 C239.398188,239.042821 236.410374,236.058052 232.724719,236.058052 C229.039064,236.058052 226.05125,239.042821 226.05125,242.724719 C226.05125,246.406617 229.039064,249.391386 232.724719,249.391386 Z M225.232861,94.9610471 L240.216577,94.9610471 C241.137991,94.9610471 241.884944,94.214855 241.884944,93.2943804 C241.884944,92.3739059 241.137991,91.6277138 240.216577,91.6277138 L225.232861,91.6277138 C224.311447,91.6277138 223.564494,92.3739059 223.564494,93.2943804 C223.564494,94.214855 224.311447,94.9610471 225.232861,94.9610471 Z" id="Combined-Shape-Copy-4" transform="translate(232.724719, 167.724719) scale(-1, 1) rotate(-45.000000) translate(-232.724719, -167.724719) "></path>
                    <path d="M53.8446169,14.0676046 C53.8446169,10.1963358 56.9766656,7.05805231 60.8357437,7.05805231 L138.613694,7.05805231 C142.474787,7.05805231 145.604821,10.1958635 145.604821,14.0676046 L145.604821,173.381833 C145.604821,177.253102 142.472772,180.391386 138.613694,180.391386 L60.8357437,180.391386 C56.974651,180.391386 53.8446169,177.253574 53.8446169,173.381833 L53.8446169,14.0676046 Z M58.4326271,29.974719 L58.4326271,157.474719 L141.016811,157.474719 L141.016811,29.974719 L58.4326271,29.974719 Z M99.724719,175.391386 C103.410374,175.391386 106.398188,172.406617 106.398188,168.724719 C106.398188,165.042821 103.410374,162.058052 99.724719,162.058052 C96.0390636,162.058052 93.0512496,165.042821 93.0512496,168.724719 C93.0512496,172.406617 96.0390636,175.391386 99.724719,175.391386 Z M92.2328609,20.9610471 L107.216577,20.9610471 C108.137991,20.9610471 108.884944,20.214855 108.884944,19.2943804 C108.884944,18.3739059 108.137991,17.6277138 107.216577,17.6277138 L92.2328609,17.6277138 C91.3114471,17.6277138 90.5644936,18.3739059 90.5644936,19.2943804 C90.5644936,20.214855 91.3114471,20.9610471 92.2328609,20.9610471 Z" id="Combined-Shape-Copy-3" transform="translate(99.724719, 93.724719) scale(-1, -1) rotate(-45.000000) translate(-99.724719, -93.724719) "></path>
                    <path d="M52.3000073,162.034534 C52.3000073,158.163265 55.4320559,155.024982 59.291134,155.024982 L137.069085,155.024982 C140.930177,155.024982 144.060211,158.162793 144.060211,162.034534 L144.060211,321.348763 C144.060211,325.220032 140.928163,328.358315 137.069085,328.358315 L59.291134,328.358315 C55.4300414,328.358315 52.3000073,325.220504 52.3000073,321.348763 L52.3000073,162.034534 Z M56.8880175,177.941649 L56.8880175,305.441649 L139.472201,305.441649 L139.472201,177.941649 L56.8880175,177.941649 Z M98.1801094,323.358315 C101.865765,323.358315 104.853579,320.373547 104.853579,316.691649 C104.853579,313.00975 101.865765,310.024982 98.1801094,310.024982 C94.494454,310.024982 91.50664,313.00975 91.50664,316.691649 C91.50664,320.373547 94.494454,323.358315 98.1801094,323.358315 Z M90.6882513,168.927977 L105.671967,168.927977 C106.593381,168.927977 107.340335,168.181785 107.340335,167.26131 C107.340335,166.340835 106.593381,165.594643 105.671967,165.594643 L90.6882513,165.594643 C89.7668375,165.594643 89.019884,166.340835 89.019884,167.26131 C89.019884,168.181785 89.7668375,168.927977 90.6882513,168.927977 Z" id="Combined-Shape-Copy" transform="translate(98.180109, 241.691649) scale(-1, 1) rotate(45.000000) translate(-98.180109, -241.691649) "></path>
                </g>
            </g>
        </g>
    </g>
</svg>