<?xml version="1.0" encoding="UTF-8"?>
<svg width="277px" height="248px" viewBox="0 0 277 248" version="1.1" xmlns="http://www.w3.org/2000/svg" xmlns:xlink="http://www.w3.org/1999/xlink">
    <!-- Generator: Sketch 45.2 (43514) - http://www.bohemiancoding.com/sketch -->
    <title>Group 4</title>
    <desc>Created with Sketch.</desc>
    <defs></defs>
    <g id="Activation" stroke="none" stroke-width="1" fill="none" fill-rule="evenodd" opacity="0.300000012">
        <g transform="translate(-274.000000, -2665.000000)" id="Mobile-Promo" fill="#D8D8D8">
            <g transform="translate(274.000000, 2665.000000)">
                <g id="Group-4" transform="translate(-130.000000, -112.000000)">
                    <path d="M130.844617,233.067605 C130.844617,229.196336 133.976666,226.058052 137.835744,226.058052 L215.613694,226.058052 C219.474787,226.058052 222.604821,229.195864 222.604821,233.067605 L222.604821,392.381833 C222.604821,396.253102 219.472772,399.391386 215.613694,399.391386 L137.835744,399.391386 C133.974651,399.391386 130.844617,396.253574 130.844617,392.381833 L130.844617,233.067605 Z M135.432627,248.974719 L135.432627,376.474719 L218.016811,376.474719 L218.016811,248.974719 L135.432627,248.974719 Z M176.724719,394.391386 C180.410374,394.391386 183.398188,391.406617 183.398188,387.724719 C183.398188,384.042821 180.410374,381.058052 176.724719,381.058052 C173.039064,381.058052 170.05125,384.042821 170.05125,387.724719 C170.05125,391.406617 173.039064,394.391386 176.724719,394.391386 Z M169.232861,239.961047 L184.216577,239.961047 C185.137991,239.961047 185.884944,239.214855 185.884944,238.29438 C185.884944,237.373906 185.137991,236.627714 184.216577,236.627714 L169.232861,236.627714 C168.311447,236.627714 167.564494,237.373906 167.564494,238.29438 C167.564494,239.214855 168.311447,239.961047 169.232861,239.961047 Z" id="Combined-Shape" transform="translate(176.724719, 312.724719) rotate(-45.000000) translate(-176.724719, -312.724719) "></path>
                    <path d="M264.844617,365.067605 C264.844617,361.196336 267.976666,358.058052 271.835744,358.058052 L349.613694,358.058052 C353.474787,358.058052 356.604821,361.195864 356.604821,365.067605 L356.604821,524.381833 C356.604821,528.253102 353.472772,531.391386 349.613694,531.391386 L271.835744,531.391386 C267.974651,531.391386 264.844617,528.253574 264.844617,524.381833 L264.844617,365.067605 Z M269.432627,380.974719 L269.432627,508.474719 L352.016811,508.474719 L352.016811,380.974719 L269.432627,380.974719 Z M310.724719,526.391386 C314.410374,526.391386 317.398188,523.406617 317.398188,519.724719 C317.398188,516.042821 314.410374,513.058052 310.724719,513.058052 C307.039064,513.058052 304.05125,516.042821 304.05125,519.724719 C304.05125,523.406617 307.039064,526.391386 310.724719,526.391386 Z M303.232861,371.961047 L318.216577,371.961047 C319.137991,371.961047 319.884944,371.214855 319.884944,370.29438 C319.884944,369.373906 319.137991,368.627714 318.216577,368.627714 L303.232861,368.627714 C302.311447,368.627714 301.564494,369.373906 301.564494,370.29438 C301.564494,371.214855 302.311447,371.961047 303.232861,371.961047 Z" id="Combined-Shape-Copy-5" transform="translate(310.724719, 444.724719) rotate(-45.000000) translate(-310.724719, -444.724719) "></path>
                    <path d="M269.844617,216.067605 C269.844617,212.196336 272.976666,209.058052 276.835744,209.058052 L354.613694,209.058052 C358.474787,209.058052 361.604821,212.195864 361.604821,216.067605 L361.604821,375.381833 C361.604821,379.253102 358.472772,382.391386 354.613694,382.391386 L276.835744,382.391386 C272.974651,382.391386 269.844617,379.253574 269.844617,375.381833 L269.844617,216.067605 Z M274.432627,231.974719 L274.432627,359.474719 L357.016811,359.474719 L357.016811,231.974719 L274.432627,231.974719 Z M315.724719,377.391386 C319.410374,377.391386 322.398188,374.406617 322.398188,370.724719 C322.398188,367.042821 319.410374,364.058052 315.724719,364.058052 C312.039064,364.058052 309.05125,367.042821 309.05125,370.724719 C309.05125,374.406617 312.039064,377.391386 315.724719,377.391386 Z M308.232861,222.961047 L323.216577,222.961047 C324.137991,222.961047 324.884944,222.214855 324.884944,221.29438 C324.884944,220.373906 324.137991,219.627714 323.216577,219.627714 L308.232861,219.627714 C307.311447,219.627714 306.564494,220.373906 306.564494,221.29438 C306.564494,222.214855 307.311447,222.961047 308.232861,222.961047 Z" id="Combined-Shape-Copy-2" transform="translate(315.724719, 295.724719) rotate(-45.000000) translate(-315.724719, -295.724719) "></path>
                    <path d="M47.8446169,14.0676046 C47.8446169,10.1963358 50.9766656,7.05805231 54.8357437,7.05805231 L132.613694,7.05805231 C136.474787,7.05805231 139.604821,10.1958635 139.604821,14.0676046 L139.604821,173.381833 C139.604821,177.253102 136.472772,180.391386 132.613694,180.391386 L54.8357437,180.391386 C50.974651,180.391386 47.8446169,177.253574 47.8446169,173.381833 L47.8446169,14.0676046 Z M52.4326271,29.974719 L52.4326271,157.474719 L135.016811,157.474719 L135.016811,29.974719 L52.4326271,29.974719 Z M93.724719,175.391386 C97.4103743,175.391386 100.398188,172.406617 100.398188,168.724719 C100.398188,165.042821 97.4103743,162.058052 93.724719,162.058052 C90.0390636,162.058052 87.0512496,165.042821 87.0512496,168.724719 C87.0512496,172.406617 90.0390636,175.391386 93.724719,175.391386 Z M86.2328609,20.9610471 L101.216577,20.9610471 C102.137991,20.9610471 102.884944,20.214855 102.884944,19.2943804 C102.884944,18.3739059 102.137991,17.6277138 101.216577,17.6277138 L86.2328609,17.6277138 C85.3114471,17.6277138 84.5644936,18.3739059 84.5644936,19.2943804 C84.5644936,20.214855 85.3114471,20.9610471 86.2328609,20.9610471 Z" id="Combined-Shape-Copy-3" transform="translate(93.724719, 93.724719) scale(-1, -1) rotate(-45.000000) translate(-93.724719, -93.724719) "></path>
                    <path d="M189.300007,81.0345342 C189.300007,77.1632653 192.432056,74.0249818 196.291134,74.0249818 L274.069085,74.0249818 C277.930177,74.0249818 281.060211,77.162793 281.060211,81.0345342 L281.060211,240.348763 C281.060211,244.220032 277.928163,247.358315 274.069085,247.358315 L196.291134,247.358315 C192.430041,247.358315 189.300007,244.220504 189.300007,240.348763 L189.300007,81.0345342 Z M193.888018,96.9416485 L193.888018,224.441649 L276.472201,224.441649 L276.472201,96.9416485 L193.888018,96.9416485 Z M235.180109,242.358315 C238.865765,242.358315 241.853579,239.373547 241.853579,235.691649 C241.853579,232.00975 238.865765,229.024982 235.180109,229.024982 C231.494454,229.024982 228.50664,232.00975 228.50664,235.691649 C228.50664,239.373547 231.494454,242.358315 235.180109,242.358315 Z M227.688251,87.9279766 L242.671967,87.9279766 C243.593381,87.9279766 244.340335,87.1817845 244.340335,86.26131 C244.340335,85.3408354 243.593381,84.5946433 242.671967,84.5946433 L227.688251,84.5946433 C226.766837,84.5946433 226.019884,85.3408354 226.019884,86.26131 C226.019884,87.1817845 226.766837,87.9279766 227.688251,87.9279766 Z" id="Combined-Shape-Copy" transform="translate(235.180109, 160.691649) rotate(45.000000) translate(-235.180109, -160.691649) "></path>
                </g>
            </g>
        </g>
    </g>
</svg>