<?xml version="1.0" encoding="UTF-8"?>
<svg width="17px" height="17px" viewBox="0 0 17 17" version="1.1" xmlns="http://www.w3.org/2000/svg" xmlns:xlink="http://www.w3.org/1999/xlink">
    <!-- Generator: Sketch 45.2 (43514) - http://www.bohemiancoding.com/sketch -->
    <title>Combined Shape</title>
    <desc>Created with Sketch.</desc>
    <defs></defs>
    <g id="Modules" stroke="none" stroke-width="1" fill="none" fill-rule="evenodd">
        <g id="Modules---Welcome" transform="translate(-993.000000, -704.000000)" fill-rule="nonzero" fill="#D4D4D4">
            <g id="Modal-Info" transform="translate(418.000000, 664.000000)">
                <g id="Group-2" transform="translate(575.000000, 40.000000)">
                    <path d="M8.5,7.08578644 L1.70710678,0.292893219 C1.31658249,-0.0976310729 0.683417511,-0.0976310729 0.292893219,0.292893219 C-0.0976310729,0.683417511 -0.0976310729,1.31658249 0.292893219,1.70710678 L7.08578644,8.5 L0.55714681,15.0286396 C0.166622518,15.4191639 0.166622518,16.0523289 0.55714681,16.4428532 C0.947671102,16.8333775 1.58083608,16.8333775 1.97136037,16.4428532 L8.5,9.91421356 L15.0286396,16.4428532 C15.4191639,16.8333775 16.0523289,16.8333775 16.4428532,16.4428532 C16.8333775,16.0523289 16.8333775,15.4191639 16.4428532,15.0286396 L9.91421356,8.5 L16.7071068,1.70710678 C17.0976311,1.31658249 17.0976311,0.683417511 16.7071068,0.292893219 C16.3165825,-0.0976310729 15.6834175,-0.0976310729 15.2928932,0.292893219 L8.5,7.08578644 L8.5,7.08578644 Z" id="Combined-Shape"></path>
                </g>
            </g>
        </g>
    </g>
</svg>