<?xml version="1.0" encoding="UTF-8"?>
<svg width="62px" height="62px" viewBox="0 0 62 62" version="1.1" xmlns="http://www.w3.org/2000/svg" xmlns:xlink="http://www.w3.org/1999/xlink">
    <!-- Generator: Sketch 45.2 (43514) - http://www.bohemiancoding.com/sketch -->
    <title>noun_1015798_cc</title>
    <desc>Created with Sketch.</desc>
    <defs></defs>
    <g id="Activation" stroke="none" stroke-width="1" fill="none" fill-rule="evenodd">
        <g transform="translate(-506.000000, -1368.000000)" id="Promo" stroke="#FFFFFF" stroke-width="2" fill="#4DC2F0" fill-rule="nonzero">
            <g transform="translate(274.000000, 590.000000)">
                <g id="Group-2" transform="translate(110.000000, 511.000000)">
                    <g id="noun_1015798_cc" transform="translate(123.000000, 267.410000)">
                        <path d="M3.75,8.09000015 L6.625,8.09000015 L17.05,41.0962502 C17.5432738,42.6552353 18.9898383,43.7148691 20.625,43.7150002 L48.75,43.7150002 C50.3942541,43.7141825 51.8461952,42.6423306 52.33125,41.0712502 L59.83125,16.6962502 C60.1824035,15.5588738 59.972709,14.3223304 59.2662159,13.364311 C58.5597228,12.4062916 57.4403501,11.840592 56.25,11.8400002 L15.675,11.8400002 L12.95,3.20875015 C12.4567262,1.64976498 11.0101617,0.590131171 9.375,0.590000153 L3.75,0.590000153 C1.67893219,0.590000153 1.38777878e-16,2.26893234 0,4.34000015 C-2.77555756e-16,6.41106796 1.67893219,8.09000015 3.75,8.09000015 L3.75,8.09000015 Z M51.175,19.3400002 L45.98125,36.2150002 L23.375,36.2150002 L18.04375,19.3400002 L51.175,19.3400002 Z M24.375,60.5900002 C21.2683983,60.5900002 18.75,58.0716019 18.75,54.9650002 C18.75,51.8583984 21.2683983,49.3400002 24.375,49.3400002 C27.4816017,49.3400002 30,51.8583984 30,54.9650002 C30,58.0716019 27.4816017,60.5900002 24.375,60.5900002 L24.375,60.5900002 Z M39.375,54.9650002 C39.375,51.8583984 41.8933983,49.3400002 45,49.3400002 C48.1066017,49.3400002 50.625,51.8583984 50.625,54.9650002 C50.625,58.0716019 48.1066017,60.5900002 45,60.5900002 C41.8933983,60.5900002 39.375,58.0716019 39.375,54.9650002 L39.375,54.9650002 Z" id="Shape"></path>
                    </g>
                </g>
            </g>
        </g>
    </g>
</svg>