<?xml version="1.0" encoding="UTF-8"?>
<svg width="56px" height="42px" viewBox="0 0 56 42" version="1.1" xmlns="http://www.w3.org/2000/svg" xmlns:xlink="http://www.w3.org/1999/xlink">
    <!-- Generator: Sketch 45.2 (43514) - http://www.bohemiancoding.com/sketch -->
    <title>noun_708631_cc</title>
    <desc>Created with Sketch.</desc>
    <defs></defs>
    <g id="Page-1" stroke="none" stroke-width="1" fill="none" fill-rule="evenodd">
        <g id="noun_708631_cc">
            <polygon id="Shape" points="47.0673437 3.40375 47.0673437 10.1948438 48.8151562 8.448125 50.085 10.8959375 51.0059375 10.4179688 49.7842187 8.06203125 52.1445312 8.06203125"></polygon>
            <path d="M41.3360938,15.509375 L40.945625,15.859375 L35.7667188,20.5625 C35.6267188,20.689375 35.49,20.820625 35.3215625,20.9803125 C36.61,22.2698437 37.8853125,23.533125 39.1496875,24.7996875 C41.5340625,27.1702083 43.9111458,29.5483854 46.2809375,31.9342187 C47.2653125,32.92625 46.8923437,34.4389062 45.5929687,34.7910937 C44.9214063,34.9715625 44.3701562,34.7440625 43.89,34.2628125 L36.798125,27.1709375 C35.4932812,25.8660938 34.1928125,24.5590625 32.860625,23.2214063 C32.694375,23.3734375 32.545625,23.4970312 32.4121875,23.6228125 C30.9436458,24.96375 29.4729167,26.3003125 28,27.6325 C27.18625,28.3675 26.341875,28.3740625 25.5325,27.6434375 L21.275625,23.7792187 C21.0842187,23.6064062 20.8917187,23.4390625 20.5985937,23.1721875 C20.4937664,23.344467 20.375647,23.5082982 20.2453125,23.6621875 C16.7139583,27.2066667 13.1775,30.743125 9.6359375,34.2715625 C8.63625,35.266875 7.13671875,34.960625 6.74953125,33.683125 C6.53078125,32.97875 6.77140625,32.4001562 7.284375,31.8882812 L15.7970312,23.3942187 C16.5779688,22.6045312 17.373125,21.8246875 18.2032813,20.9989062 L13.8545313,17.0439062 C11.6670313,15.0503646 9.47515625,13.0590104 7.27890625,11.0698437 C6.78125,10.6028125 6.5625,10.040625 6.72546875,9.37234375 C6.85696413,8.77852693 7.31541444,8.3115868 7.90671875,8.16921875 C8.5553125,7.98765625 9.09671875,8.19875 9.58015625,8.640625 C12.6492188,11.4282292 15.7175521,14.2118229 18.7851563,16.9914062 L26.753125,24.2309375 C26.901875,24.1007812 27.04625,23.9815625 27.1796875,23.8579687 C31.1901042,20.2121354 35.2005208,16.5663021 39.2109375,12.9204687 C37.0965425,9.36002224 37.1599421,4.91402139 39.375,1.4153125 C28.4498958,1.40947917 17.5247917,1.40947917 6.5996875,1.4153125 C3.3971875,1.421875 0.65625,3.775625 0.1028125,6.925625 C0.0755822951,7.04137848 0.0412464198,7.15534436 0,7.266875 L0,35.704375 C0.0853125,36.0390625 0.161875,36.3748438 0.258125,36.6985937 C1.09484375,39.6035937 3.679375,41.5504687 6.7571875,41.5504687 C19.27625,41.5621354 31.7949479,41.5621354 44.3132813,41.5504687 C45.63125,41.5504687 46.9798438,41.6095312 48.2628125,41.3667187 C51.0048437,40.849375 52.9353125,38.7154687 53.431875,35.9395312 C53.4543766,35.8583671 53.4847825,35.7796048 53.5226563,35.704375 L53.5226563,17.2298437 C49.4889313,19.1902212 44.669462,18.5098205 41.3360938,15.509375 Z" id="Shape" fill="#D4D4D4" fill-rule="nonzero"></path>
            <path d="M48.706875,0.00546875 C44.6791357,0.00546879529 41.4139514,3.2704899 41.4137501,7.29822922 C41.4135488,11.3259685 44.6784066,14.591316 48.7061459,14.5917187 C52.7338853,14.5921214 55.999396,11.3274268 56,7.2996875 C55.9957812,3.27337744 52.7331844,0.0102913597 48.706875,0.00546875 L48.706875,0.00546875 Z M51.00375,10.416875 L50.0828125,10.8948438 L48.8129687,8.44703125 L47.0629687,10.1970313 L47.0629687,3.40375 L52.1401562,8.063125 L49.7842188,8.063125 L51.00375,10.416875 Z" id="Shape" fill="#D4D4D4" fill-rule="nonzero"></path>
        </g>
    </g>
</svg>