<?xml version="1.0" encoding="UTF-8"?>
<svg width="67px" height="50px" viewBox="0 0 67 50" version="1.1" xmlns="http://www.w3.org/2000/svg" xmlns:xlink="http://www.w3.org/1999/xlink">
    <!-- Generator: Sketch 47.1 (45422) - http://www.bohemiancoding.com/sketch -->
    <title>email_grey</title>
    <desc>Created with Sketch.</desc>
    <defs></defs>
    <g id="Page-1" stroke="none" stroke-width="1" fill="none" fill-rule="evenodd">
        <g id="email_grey">
            <polygon id="Shape" points="56.032552 4.05208333 56.032552 12.1367188 58.1132812 10.0572917 59.625 12.9713542 60.7213542 12.4023438 59.266927 9.59765625 62.0768229 9.59765625"></polygon>
            <path d="M49.2096355,18.4635417 L48.7447917,18.8802083 L42.5794271,24.4791667 C42.4127605,24.6302083 42.25,24.7864583 42.0494792,24.9765625 C43.5833333,26.5117187 45.1015625,28.015625 46.6067708,29.5234375 C49.4453125,32.3454861 52.2751736,35.1766493 55.0963542,38.016927 C56.2682292,39.1979167 55.8242187,40.9986979 54.2773437,41.4179687 C53.4778646,41.6328125 52.8216145,41.3619792 52.25,40.7890625 L43.8072917,32.3463542 C42.2539062,30.7929688 40.7057292,29.2369792 39.1197917,27.6445313 C38.921875,27.8255208 38.7447917,27.9726562 38.5859375,28.1223958 C36.8376736,29.71875 35.0868056,31.3098958 33.3333333,32.8958333 C32.3645833,33.7708333 31.359375,33.7786458 30.3958333,32.9088542 L25.328125,28.3085937 C25.1002604,28.1028645 24.8710937,27.9036458 24.5221354,27.5859375 C24.397341,27.7910321 24.2567226,27.9860693 24.1015625,28.1692708 C19.8975694,32.3888889 15.6875,36.5989583 11.4713542,40.7994792 C10.28125,41.984375 8.49609375,41.6197917 8.03515625,40.0989583 C7.77473958,39.2604167 8.06119792,38.5716145 8.671875,37.9622395 L18.8059895,27.8502604 C19.7356771,26.9101562 20.6822917,25.9817708 21.670573,24.9986979 L16.4934896,20.2903645 C13.889323,17.9171007 11.2799479,15.546441 8.66536458,13.1783854 C8.07291667,12.6223958 7.8125,11.953125 8.00651042,11.1575521 C8.16305254,10.4506273 8.70882671,9.89474619 9.41276042,9.72526042 C10.1848958,9.50911458 10.8294271,9.76041667 11.4049479,10.2864583 C15.0585938,13.6050348 18.7113715,16.9188368 22.3632813,20.2278645 L31.8489583,28.8463542 C32.0260417,28.6914062 32.1979167,28.5494792 32.3567708,28.4023437 C37.1310764,24.062066 41.9053819,19.7217882 46.6796875,15.3815104 C44.1625506,11.1428836 44.2380263,5.85002546 46.875,1.68489583 C33.8689236,1.67795139 20.8628473,1.67795139 7.85677083,1.68489583 C4.04427083,1.69270833 0.78125,4.49479167 0.122395833,8.24479167 C0.0899789227,8.38259343 0.0491028807,8.5182671 0,8.65104167 L0,42.5052083 C0.1015625,42.9036458 0.192708333,43.3033855 0.307291667,43.688802 C1.30338542,47.1471354 4.38020833,49.4648437 8.04427083,49.4648437 C22.9479167,49.4787326 37.8511285,49.4787326 52.7539063,49.4648437 C54.3229167,49.4648437 55.9283855,49.5351562 57.4557292,49.2460937 C60.720052,48.6302083 63.0182292,46.0898437 63.609375,42.7851562 C63.6361626,42.6885323 63.6723601,42.5947676 63.717448,42.5052083 L63.717448,20.5117187 C58.9153944,22.8455014 53.177931,22.0355006 49.2096355,18.4635417 Z" id="Shape" fill="#43BAEE" fill-rule="nonzero"></path>
            <path d="M57.984375,0.00651041667 C53.1894473,0.00651047058 49.3023231,3.89344036 49.3020835,8.68836812 C49.3018438,13.4832958 53.1885793,17.3706143 57.983507,17.3710937 C62.7784349,17.3715731 66.6659476,13.4850319 66.6666667,8.69010417 C66.6616443,3.8968779 62.7776005,0.0122516187 57.984375,0.00651041667 L57.984375,0.00651041667 Z M60.71875,12.4010417 L59.6223958,12.9700521 L58.110677,10.0559896 L56.0273437,12.139323 L56.0273437,4.05208333 L62.0716145,9.59895833 L59.2669271,9.59895833 L60.71875,12.4010417 Z" id="Shape" fill="#43BAEE" fill-rule="nonzero"></path>
        </g>
    </g>
</svg>