<?xml version="1.0" encoding="UTF-8"?>
<svg width="553px" height="192px" viewBox="0 0 553 192" version="1.1" xmlns="http://www.w3.org/2000/svg" xmlns:xlink="http://www.w3.org/1999/xlink">
    <!-- Generator: Sketch 45.2 (43514) - http://www.bohemiancoding.com/sketch -->
    <title>Group 6</title>
    <desc>Created with Sketch.</desc>
    <defs>
        <linearGradient x1="50%" y1="0%" x2="50%" y2="97.1639828%" id="linearGradient-1">
            <stop stop-color="#FFFFFF" stop-opacity="0" offset="0%"></stop>
            <stop stop-color="#E6E9EB" stop-opacity="0.504528986" offset="58.1353635%"></stop>
            <stop stop-color="#FFFFFF" stop-opacity="0" offset="100%"></stop>
        </linearGradient>
        <circle id="path-2" cx="82.625" cy="141.625" r="9.625"></circle>
        <circle id="path-3" cx="312.625" cy="131.625" r="9.625"></circle>
        <circle id="path-4" cx="160.625" cy="127.625" r="9.625"></circle>
        <circle id="path-5" cx="237.625" cy="159.625" r="9.625"></circle>
        <circle id="path-6" cx="390.625" cy="54.625" r="9.625"></circle>
        <circle id="path-7" cx="466.625" cy="84.625" r="9.625"></circle>
        <circle id="path-8" cx="542.625" cy="9.625" r="9.625"></circle>
        <circle id="path-9" cx="9.625" cy="122.625" r="9.625"></circle>
    </defs>
    <g id="Activation" stroke="none" stroke-width="1" fill="none" fill-rule="evenodd">
        <g transform="translate(-462.000000, -745.000000)" id="Promo">
            <g transform="translate(274.000000, 590.000000)">
                <g id="Group">
                    <g id="Group-5" transform="translate(188.000000, 155.000000)">
                        <g id="Group-6">
                            <g id="Illustration">
                                <g id="Grid" opacity="0.300000012" transform="translate(81.000000, 21.000000)" stroke="url(#linearGradient-1)" stroke-linecap="square">
                                    <path d="M0.5,0 L0.5,176.050003" id="Line-Copy-2"></path>
                                    <path d="M77.7,0 L77.7,176.050003" id="Line-Copy-3"></path>
                                    <path d="M154.9,0 L154.9,176.050003" id="Line-Copy-4"></path>
                                    <path d="M232.1,0 L232.1,176.050003" id="Line-Copy-5"></path>
                                    <path d="M309.3,0 L309.3,176.050003" id="Line-Copy-6"></path>
                                    <path d="M386.5,0 L386.5,176.050003" id="Line-Copy-7"></path>
                                </g>
                                <g id="Graph">
                                    <path d="M6,123.540303 C6,123.540303 7.74580577,123.952137 9.89511151,124.459157 L78.7921008,140.711903 C80.9433114,141.219372 84.4514347,141.336115 86.6354374,140.971366 L155.426199,129.482657 C157.606744,129.118485 161.029499,129.52276 163.06028,130.381041 L232.375781,159.676261 C234.411423,160.536596 237.734677,160.604231 239.812333,159.822112 L308.998153,133.777582 C311.069605,132.997798 314.000153,131.090042 315.546272,129.513884 L386.638638,57.0402857 C388.183612,55.4652947 391.091136,54.8608096 393.134845,55.6909715 L462.42449,83.8366732 C464.467272,84.6664585 467.374578,84.0632839 468.920697,82.486838 L540.013063,10" id="Path-2-Copy-7" stroke="#FFFFFF" stroke-width="9" stroke-linecap="round" stroke-linejoin="round"></path>
                                    <g id="Oval">
                                        <use fill="#132E47" fill-rule="evenodd" xlink:href="#path-2"></use>
                                        <circle stroke="#FFFFFF" stroke-width="6" cx="82.625" cy="141.625" r="6.625"></circle>
                                    </g>
                                    <g id="Oval-Copy-4">
                                        <use fill="#132E47" fill-rule="evenodd" xlink:href="#path-3"></use>
                                        <circle stroke="#FFFFFF" stroke-width="6" cx="312.625" cy="131.625" r="6.625"></circle>
                                    </g>
                                    <g id="Oval-Copy-2">
                                        <use fill="#132E47" fill-rule="evenodd" xlink:href="#path-4"></use>
                                        <circle stroke="#FFFFFF" stroke-width="6" cx="160.625" cy="127.625" r="6.625"></circle>
                                    </g>
                                    <g id="Oval-Copy-3">
                                        <use fill="#132E47" fill-rule="evenodd" xlink:href="#path-5"></use>
                                        <circle stroke="#FFFFFF" stroke-width="6" cx="237.625" cy="159.625" r="6.625"></circle>
                                    </g>
                                    <g id="Oval-Copy-5">
                                        <use fill="#132E47" fill-rule="evenodd" xlink:href="#path-6"></use>
                                        <circle stroke="#FFFFFF" stroke-width="6" cx="390.625" cy="54.625" r="6.625"></circle>
                                    </g>
                                    <g id="Oval-Copy-6">
                                        <use fill="#132E47" fill-rule="evenodd" xlink:href="#path-7"></use>
                                        <circle stroke="#FFFFFF" stroke-width="6" cx="466.625" cy="84.625" r="6.625"></circle>
                                    </g>
                                    <g id="Oval-Copy-7">
                                        <use fill="#132E47" fill-rule="evenodd" xlink:href="#path-8"></use>
                                        <circle stroke="#FFFFFF" stroke-width="6" cx="542.625" cy="9.625" r="6.625"></circle>
                                    </g>
                                    <g id="Oval-Copy">
                                        <use fill="#132E47" fill-rule="evenodd" xlink:href="#path-9"></use>
                                        <circle stroke="#FFFFFF" stroke-width="6" cx="9.625" cy="122.625" r="6.625"></circle>
                                    </g>
                                </g>
                                <g id="Decrease-Total-Sales" transform="translate(185.000000, 65.000000)">
                                    <path d="M59.3920798,51 L98.0014791,51 C100.208015,51 102,49.2082953 102,46.9981155 L102,4.00188446 C102,1.78521308 100.209801,0 98.0014791,0 L3.99852088,0 C1.79198458,0 0,1.7917047 0,4.00188446 L0,46.9981155 C0,49.2147869 1.79019878,51 3.99852088,51 L42.6079202,51 L51,59.3920798 L59.3920798,51 Z" id="Combined-Shape" fill="#ED644C"></path>
                                    <text id="32.0%" font-family="AvenirNext-DemiBold, Avenir Next" font-size="14" font-weight="500" letter-spacing="-0.180000052" fill="#FFFFFF">
                                        <tspan x="37" y="37">32.0%</tspan>
                                    </text>
                                    <text id="TOTAL-SALES" opacity="0.800000012" font-family="AvenirNext-Bold, Avenir Next" font-size="10" font-weight="bold" letter-spacing="0.538461506" fill="#FFFFFF">
                                        <tspan x="16" y="18">TOTAL SALES</tspan>
                                    </text>
                                    <polyline id="Path-5-Copy" stroke="#FFFFFF" stroke-width="2" stroke-linecap="round" points="24 31 27.2718584 34.3306623 30.6025207 31"></polyline>
                                </g>
                                <g id="Increase-Total-Sales" transform="translate(339.000000, 85.000000)">
                                    <path d="M59.3920798,51 L98.0014791,51 C100.208015,51 102,49.2082953 102,46.9981155 L102,4.00188446 C102,1.78521308 100.209801,0 98.0014791,0 L3.99852088,0 C1.79198458,0 0,1.7917047 0,4.00188446 L0,46.9981155 C0,49.2147869 1.79019878,51 3.99852088,51 L42.6079202,51 L51,59.3920798 L59.3920798,51 Z" id="Combined-Shape-Copy-6" fill="#4DC2F0" transform="translate(51.000000, 29.696040) scale(1, -1) translate(-51.000000, -29.696040) "></path>
                                    <text id="56.0%" font-family="AvenirNext-DemiBold, Avenir Next" font-size="14" font-weight="500" letter-spacing="-0.180000052" fill="#FFFFFF">
                                        <tspan x="37" y="47">56.0%</tspan>
                                    </text>
                                    <text id="TOTAL-SALES-Copy" opacity="0.800000012" font-family="AvenirNext-Bold, Avenir Next" font-size="10" font-weight="bold" letter-spacing="0.538461506" fill="#FFFFFF">
                                        <tspan x="16" y="28">TOTAL SALES</tspan>
                                    </text>
                                    <polyline id="Path-5-Copy-2" stroke="#FFFFFF" stroke-width="2" stroke-linecap="round" points="24 44.3306623 27.2718584 41 30.6025207 44.3306623"></polyline>
                                </g>
                            </g>
                        </g>
                    </g>
                </g>
            </g>
        </g>
    </g>
</svg>