<?xml version="1.0" encoding="UTF-8"?>
<svg width="53px" height="60px" viewBox="0 0 53 60" version="1.1" xmlns="http://www.w3.org/2000/svg" xmlns:xlink="http://www.w3.org/1999/xlink">
    <!-- Generator: Sketch 51.2 (57519) - http://www.bohemiancoding.com/sketch -->
    <title>inventory</title>
    <desc>Created with Sketch.</desc>
    <defs>
        <polygon id="path-1" points="3.1718893e-06 1.47252671e-05 52.7869288 1.47252671e-05 52.7869288 59.994375 3.1718893e-06 59.994375"></polygon>
    </defs>
    <g id="Page-1" stroke="none" stroke-width="1" fill="none" fill-rule="evenodd">
        <g id="inventory">
            <mask id="mask-2" fill="white">
                <use xlink:href="#path-1"></use>
            </mask>
            <g id="Clip-2"></g>
            <path d="M0.327,10.3484063 C-0.79284375,6.95503125 1.05684375,3.28275 4.45096875,2.1631875 C7.844625,1.04334375 11.516625,2.89340625 12.6360937,6.2870625 L25.3710938,44.8845938 C24.1845937,44.5711875 22.92225,44.514 21.6620625,44.7443438 L9.33290625,7.37690625 C8.814375,5.8044375 7.11328125,4.94746875 5.5408125,5.46609375 C3.96825,5.985 3.111,7.686 3.62990625,9.2585625 C3.9309375,10.17075 3.43546875,11.1540937 2.5231875,11.4550313 C1.611375,11.7556875 0.62803125,11.2605937 0.327,10.3484063 Z M50.5026562,40.62675 L29.6370938,47.5110938 C30.3775312,48.3519375 30.9645937,49.3513125 31.3374375,50.4807188 C31.3505625,50.5210313 31.357875,50.561625 31.3703437,50.6019375 L51.5925,43.9299375 C52.5044062,43.6289063 52.999875,42.6456563 52.6988437,41.733375 C52.3981875,40.8211875 51.4145625,40.3257188 50.5026562,40.62675 Z M29.68575,51.0259688 C30.8679375,54.609 28.921875,58.4717812 25.3388438,59.65425 C21.7558125,60.8364375 17.8926562,58.89 16.7105625,55.3069688 C15.5284688,51.7240312 17.4745313,47.8611563 21.0574688,46.6786875 C24.6405,45.4965938 28.5036562,47.4430312 29.68575,51.0259688 Z M26.4419063,52.0960313 C25.8508125,50.3045625 23.9194688,49.3315312 22.1279063,49.922625 C20.3364375,50.513625 19.3634063,52.4454375 19.9545,54.2365312 C20.5455,56.0280937 22.4769375,57.0015 24.2684063,56.4104062 C26.0599688,55.8193125 27.033,53.8875938 26.4419063,52.0960313 Z M45.2295938,14.4455625 L52.313625,35.9158125 C52.4637188,36.3717187 52.2162188,36.8635312 51.7602188,37.014 L29.4642188,44.3704688 C29.0079375,44.5210312 28.5165,44.2730625 28.3659375,43.8171563 L21.282,22.3469063 C21.1314375,21.891 21.3790313,21.3991875 21.8353125,21.248625 L44.1313125,13.89225 C44.5873125,13.7416875 45.079125,13.9896563 45.2295938,14.4455625 Z M42.280125,26.9175937 L34.68825,22.7405625 L31.0740938,30.6149062 L33.466875,31.7160937 L35.0295,28.3095937 L37.8515625,36.8616563 L40.5520313,35.9706563 L37.7307188,27.42 L41.0127188,29.2265625 L42.280125,26.9175937 Z M35.655375,14.108625 L31.1265,0.3819375 C31.030125,0.09046875 30.7159688,-0.06815625 30.4244063,0.02821875 L26.5408125,1.30959375 L26.5216875,1.344375 L26.4891563,1.326375 L24.4401563,2.00278125 L26.1272813,7.1161875 L23.8165313,7.87903125 L22.1290313,2.76525 L20.07975,3.44165625 L20.064,3.4749375 L20.0280938,3.45853125 L16.1697187,4.73146875 C15.8781562,4.82775 15.719625,5.142 15.8159062,5.43384375 L20.344875,19.1605313 C20.4411562,19.452 20.7557812,19.610625 21.04725,19.51425 L35.3020313,14.811 C35.5935,14.7147188 35.75175,14.4001875 35.655375,14.108625 Z" id="Fill-1" fill="#43BAEE" mask="url(#mask-2)"></path>
        </g>
    </g>
</svg>