<?xml version="1.0" encoding="UTF-8"?>
<svg width="65px" height="54px" viewBox="0 0 65 54" version="1.1" xmlns="http://www.w3.org/2000/svg" xmlns:xlink="http://www.w3.org/1999/xlink">
    <!-- Generator: Sketch 3.6.1 (26313) - http://www.bohemiancoding.com/sketch -->
    <title>noun_823695_cc</title>
    <desc>Created with Sketch.</desc>
    <defs></defs>
    <g id="Page-1" stroke="none" stroke-width="1" fill="none" fill-rule="evenodd">
        <g id="noun_823695_cc" fill="#CECECE">
            <g id="Group" transform="translate(0.000000, 0.575810)">
                <path d="M5.41666667,0.326968056 C2.44706403,0.326968056 0,2.77402847 0,5.74363472 L0,47.2714125 C0,50.2410097 2.44706403,52.6880792 5.41666667,52.6880792 L59.5833333,52.6880792 C62.552936,52.6880792 65,50.2410097 65,47.2714125 L65,5.74363472 C65,2.77402847 62.552936,0.326968056 59.5833333,0.326968056 L5.41666667,0.326968056 L5.41666667,0.326968056 Z M5.41666667,3.93807917 L59.5833333,3.93807917 C60.6148418,3.93807917 61.3888889,4.71212986 61.3888889,5.74363472 L61.3888889,47.2714125 C61.3888889,48.3029264 60.6148418,49.0769681 59.5833333,49.0769681 L5.41666667,49.0769681 C4.38515819,49.0769681 3.61111111,48.3029264 3.61111111,47.2714125 L3.61111111,5.74363472 C3.61111111,4.71212986 4.38515819,3.93807917 5.41666667,3.93807917 L5.41666667,3.93807917 Z M9.93055556,7.54919028 C8.43013889,7.54919028 7.22222222,8.75710694 7.22222222,10.2575236 C7.22222222,11.7579403 8.43013889,12.9658569 9.93055556,12.9658569 L13.5416667,12.9658569 C15.0420833,12.9658569 16.25,11.7579403 16.25,10.2575236 C16.25,8.75710694 15.0420833,7.54919028 13.5416667,7.54919028 L9.93055556,7.54919028 L9.93055556,7.54919028 Z M51.4583333,7.54919028 C49.9579167,7.54919028 48.75,8.75710694 48.75,10.2575236 C48.75,11.7579403 49.9579167,12.9658569 51.4583333,12.9658569 L55.0694444,12.9658569 C56.5698611,12.9658569 57.7777778,11.7579403 57.7777778,10.2575236 C57.7777778,8.75710694 56.5698611,7.54919028 55.0694444,7.54919028 L51.4583333,7.54919028 L51.4583333,7.54919028 Z M24.0928819,13.8686347 C23.2072062,14.0087517 22.5585191,14.7775661 22.5694444,15.6741903 L22.5694444,37.3408569 C22.5779728,37.9875008 22.9316572,38.5802134 23.4966998,38.8947732 C24.0617424,39.209333 24.7518625,39.1977075 25.3059896,38.8642944 L43.3615451,28.0309611 C43.8952847,27.702252 44.2203689,27.1202571 44.2203689,26.4934177 C44.2203689,25.8665783 43.8952847,25.2845834 43.3615451,24.9558743 L25.3059896,14.122541 C24.9442388,13.8974377 24.5145427,13.8075013 24.0928819,13.8686347 L24.0928819,13.8686347 Z M9.93055556,18.3825236 C8.43013889,18.3825236 7.22222222,19.5904403 7.22222222,21.0908569 C7.22222222,22.5912736 8.43013889,23.7991903 9.93055556,23.7991903 L13.5416667,23.7991903 C15.0420833,23.7991903 16.25,22.5912736 16.25,21.0908569 C16.25,19.5904403 15.0420833,18.3825236 13.5416667,18.3825236 L9.93055556,18.3825236 L9.93055556,18.3825236 Z M51.4583333,18.3825236 C49.9579167,18.3825236 48.75,19.5904403 48.75,21.0908569 C48.75,22.5912736 49.9579167,23.7991903 51.4583333,23.7991903 L55.0694444,23.7991903 C56.5698611,23.7991903 57.7777778,22.5912736 57.7777778,21.0908569 C57.7777778,19.5904403 56.5698611,18.3825236 55.0694444,18.3825236 L51.4583333,18.3825236 L51.4583333,18.3825236 Z M26.1805556,18.8339125 L38.9322917,26.5075236 L26.1805556,34.1529229 L26.1805556,18.8339125 L26.1805556,18.8339125 Z M9.93055556,29.2158569 C8.43013889,29.2158569 7.22222222,30.4237736 7.22222222,31.9241903 C7.22222222,33.4246069 8.43013889,34.6325236 9.93055556,34.6325236 L13.5416667,34.6325236 C15.0420833,34.6325236 16.25,33.4246069 16.25,31.9241903 C16.25,30.4237736 15.0420833,29.2158569 13.5416667,29.2158569 L9.93055556,29.2158569 L9.93055556,29.2158569 Z M51.4583333,29.2158569 C49.9579167,29.2158569 48.75,30.4237736 48.75,31.9241903 C48.75,33.4246069 49.9579167,34.6325236 51.4583333,34.6325236 L55.0694444,34.6325236 C56.5698611,34.6325236 57.7777778,33.4246069 57.7777778,31.9241903 C57.7777778,30.4237736 56.5698611,29.2158569 55.0694444,29.2158569 L51.4583333,29.2158569 L51.4583333,29.2158569 Z M9.93055556,40.0491903 C8.43013889,40.0491903 7.22222222,41.2571069 7.22222222,42.7575236 C7.22222222,44.2579403 8.43013889,45.4658569 9.93055556,45.4658569 L13.5416667,45.4658569 C15.0420833,45.4658569 16.25,44.2579403 16.25,42.7575236 C16.25,41.2571069 15.0420833,40.0491903 13.5416667,40.0491903 L9.93055556,40.0491903 L9.93055556,40.0491903 Z M51.4583333,40.0491903 C49.9579167,40.0491903 48.75,41.2571069 48.75,42.7575236 C48.75,44.2579403 49.9579167,45.4658569 51.4583333,45.4658569 L55.0694444,45.4658569 C56.5698611,45.4658569 57.7777778,44.2579403 57.7777778,42.7575236 C57.7777778,41.2571069 56.5698611,40.0491903 55.0694444,40.0491903 L51.4583333,40.0491903 L51.4583333,40.0491903 Z" id="Shape"></path>
            </g>
        </g>
    </g>
</svg>