<?xml version="1.0" encoding="UTF-8"?>
<svg width="61px" height="61px" viewBox="0 0 61 61" version="1.1" xmlns="http://www.w3.org/2000/svg" xmlns:xlink="http://www.w3.org/1999/xlink">
    <!-- Generator: Sketch 3.6.1 (26313) - http://www.bohemiancoding.com/sketch -->
    <title>noun_1235544_cc</title>
    <desc>Created with Sketch.</desc>
    <defs></defs>
    <g id="Page-1" stroke="none" stroke-width="1" fill="none" fill-rule="evenodd">
        <g id="noun_1235544_cc" fill="#CECECE">
            <path d="M30.827957,-2.33024862e-15 C18.623246,-0.00163883768 7.61956197,7.34956275 2.94879955,18.6251537 C-1.72196288,29.9007446 0.860221866,42.8797103 9.49107527,51.5089247 C17.1140089,59.1318586 28.2246768,62.1089532 38.6377979,59.3187658 C49.050919,56.5285785 57.1844925,48.395005 59.9746798,37.9818839 C62.7648672,27.5687628 59.7877725,16.4580949 52.1648387,8.83516129 C46.5180044,3.158593 38.8348067,-0.0228602199 30.827957,1.7477068e-15 L30.827957,-2.33024862e-15 Z M35.4193548,4.34215054 L35.4193548,13.7741935 C32.4151785,12.9405873 29.2407355,12.9405873 26.2365591,13.7741935 L26.2365591,4.34215054 C29.2735807,3.80108576 32.3823332,3.80108576 35.4193548,4.34215054 L35.4193548,4.34215054 Z M21.5533333,39.4466667 C17.8007102,35.6951767 16.6776397,30.0524599 18.707868,25.1500085 C20.7380963,20.247557 25.5217477,17.0509621 30.827957,17.0509621 C36.1341663,17.0509621 40.9178177,20.247557 42.948046,25.1500085 C44.9782742,30.0524599 43.8552038,35.6951767 40.1025806,39.4466667 C34.9798944,44.5678061 26.6760196,44.5678061 21.5533333,39.4466667 L21.5533333,39.4466667 Z M12.2787097,11.6227957 C15.0964632,8.79424456 18.5250301,6.64914644 22.3010753,5.35225806 L22.3010753,15.4074194 C19.8085223,16.8431251 17.7209917,18.8877767 16.233871,21.35 L6.10655914,21.35 C7.41511692,17.6890185 9.52368166,14.3659563 12.2787097,11.6227957 L12.2787097,11.6227957 Z M14.3317204,34.4682796 L4.9455914,34.4682796 C4.44139616,31.4249086 4.47692041,28.3165369 5.05053763,25.2854839 L14.4956989,25.2854839 C13.6086386,28.274804 13.5519531,31.4491946 14.3317204,34.4682796 L14.3317204,34.4682796 Z M5.90322581,38.4037634 L15.8927957,38.4037634 C17.3872606,41.1362241 19.604122,43.4052737 22.3010753,44.9629032 L22.3010753,54.991828 C14.5476316,52.3217913 8.48366659,46.1874843 5.90322581,38.4037634 L5.90322581,38.4037634 Z M26.2365591,56.0019355 L26.2365591,46.5698925 C29.2399167,47.4094903 32.4159973,47.4094903 35.4193548,46.5698925 L35.4193548,56.0019355 C32.3823454,56.543138 29.2735686,56.543138 26.2365591,56.0019355 L26.2365591,56.0019355 Z M49.3772043,48.7212903 C46.5594508,51.5498415 43.1308839,53.6949396 39.3548387,54.991828 L39.3548387,44.9366667 C42.0517919,43.3790371 44.2686534,41.1099875 45.7631183,38.3775269 L55.7526882,38.3775269 C54.470469,42.2788109 52.2861747,45.822671 49.3772043,48.7212903 L49.3772043,48.7212903 Z M47.1602151,25.2854839 L56.6053763,25.2854839 C57.1789936,28.3165369 57.2145178,31.4249086 56.7103226,34.4682796 L47.3241935,34.4682796 C48.1039609,31.4491946 48.0472753,28.274804 47.1602151,25.2854839 L47.1602151,25.2854839 Z M55.5493548,21.35 L45.422043,21.35 C44.7114444,20.1740596 43.861339,19.0883032 42.8902151,18.1163441 L42.8902151,18.1163441 C41.8355443,17.0623599 40.646904,16.1515836 39.3548387,15.4074194 L39.3548387,5.35225806 C43.1308839,6.64914644 46.5594508,8.79424456 49.3772043,11.6227957 L49.3772043,11.6227957 C52.1322323,14.3659563 54.2407971,17.6890185 55.5493548,21.35 L55.5493548,21.35 Z" id="Shape"></path>
        </g>
    </g>
</svg>