<?xml version="1.0" encoding="UTF-8"?>
<svg width="65px" height="61px" viewBox="0 0 65 61" version="1.1" xmlns="http://www.w3.org/2000/svg" xmlns:xlink="http://www.w3.org/1999/xlink">
    <!-- Generator: Sketch 3.6.1 (26313) - http://www.bohemiancoding.com/sketch -->
    <title>noun_1243424_cc</title>
    <desc>Created with Sketch.</desc>
    <defs></defs>
    <g id="Page-1" stroke="none" stroke-width="1" fill="none" fill-rule="evenodd">
        <g id="noun_1243424_cc" fill="#CECECE">
            <path d="M64.965,10.3104878 C64.965,4.96949016 60.6352659,0.639756098 55.2942683,0.639756098 L10.1691463,0.639756098 C4.8281487,0.639756098 0.498414634,4.96949016 0.498414634,10.3104878 L0.498414634,39.0771951 C0.498414634,44.4181928 4.8281487,48.7479268 10.1691463,48.7479268 L16.5518293,48.7479268 L22.0567073,58.4707317 C22.7171484,59.6360938 23.9531863,60.356332 25.2926829,60.356332 C26.6321795,60.356332 27.8682174,59.6360938 28.5286585,58.4707317 L34.0335366,48.7479268 L55.2942683,48.7479268 C60.6352659,48.7479268 64.965,44.4181928 64.965,39.0771951 L64.965,10.3104878 Z M60.5015854,39.0771951 C60.5015854,41.9531169 58.1701901,44.2845122 55.2942683,44.2845122 L32.7317073,44.2845122 C31.9281403,44.2843839 31.1865483,44.7162689 30.790122,45.4152439 L25.2926829,55.1306098 L19.7952439,45.4152439 C19.3988175,44.7162689 18.6572255,44.2843839 17.8536585,44.2845122 L10.1691463,44.2845122 C7.29322453,44.2845122 4.96182927,41.9531169 4.96182927,39.0771951 L4.96182927,10.3104878 C4.96182927,7.434566 7.29322453,5.10317073 10.1691463,5.10317073 L55.2942683,5.10317073 C58.1701901,5.10317073 60.5015854,7.434566 60.5015854,10.3104878 L60.5015854,39.0771951 Z" id="Shape"></path>
            <path d="M17.4817073,12.6463415 L13.7621951,12.6463415 C12.5296572,12.6463415 11.5304878,13.6455109 11.5304878,14.8780488 C11.5304878,16.1105867 12.5296572,17.1097561 13.7621951,17.1097561 L17.4817073,17.1097561 C18.7142452,17.1097561 19.7134146,16.1105867 19.7134146,14.8780488 C19.7134146,13.6455109 18.7142452,12.6463415 17.4817073,12.6463415 L17.4817073,12.6463415 Z" id="Shape"></path>
            <path d="M51.7012195,12.6463415 L23.4329268,12.6463415 C22.2003889,12.6463415 21.2012195,13.6455109 21.2012195,14.8780488 C21.2012195,16.1105867 22.2003889,17.1097561 23.4329268,17.1097561 L51.7012195,17.1097561 C52.9337574,17.1097561 53.9329268,16.1105867 53.9329268,14.8780488 C53.9329268,13.6455109 52.9337574,12.6463415 51.7012195,12.6463415 L51.7012195,12.6463415 Z" id="Shape"></path>
            <path d="M17.4817073,22.3170732 L13.7621951,22.3170732 C12.5296572,22.3170732 11.5304878,23.3162426 11.5304878,24.5487805 C11.5304878,25.7813184 12.5296572,26.7804878 13.7621951,26.7804878 L17.4817073,26.7804878 C18.7142452,26.7804878 19.7134146,25.7813184 19.7134146,24.5487805 C19.7134146,23.3162426 18.7142452,22.3170732 17.4817073,22.3170732 L17.4817073,22.3170732 Z" id="Shape"></path>
            <path d="M51.7012195,22.3170732 L23.4329268,22.3170732 C22.2003889,22.3170732 21.2012195,23.3162426 21.2012195,24.5487805 C21.2012195,25.7813184 22.2003889,26.7804878 23.4329268,26.7804878 L51.7012195,26.7804878 C52.9337574,26.7804878 53.9329268,25.7813184 53.9329268,24.5487805 C53.9329268,23.3162426 52.9337574,22.3170732 51.7012195,22.3170732 L51.7012195,22.3170732 Z" id="Shape"></path>
            <path d="M17.4817073,31.9878049 L13.7621951,31.9878049 C12.5296572,31.9878049 11.5304878,32.9869743 11.5304878,34.2195122 C11.5304878,35.4520501 12.5296572,36.4512195 13.7621951,36.4512195 L17.4817073,36.4512195 C18.7142452,36.4512195 19.7134146,35.4520501 19.7134146,34.2195122 C19.7134146,32.9869743 18.7142452,31.9878049 17.4817073,31.9878049 L17.4817073,31.9878049 Z" id="Shape"></path>
            <path d="M51.7012195,31.9878049 L23.4329268,31.9878049 C22.2003889,31.9878049 21.2012195,32.9869743 21.2012195,34.2195122 C21.2012195,35.4520501 22.2003889,36.4512195 23.4329268,36.4512195 L51.7012195,36.4512195 C52.9337574,36.4512195 53.9329268,35.4520501 53.9329268,34.2195122 C53.9329268,32.9869743 52.9337574,31.9878049 51.7012195,31.9878049 L51.7012195,31.9878049 Z" id="Shape"></path>
        </g>
    </g>
</svg>