<?xml version="1.0" encoding="UTF-8"?>
<svg width="50px" height="61px" viewBox="0 0 50 61" version="1.1" xmlns="http://www.w3.org/2000/svg" xmlns:xlink="http://www.w3.org/1999/xlink">
    <!-- Generator: Sketch 3.6.1 (26313) - http://www.bohemiancoding.com/sketch -->
    <title>noun_670282_cc</title>
    <desc>Created with Sketch.</desc>
    <defs></defs>
    <g id="Page-1" stroke="none" stroke-width="1" fill="none" fill-rule="evenodd">
        <g id="noun_670282_cc" fill="#CECECE">
            <path d="M22.1823523,11.0909091 L11.0914432,11.0909091 L11.0914432,16.6363636 L22.1823523,16.6363636 L22.1823523,11.0909091 L22.1823523,11.0909091 Z M22.1823523,22.1818182 L11.0914432,22.1818182 L11.0914432,27.7272727 L22.1823523,27.7272727 L22.1823523,22.1818182 L22.1823523,22.1818182 Z M11.0914432,38.8181818 L38.8187159,38.8181818 L38.8187159,33.2727273 L11.0914432,33.2727273 L11.0914432,38.8181818 L11.0914432,38.8181818 Z M11.0914432,49.9090909 L38.8187159,49.9090909 L38.8187159,44.3636364 L11.0914432,44.3636364 L11.0914432,49.9090909 L11.0914432,49.9090909 Z M49.0972159,14.6760455 L35.2335795,0.812409091 C34.7137133,0.292385824 34.0085743,0.000157040079 33.2732614,0 L6.80480682,0 C2.98499706,0.0698451247 -0.0581752264,3.21718468 0.000534092089,7.03718182 L0.000534092089,53.9628182 C-0.0581752264,57.7828153 2.98499706,60.9301549 6.80480682,61 L43.1053523,61 C46.925162,60.9301549 49.9683343,57.7828153 49.909625,53.9628182 L49.909625,16.6363636 C49.909468,15.9010507 49.6172392,15.1959117 49.0972159,14.6760455 L49.0972159,14.6760455 Z M33.2732614,6.69336364 L43.2162614,16.6363636 L33.2732614,16.6363636 L33.2732614,6.69336364 L33.2732614,6.69336364 Z M44.3641705,53.9628182 C44.4250019,54.7212467 43.8632107,55.3869816 43.1053523,55.4545455 L6.80480682,55.4545455 C6.04694842,55.3869816 5.48515723,54.7212467 5.54598864,53.9628182 L5.54598864,7.03718182 C5.48515723,6.27875333 6.04694842,5.6130184 6.80480682,5.54545455 L27.7278068,5.54545455 L27.7278068,19.4090909 C27.7278068,20.9404259 28.9691991,22.1818182 30.5005341,22.1818182 L44.3641705,22.1818182 L44.3641705,53.9628182 L44.3641705,53.9628182 Z" id="Shape"></path>
        </g>
    </g>
</svg>