<?xml version="1.0" encoding="UTF-8"?>
<svg width="469px" height="103px" viewBox="0 0 469 103" version="1.1" xmlns="http://www.w3.org/2000/svg" xmlns:xlink="http://www.w3.org/1999/xlink">
    <!-- Generator: Sketch 46.1 (44463) - http://www.bohemiancoding.com/sketch -->
    <title>ithemes-logo</title>
    <desc>Created with Sketch.</desc>
    <defs></defs>
    <g id="Page-1" stroke="none" stroke-width="1" fill="none" fill-rule="evenodd">
        <g id="ithemes-logo" fill="#FFFFFF">
            <polygon id="Fill-7" points="2.512 102.124 22.576 102.124 22.576 28.716 2.512 28.716"></polygon>
            <path d="M12.689,0.0947 C5.838,0.0947 0.288,5.6407 0.288,12.4957 C0.288,19.3407 5.838,24.8907 12.689,24.8907 C19.538,24.8907 25.084,19.3407 25.084,12.4957 C25.084,5.6407 19.538,0.0947 12.689,0.0947" id="Fill-9"></path>
            <path d="M136.8408,29.4258 C136.8408,29.4258 118.6478,24.3458 107.3408,39.7478 L107.3408,1.4038 L87.0258,1.4038 L87.0258,87.2678 L69.5458,87.2678 C69.5458,87.2678 62.1188,86.9368 61.9548,78.0928 L61.9548,44.0088 L79.6448,44.0088 L79.6448,28.7168 L61.9548,28.7168 L61.9548,1.4038 L42.0188,6.6478 L42.0188,28.7168 L29.6688,28.7168 L29.6688,44.0088 L42.0188,44.0088 C42.0188,44.0088 41.5838,78.5278 42.2378,83.9898 C42.2378,83.9898 42.8928,94.6978 49.6598,99.7218 C49.6598,99.7218 53.1608,102.3428 66.4938,102.3428 L107.3408,102.3428 L107.3408,64.6748 C108.2508,58.0908 111.7158,46.0618 124.8798,45.1518 C124.8798,45.1518 132.0908,45.6418 132.0908,56.4628 L132.0908,102.1788 L151.9128,102.1788 L151.9128,50.7258 C151.9128,50.7258 152.7368,33.6858 136.8408,29.4258" id="Fill-10"></path>
            <path d="M193.7793,41.3862 C207.6253,42.0402 205.5003,55.9742 205.5003,55.9742 L179.2753,55.9742 C181.2483,40.3202 193.7793,41.3862 193.7793,41.3862 M319.8123,28.6062 C319.8123,28.6062 303.2133,26.2032 294.1423,42.5902 C294.1423,42.5902 291.3043,29.6952 275.7953,28.6062 C275.7953,28.6062 258.1013,26.8582 250.7753,41.1712 L250.7753,29.8092 L231.8773,29.8092 L231.8773,86.9362 L196.1563,86.9362 C196.1563,86.9362 179.2303,87.1562 179.2753,69.4032 L224.5023,69.4032 C224.5023,69.4032 227.3963,53.0722 221.6093,42.4792 C221.6093,42.4792 214.3983,23.5782 185.8923,27.9472 C185.8923,27.9472 163.4893,31.5582 159.7823,58.4292 C159.7823,58.4292 153.3363,96.4412 185.8923,101.5742 C185.8923,101.5742 192.4393,102.3432 194.8423,102.3432 L251.7593,102.3432 L251.7593,66.2092 C251.7593,59.8122 256.7053,45.2392 267.5993,45.1012 C267.5993,45.1012 275.7953,43.5732 276.0093,55.8032 L276.0093,102.3432 L295.6723,102.3432 C295.6723,102.3432 295.5393,75.4112 295.6723,65.8852 C295.7813,58.0422 300.3983,46.1362 310.5293,44.9912 C310.5293,44.9912 319.5933,43.9032 319.9243,54.6052 L319.9243,102.3432 L339.9163,102.3432 L339.9163,50.9992 C339.9163,50.9992 341.0083,29.9152 319.8123,28.6062" id="Fill-11"></path>
            <path d="M381.2363,41.3862 C395.0843,42.0402 392.9513,55.9742 392.9513,55.9742 L366.7323,55.9742 C368.7013,40.3202 381.2363,41.3862 381.2363,41.3862 M456.6893,60.1742 C456.6893,60.1742 447.1873,55.9142 446.2033,55.6982 C445.2203,55.4792 438.5623,52.8582 439.5393,47.8282 C439.5393,47.8282 438.6683,37.4512 463.1363,44.0082 L463.1363,28.2822 C463.1363,28.2822 439.4333,23.0332 425.5603,34.9392 C425.5603,34.9392 418.1273,41.3862 418.8963,51.9792 C418.8963,51.9792 418.7833,62.7972 428.8343,67.7102 C428.8343,67.7102 429.9313,68.9142 439.1013,72.0832 C439.1013,72.0832 448.7153,74.9272 447.7303,80.1662 C447.7303,80.1662 448.1703,86.5022 437.7933,86.9362 L417.8023,86.9362 L410.2693,86.9362 L383.6073,86.9362 C383.6073,86.9362 366.6833,87.1562 366.7323,69.4032 L411.9593,69.4032 C411.9593,69.4032 414.8493,53.0722 409.0663,42.4792 C409.0663,42.4792 401.8493,23.5782 373.3403,27.9472 C373.3403,27.9472 350.9453,31.5582 347.2303,58.4292 C347.2303,58.4292 340.7873,96.4412 373.3403,101.5742 C373.3403,101.5742 379.8963,102.3432 382.2993,102.3432 L417.8343,102.3432 C417.8343,102.3052 417.8323,102.2652 417.8323,102.2282 L435.7183,102.2282 C435.7183,102.2282 463.7913,103.8712 468.3773,82.7872 C468.3773,82.7872 472.2013,67.2702 456.6893,60.1742" id="Fill-12"></path>
        </g>
    </g>
</svg>