<?xml version="1.0" encoding="UTF-8"?>
<svg width="70px" height="62px" viewBox="0 0 70 62" version="1.1" xmlns="http://www.w3.org/2000/svg" xmlns:xlink="http://www.w3.org/1999/xlink">
    <!-- Generator: Sketch 47.1 (45422) - http://www.bohemiancoding.com/sketch -->
    <title>marketing_grey</title>
    <desc>Created with Sketch.</desc>
    <defs></defs>
    <g id="Page-1" stroke="none" stroke-width="1" fill="none" fill-rule="evenodd">
        <g id="marketing_grey" transform="translate(0.000000, -1.000000)" fill-rule="nonzero" fill="#43BAEE">
            <path d="M7.01063833,37.0287093 C7.7831598,36.5870588 8.05181023,35.6030486 7.610891,34.8301095 L7.20606943,34.1321412 L12.6502215,33.127067 L13.7250925,35.0046016 C15.3583905,37.8112015 18.7529111,39.0648894 21.8183905,37.9936747 C24.88387,36.9224599 26.7587482,33.8274097 26.2885204,30.6143815 L38.0841832,28.4437003 L38.9077858,29.8815148 C39.170562,30.4236339 39.7136553,30.7740274 40.3158923,30.7899984 C40.9181292,30.8059695 41.4790306,30.4848535 41.7701708,29.957424 C42.061311,29.4299945 42.0341151,28.7842497 41.6996586,28.2831676 L26.5188499,1.68359889 C26.0483188,0.978650003 25.1123139,0.758362068 24.3767683,1.17946192 C23.6412226,1.60056178 23.3572895,2.5192643 23.7269771,3.2819461 L24.4249453,4.47547175 L3.84884232,28.2063911 L3.5836144,27.745732 C3.32083816,27.203613 2.77774487,26.8532194 2.17550792,26.8372484 C1.57327096,26.8212775 1.01236955,27.1423935 0.721229377,27.669823 C0.430089209,28.1972524 0.457285079,28.8429971 0.791741534,29.3440792 L4.81203845,36.4284566 C5.25368898,37.2009781 6.23769924,37.4696285 7.01063833,37.0287093 Z M23.1406838,31.1867153 C23.3428287,32.8653655 22.3362469,34.4545943 20.7322344,34.9892651 C19.1282219,35.523936 17.3694193,34.856502 16.5239451,33.3922949 L16.0074486,32.5268144 L23.1406838,31.1867153 Z M37.6444634,12.9837043 C37.4101495,12.5737127 37.3483731,12.0874094 37.4727344,11.6318544 C37.5970957,11.1762993 37.8973992,10.7888397 38.3075331,10.5547749 L43.5981322,7.53257254 C44.1514063,7.17577524 44.8564459,7.15353086 45.4311116,7.47474104 C46.0057772,7.79595122 46.3561961,8.40814576 46.3421396,9.06633947 C46.328083,9.72453317 45.951847,10.321209 45.3639917,10.6175921 L40.066413,13.6816726 C39.652827,13.9109546 39.164998,13.9662199 38.710602,13.83527 C38.2562059,13.7043201 37.8726028,13.3979217 37.6444634,12.9837043 L37.6444634,12.9837043 Z M34.7199764,9.3472899 C34.0374076,8.72298695 33.9550445,7.67667071 34.531525,6.95325892 L38.4261878,2.06748141 C38.8112531,1.55668638 39.4432768,1.2952177 40.0766677,1.38467653 C40.7100586,1.47413534 41.2449459,1.90041609 41.4734838,2.49787519 C41.7020217,3.09533428 41.5881752,3.76976638 41.1761825,4.25910161 L37.2815199,9.14487912 C36.9775875,9.52430831 36.5306733,9.76165259 36.0461161,9.80096924 L35.9135022,9.80096924 C35.4748513,9.80774199 35.049385,9.65099127 34.7199764,9.36124927 L34.7199764,9.3472899 Z M39.3126074,17.359965 C39.2153774,16.8852721 39.3182827,16.3914945 39.5970389,15.9951588 C39.875795,15.5988231 40.3057072,15.3350402 40.7853203,15.2660603 L46.9483796,14.3796407 C47.9120727,14.2427963 48.8042345,14.9130896 48.9410789,15.8767826 C49.0779233,16.8404755 48.4076301,17.7326374 47.4439371,17.8694818 L41.2599386,18.7489218 L41.0156498,18.7489218 C40.193934,18.738611 39.4879424,18.1628228 39.3126074,17.359965 L39.3126074,17.359965 Z M18.3735609,62.7907162 C17.8215528,62.8039116 17.2876662,62.5933287 16.8933024,62.2068521 C16.4989384,61.8203754 16.277614,61.2908516 16.2796562,60.7386896 L16.2796562,53.5984748 C16.2796562,52.4690266 17.195255,51.5534278 18.3247031,51.5534278 L23.8665708,51.5534278 C24.996019,51.5534278 25.9116176,52.4690266 25.9116176,53.5984748 L25.9116176,60.7386896 C25.9116176,61.2810698 25.696158,61.8012354 25.3126372,62.1847562 C24.9291166,62.5682768 24.4089509,62.7837364 23.8665708,62.7837364 L18.3735609,62.7907162 Z M32.1025957,62.7907162 C30.9731474,62.7907162 30.0575488,61.8751175 30.0575488,60.7456693 L30.0575488,51.2044438 C30.0575488,50.6620637 30.2730085,50.141898 30.6565292,49.7583772 C31.0400498,49.3748566 31.5602155,49.159397 32.1025957,49.159397 L37.6444634,49.159397 C38.1868435,49.159397 38.7070091,49.3748566 39.0905298,49.7583772 C39.4740505,50.141898 39.6895102,50.6620637 39.6895102,51.2044438 L39.6895102,60.7386896 C39.6895102,61.2810698 39.4740505,61.8012354 39.0905298,62.1847562 C38.7070091,62.5682768 38.1868435,62.7837364 37.6444634,62.7837364 L32.1025957,62.7907162 Z M53.3906263,45.7882104 L53.3906263,60.7386896 C53.3906263,61.2810698 53.1751666,61.8012354 52.7916459,62.1847562 C52.4081252,62.5682768 51.8879596,62.7837364 51.3455794,62.7837364 L45.7967321,62.7837364 C44.6672839,62.7837364 43.7516852,61.8681378 43.7516852,60.7386896 L43.7516852,45.7882104 C43.7516852,44.6587622 44.6672839,43.7431636 45.7967321,43.7431636 L51.3385997,43.7431636 C51.8821882,43.7413083 52.4041487,43.9559486 52.7891804,44.3396707 C53.1742119,44.7233925 53.3906294,45.2446188 53.3906263,45.7882104 Z M67.119661,35.6397526 L67.119661,60.6968115 C67.1199707,61.8344286 66.2119216,62.7641719 65.0746142,62.7907162 L59.5536856,62.7907162 C58.4163782,62.7641719 57.508329,61.8344286 57.5086387,60.6968115 L57.5086387,35.6397526 C57.508329,34.5021355 58.4163782,33.5723923 59.5536856,33.5458479 L65.0676346,33.5458479 C66.2076791,33.5686534 67.1198892,34.4994799 67.119661,35.6397526 Z M69.6532857,22.3783565 C69.8858555,23.505029 69.1659118,24.6083193 68.0409791,24.849164 C66.9117587,25.0907713 65.8001027,24.3725666 65.5562123,23.243837 L64.7046911,19.2654183 C60.9186468,25.4223663 56.0303333,30.8288504 50.2846678,35.2139919 C45.4100856,38.8919034 39.9595182,41.736293 34.1546222,43.6314886 C28.8396606,45.410306 23.279929,46.3498795 17.6755927,46.4163818 C16.7333356,46.4163818 16.1749611,46.3814834 16.1191235,46.3745037 C14.962692,46.2916261 14.0924045,45.2869676 14.1752821,44.130536 C14.2581598,42.9741044 15.2628183,42.103817 16.4192499,42.1866944 C16.4192499,42.1866944 16.8310511,42.1866944 17.5848568,42.1866944 C22.8071609,42.1123265 27.9866494,41.2318136 32.9401575,39.5762933 C44.7497798,35.6676714 54.2281881,28.0737771 61.1241141,16.9900418 L57.2573701,17.8694818 C56.1572478,18.0447496 55.1124966,17.3279653 54.8800978,16.2384798 C54.647699,15.1489942 55.309026,14.0682854 56.3849099,13.779388 L65.2700453,11.8809145 C66.3992658,11.6393071 67.5109217,12.3575119 67.7548121,13.4862414 L69.6532857,22.3783565 Z" id="Shape"></path>
        </g>
    </g>
</svg>