<?xml version="1.0" encoding="UTF-8"?>
<svg width="57px" height="51px" viewBox="0 0 57 51" version="1.1" xmlns="http://www.w3.org/2000/svg" xmlns:xlink="http://www.w3.org/1999/xlink">
    <!-- Generator: Sketch 45.2 (43514) - http://www.bohemiancoding.com/sketch -->
    <title>noun_745472_cc</title>
    <desc>Created with Sketch.</desc>
    <defs></defs>
    <g id="Page-1" stroke="none" stroke-width="1" fill="none" fill-rule="evenodd">
        <g id="noun_745472_cc" fill-rule="nonzero" fill="#D4D4D4">
            <path d="M5.67527865,29.9756218 C6.30065317,29.6180952 6.51813209,28.8215155 6.16119748,28.1958029 L5.83348478,27.630781 L10.2406555,26.8171495 L11.1107892,28.3370584 C12.4329828,30.6090679 15.180928,31.6239581 17.6625066,30.7567843 C20.1440852,29.8896104 21.6618438,27.3840936 21.2811832,24.7830707 L30.8300531,23.0258526 L31.496779,24.1897977 C31.7095026,24.628656 32.1491495,24.9123079 32.6366747,24.9252368 C33.1241998,24.9381658 33.5782629,24.6782147 33.8139478,24.251248 C34.0496327,23.8242813 34.027617,23.3015355 33.7568665,22.8958976 L21.4676404,1.36291339 C21.0867343,0.792240479 20.329016,0.61391215 19.7335743,0.954802509 C19.1381326,1.29569287 18.908282,2.03940443 19.2075529,2.65681351 L19.7725748,3.62300094 L3.1157295,22.8337452 L2.90102118,22.4608307 C2.68829756,22.0219724 2.24865061,21.7383205 1.76112546,21.7253916 C1.2736003,21.7124627 0.819537251,21.9724138 0.583852353,22.3993805 C0.348167455,22.8263472 0.370183159,23.3490929 0.640933623,23.7547308 L3.8954597,29.489703 C4.25298632,30.1150775 5.04956605,30.3325564 5.67527865,29.9756218 Z M18.7329345,25.2463886 C18.8965756,26.6052959 18.0817237,27.8918144 16.7832374,28.3246432 C15.4847511,28.757472 14.0609585,28.2171683 13.376527,27.0318578 L12.9584108,26.3312307 L18.7329345,25.2463886 Z M30.4740894,10.5106178 C30.2844067,10.1787198 30.2343973,9.78504571 30.3350707,9.41626306 C30.4357441,9.0474804 30.678847,8.73382262 31.0108601,8.5443416 L35.2937261,6.09779682 C35.7416146,5.80896091 36.312361,5.79095355 36.7775665,6.05098084 C37.242772,6.31100813 37.5264445,6.80659419 37.5150654,7.33941767 C37.5036862,7.87224114 37.1991142,8.35526446 36.7232314,8.59519357 L32.4347153,11.0756397 C32.0999076,11.261249 31.7049984,11.3059875 31.337154,11.1999805 C30.9693095,11.0939734 30.6587737,10.8459366 30.4740894,10.5106178 L30.4740894,10.5106178 Z M28.1066476,7.56685373 C27.5540919,7.06146563 27.487417,6.21444772 27.9540917,5.62882865 L31.1069139,1.67367543 C31.4186335,1.26017469 31.9302717,1.04850957 32.4430167,1.12092862 C32.9557617,1.19334766 33.3887657,1.53843207 33.5737726,2.02208944 C33.7587795,2.5057468 33.666618,3.05171564 33.3331001,3.44784416 L30.180278,7.40299738 C29.9342375,7.71015435 29.5724498,7.90229019 29.1801892,7.93411796 L29.0728351,7.93411796 C28.7177368,7.93960066 28.3733117,7.81270722 28.1066476,7.57815417 L28.1066476,7.56685373 Z M31.8244917,14.053305 C31.7457817,13.6690298 31.829086,13.2693051 32.0547458,12.9484619 C32.2804055,12.6276187 32.6284296,12.4140802 33.0166879,12.3582393 L38.0058311,11.6406615 C38.7859636,11.5298827 39.5081898,12.0725011 39.6189686,12.8526335 C39.7297474,13.6327659 39.1871291,14.3549922 38.4069967,14.465771 L33.4009027,15.1776986 L33.2031451,15.1776986 C32.5379466,15.1693518 31.9664296,14.7032375 31.8244917,14.053305 L31.8244917,14.053305 Z M14.873835,50.8305798 C14.4269713,50.8412618 13.9947774,50.6707899 13.6755305,50.3579279 C13.3562835,50.0450658 13.1771161,49.6164037 13.1787693,49.1694154 L13.1787693,43.3892415 C13.1787693,42.4749263 13.9199683,41.7337273 14.8342835,41.7337273 L19.3205573,41.7337273 C20.2348725,41.7337273 20.9760714,42.4749263 20.9760714,43.3892415 L20.9760714,49.1694154 C20.9760714,49.6084851 20.8016517,50.0295715 20.4911825,50.3400407 C20.1807134,50.6505098 19.7596269,50.8249295 19.3205573,50.8249295 L14.873835,50.8305798 Z M25.9878156,50.8305798 C25.0735003,50.8305798 24.3323014,50.0893808 24.3323014,49.1750656 L24.3323014,41.4512164 C24.3323014,41.0121468 24.5067212,40.5910603 24.8171903,40.2805911 C25.1276594,39.970122 25.5487459,39.7957023 25.9878156,39.7957023 L30.4740894,39.7957023 C30.913159,39.7957023 31.3342455,39.970122 31.6447146,40.2805911 C31.9551837,40.5910603 32.1296035,41.0121468 32.1296035,41.4512164 L32.1296035,49.1694154 C32.1296035,49.6084851 31.9551837,50.0295715 31.6447146,50.3400407 C31.3342455,50.6505098 30.913159,50.8249295 30.4740894,50.8249295 L25.9878156,50.8305798 Z M43.2209832,37.0666465 L43.2209832,49.1694154 C43.2209832,49.6084851 43.0465634,50.0295715 42.7360943,50.3400407 C42.4256252,50.6505098 42.0045387,50.8249295 41.565469,50.8249295 L37.073545,50.8249295 C36.1592298,50.8249295 35.4180309,50.0837306 35.4180309,49.1694154 L35.4180309,37.0666465 C35.4180309,36.1523313 36.1592298,35.4111324 37.073545,35.4111324 L41.5598188,35.4111324 C41.9998666,35.4096305 42.4224061,35.583387 42.7340984,35.8940191 C43.0457906,36.2046511 43.2209857,36.6265962 43.2209832,37.0666465 Z M54.3349637,28.8512283 L54.3349637,49.1355141 C54.3352144,50.0564422 53.600127,50.8090915 52.6794496,50.8305798 L48.2101264,50.8305798 C47.289449,50.8090915 46.5543616,50.0564422 46.5546123,49.1355141 L46.5546123,28.8512283 C46.5543616,27.9303002 47.289449,27.1776509 48.2101264,27.1561626 L52.6737994,27.1561626 C53.5966926,27.1746242 54.3351484,27.9281504 54.3349637,28.8512283 Z M56.3859932,18.1158124 C56.574264,19.0278806 55.9914524,19.9210204 55.0807926,20.1159899 C54.1666618,20.3115768 53.2667498,19.730173 53.0693147,18.8164395 L52.379988,15.5958148 C49.315095,20.5800108 45.3578889,24.9566884 40.7066358,28.5065649 C36.7605455,31.4839218 32.3481814,33.7865229 27.6489799,35.3207289 C23.3463919,36.7607239 18.8456568,37.521331 14.3088131,37.5751662 C13.5460336,37.5751662 13.0940161,37.5469151 13.0488143,37.5412649 C12.1126554,37.4741735 11.408137,36.6608785 11.4752284,35.7247196 C11.5423198,34.7885607 12.3556148,34.0840423 13.2917737,34.1511336 C13.2917737,34.1511336 13.6251366,34.1511336 14.2353603,34.1511336 C18.4629398,34.090931 22.655859,33.3781348 26.6658418,32.0379517 C36.2260122,28.8738292 43.8990094,22.726391 49.4814257,13.7538434 L46.3512044,14.465771 C45.4606292,14.6076544 44.6148782,14.0274005 44.4267458,13.145436 C44.2386135,12.2634715 44.7739734,11.388612 45.6449271,11.1547427 L52.8376557,9.61788318 C53.7517866,9.42229626 54.6516985,10.0037001 54.8491336,10.9174335 L56.3859932,18.1158124 Z" id="Shape"></path>
        </g>
    </g>
</svg>