<?xml version="1.0" encoding="UTF-8"?>
<svg width="53px" height="62px" viewBox="0 0 53 62" version="1.1" xmlns="http://www.w3.org/2000/svg" xmlns:xlink="http://www.w3.org/1999/xlink">
    <!-- Generator: Sketch 51.2 (57519) - http://www.bohemiancoding.com/sketch -->
    <title>ominchannel</title>
    <desc>Created with Sketch.</desc>
    <defs>
        <polygon id="path-1" points="0.0184158416 0.117632685 52.3833999 0.117632685 52.3833999 51.8712871 0.0184158416 51.8712871"></polygon>
        <polygon id="path-3" points="0.0184158416 0.117632685 52.3833999 0.117632685 52.3833999 51.8712871 0.0184158416 51.8712871"></polygon>
    </defs>
    <g id="Page-1" stroke="none" stroke-width="1" fill="none" fill-rule="evenodd">
        <g id="ominchannel">
            <path d="M33.9686337,9.02161386 C33.4557525,9.02161386 33.0073267,8.64439604 32.9324356,8.12169307 C32.4573069,4.79364356 29.5592673,2.28356436 26.1913168,2.28356436 C24.0253069,2.28356436 21.9679505,3.32958416 20.6877426,5.08123762 C20.3467426,5.549 19.6899109,5.6499802 19.224297,5.30959406 C18.7571485,4.9679802 18.6549406,4.31268317 18.9965545,3.84553465 C20.6690198,1.55491089 23.3589604,0.188148515 26.1913168,0.188148515 C30.5954653,0.188148515 34.3854455,3.472 35.0066733,7.82611881 C35.0883168,8.39854455 34.6902277,8.92922772 34.117802,9.01087129 C34.0674653,9.01793069 34.0171287,9.02161386 33.9686337,9.02161386" id="Fill-1" fill="#D4D4D4" fill-rule="nonzero"></path>
            <path d="M49.2396634,21.1413861 L3.14266337,21.1413861 C2.76513861,21.1413861 2.41738614,20.938198 2.23138614,20.6094752 C2.04538614,20.2810594 2.0499901,19.8783663 2.24427723,19.5542475 L5.38724752,14.3158614 C5.57631683,14.0000297 5.91762376,13.8072772 6.28563366,13.8072772 L7.98817822,13.8072772 C8.56643564,13.8072772 9.03573267,14.2765743 9.03573267,14.8548317 C9.03573267,15.4330891 8.56643564,15.9023861 7.98817822,15.9023861 L6.87862376,15.9023861 L4.99284158,19.0453564 L47.3894851,19.0453564 L45.503703,15.9023861 L43.0847822,15.9023861 C42.5062178,15.9023861 42.0369208,15.4330891 42.0369208,14.8548317 C42.0369208,14.2765743 42.5062178,13.8072772 43.0847822,13.8072772 L46.0966931,13.8072772 C46.4650099,13.8072772 46.8060099,14.0000297 46.9950792,14.3158614 L50.1380495,19.5542475 C50.3323366,19.8777525 50.3369406,20.2810594 50.1512475,20.6094752 C49.9652475,20.938198 49.6171881,21.1413861 49.2396634,21.1413861" id="Fill-2" fill="#D4D4D4" fill-rule="nonzero"></path>
            <path d="M41.8653465,20.7380792 C41.7861584,20.7380792 41.7060495,20.7291782 41.6253267,20.7101485 C41.061802,20.5787822 40.7115941,20.0149505 40.8438812,19.4520396 L42.7671089,11.2278317 L30.5257921,8.36447525 L29.6872574,11.948198 C29.5558911,12.5117228 28.9914455,12.8616238 28.4285347,12.7296436 C27.864703,12.5982772 27.514802,12.0344455 27.6470891,11.4715347 L28.723802,6.86757426 C28.7873366,6.59655446 28.9555347,6.36267327 29.1912574,6.2159604 C29.4272871,6.06955446 29.7124257,6.02259406 29.9828317,6.08582178 L44.2643168,9.42645545 C44.5350297,9.48968317 44.7692178,9.65726733 44.9159307,9.89421782 C45.0626436,10.1299406 45.109297,10.4147723 45.0457624,10.6851782 L42.8834356,19.9290099 C42.7714059,20.4121188 42.3407822,20.7380792 41.8653465,20.7380792" id="Fill-3" fill="#D4D4D4" fill-rule="nonzero"></path>
            <path d="M8.81842574,21.0051089 C8.29449505,21.0051089 7.84238614,20.6131584 7.77915842,20.0800198 L6.18772277,6.6140495 C6.12019802,6.03947525 6.53087129,5.51861386 7.10483168,5.45047525 L24.627505,3.37930693 C24.9046634,3.34677228 25.1805941,3.42534653 25.3991287,3.59722772 C25.6176634,3.76910891 25.7585446,4.02109901 25.7910792,4.2970297 L26.7453267,12.3708416 C26.8128515,12.9454158 26.4021782,13.4662772 25.8282178,13.5341089 C25.2508812,13.5991782 24.7327822,13.1912673 24.6646436,12.6163861 L23.8334752,5.58306931 L8.39148515,7.40807921 L9.86045545,19.8344752 C9.9279802,20.4090495 9.51730693,20.929604 8.9430396,20.9977426 C8.90129703,21.0023465 8.85924752,21.0051089 8.81842574,21.0051089" id="Fill-4" fill="#D4D4D4" fill-rule="nonzero"></path>
            <g id="Group-8" transform="translate(0.000000, 10.128713)">
                <g id="Fill-5-Clipped">
                    <mask id="mask-2" fill="white">
                        <use xlink:href="#path-1"></use>
                    </mask>
                    <g id="path-1"></g>
                    <path d="M34.0109901,10.8595149 C33.5380099,10.8595149 33.1083069,10.5375446 32.9932079,10.057198 L31.1586832,2.42874257 L16.3185842,5.99681188 L17.1132277,9.30061386 C17.2482772,9.86321782 16.9020594,10.4288911 16.3394554,10.5642475 C15.7768515,10.7005248 15.2111782,10.3536931 15.0761287,9.79047525 L14.0368614,5.46827723 C13.901505,4.90567327 14.2480297,4.34 14.8106337,4.2049505 L31.6878317,0.146405941 C31.9591584,0.081950495 32.2430693,0.126762376 32.4797129,0.271019802 C32.7166634,0.41619802 32.886396,0.649772277 32.9511584,0.919564356 L35.0309208,9.56672277 C35.1659703,10.1293267 34.8197525,10.695 34.2571485,10.8303564 C34.1742772,10.8503069 34.0920198,10.8595149 34.0109901,10.8595149" id="Fill-5" fill="#D4D4D4" fill-rule="nonzero" mask="url(#mask-2)"></path>
                </g>
                <g id="Fill-7-Clipped">
                    <mask id="mask-4" fill="white">
                        <use xlink:href="#path-3"></use>
                    </mask>
                    <g id="path-1"></g>
                    <path d="M2.1500495,49.7758713 L50.2322772,49.7758713 L48.2442871,11.0126733 L4.1380396,11.0126733 L2.1500495,49.7758713 Z M51.3350792,51.8712871 L1.04755446,51.8712871 C0.760267327,51.8712871 0.485871287,51.7534257 0.28790099,51.5453267 C0.0905445545,51.3375347 -0.0131980198,51.0566931 0.00122772277,50.7700198 L2.09664356,9.91140594 C2.12549505,9.35463366 2.58527723,8.91787129 3.14327723,8.91787129 L49.2402772,8.91787129 C49.7979703,8.91787129 50.2580594,9.35463366 50.2869109,9.91140594 L52.3820198,50.7700198 C52.3967525,51.0573069 52.2930099,51.3375347 52.0956535,51.5453267 C51.8964554,51.7534257 51.6220594,51.8712871 51.3350792,51.8712871 Z" id="Fill-7" fill="#D4D4D4" fill-rule="nonzero" mask="url(#mask-4)"></path>
                </g>
            </g>
            <path d="M34.0487426,25.3319109 C33.4707921,25.3319109 33.0008812,25.8018218 33.0008812,26.3794653 C33.0008812,26.9574158 33.4707921,27.4273267 34.0487426,27.4273267 C34.6263861,27.4273267 35.096297,26.9574158 35.096297,26.3794653 C35.096297,25.8018218 34.6263861,25.3319109 34.0487426,25.3319109 Z M34.0487426,29.5224356 C32.315198,29.5224356 30.9057723,28.1130099 30.9057723,26.3794653 C30.9057723,24.6462277 32.315198,23.236495 34.0487426,23.236495 C35.7819802,23.236495 37.1917129,24.6462277 37.1917129,26.3794653 C37.1917129,28.1130099 35.7819802,29.5224356 34.0487426,29.5224356 Z" id="Fill-9" fill="#D4D4D4" fill-rule="nonzero"></path>
            <path d="M18.3338911,25.3319109 C17.7559406,25.3319109 17.2860297,25.8018218 17.2860297,26.3794653 C17.2860297,26.9574158 17.7559406,27.4273267 18.3338911,27.4273267 C18.9115347,27.4273267 19.3814455,26.9574158 19.3814455,26.3794653 C19.3814455,25.8018218 18.9115347,25.3319109 18.3338911,25.3319109 Z M18.3338911,29.5224356 C16.6003465,29.5224356 15.1909208,28.1130099 15.1909208,26.3794653 C15.1909208,24.6462277 16.6003465,23.236495 18.3338911,23.236495 C20.0671287,23.236495 21.4768614,24.6462277 21.4768614,26.3794653 C21.4768614,28.1130099 20.0671287,29.5224356 18.3338911,29.5224356 Z" id="Fill-10" fill="#D4D4D4" fill-rule="nonzero"></path>
            <path d="M26.1913168,42.0943168 C21.2807327,42.0943168 17.2860297,38.0996139 17.2860297,33.1893366 L17.2860297,27.4273267 C17.2860297,26.8490693 17.7553267,26.3794653 18.3338911,26.3794653 C18.9121485,26.3794653 19.3814455,26.8490693 19.3814455,27.4273267 L19.3814455,33.1893366 C19.3814455,36.9440198 22.4363267,39.9992079 26.1913168,39.9992079 C29.946,39.9992079 33.0008812,36.9440198 33.0008812,33.1893366 L33.0008812,27.8312475 C32.948703,27.7069406 32.9201584,27.5703564 32.9201584,27.4273267 C32.9201584,26.8490693 33.3897624,26.3794653 33.9680198,26.3794653 L34.0487426,26.3794653 C34.627,26.3794653 35.096297,26.8490693 35.096297,27.4273267 L35.096297,33.1893366 C35.096297,38.0996139 31.1015941,42.0943168 26.1913168,42.0943168" id="Fill-11" fill="#D4D4D4" fill-rule="nonzero"></path>
        </g>
    </g>
</svg>