<?xml version="1.0" encoding="UTF-8"?>
<svg width="56px" height="61px" viewBox="0 0 56 61" version="1.1" xmlns="http://www.w3.org/2000/svg" xmlns:xlink="http://www.w3.org/1999/xlink">
    <!-- Generator: Sketch 45.2 (43514) - http://www.bohemiancoding.com/sketch -->
    <title>noun_1122984_cc</title>
    <desc>Created with Sketch.</desc>
    <defs></defs>
    <g id="Activation" stroke="none" stroke-width="1" fill="none" fill-rule="evenodd">
        <g transform="translate(-905.000000, -1368.000000)" id="Promo" stroke="#4DC2F0" fill-rule="nonzero" fill="#4DC2F0">
            <g transform="translate(274.000000, 590.000000)">
                <g id="Group-2" transform="translate(110.000000, 511.000000)">
                    <g id="noun_1122984_cc" transform="translate(522.250000, 268.000000)">
                        <path d="M26.9033054,13.5532874 C30.6409896,13.5532874 33.6709813,10.5232957 33.6709813,6.78561147 C33.6709813,3.04792726 30.6409896,0.0179355369 26.9033054,0.0179355369 C23.1656212,0.0179355369 20.1356294,3.04792726 20.1356294,6.78561147 C20.1422109,10.5205662 23.1683507,13.546706 26.9033054,13.5532874 L26.9033054,13.5532874 Z M26.9033054,2.98925615 C28.9999745,2.98925615 30.6996607,4.68894232 30.6996607,6.78561147 C30.6996607,8.88228061 28.9999745,10.5819668 26.9033054,10.5819668 C24.8066362,10.5819668 23.1069501,8.88228061 23.1069501,6.78561147 C23.110242,4.69030739 24.8080013,2.99254807 26.9033054,2.98925615 Z" id="Shape"></path>
                        <path d="M15.4365188,21.6721071 L15.4365188,21.7259137 L16.8055981,30.6936822 C17.0055154,32.4229042 18.0182243,33.9530718 19.5317997,34.8128771 L21.7259137,49.7591579 C21.9284516,51.4246272 23.3423346,52.6768502 25.020074,52.6766719 L28.7745797,52.6766719 C30.4523191,52.6768502 31.8662021,51.4246272 32.06874,49.7591579 L34.262854,34.8128771 C35.7764294,33.9530718 36.7891383,32.4229042 36.9890556,30.6936822 L38.3581349,21.7259137 L38.3581349,21.6721071 C38.5552603,19.9175603 37.9964255,18.1620263 36.8213113,16.8443011 C35.6461971,15.526576 33.9658479,14.7711803 32.2002673,14.7669254 L30.4904128,14.7669254 C29.9687083,14.7657807 29.4752315,15.003707 29.151226,15.4126047 L26.9033054,18.1866344 L24.6852773,15.4185832 C24.3560376,14.9990901 23.8493888,14.7579341 23.316198,14.7669254 L21.5824294,14.7669254 C19.8189357,14.7745686 18.1418107,15.5314296 16.969349,16.8487382 C15.7968872,18.1660469 15.2396137,19.919624 15.4365188,21.6721071 Z M19.1910245,18.8203567 C19.7966235,18.1341189 20.667187,17.7401889 21.5824294,17.738246 L22.7183468,17.738246 L25.2293219,20.876965 C25.6192053,21.3705232 26.2145531,21.6571721 26.8435202,21.6541716 L26.9272194,21.6541716 C27.5530749,21.6567797 28.1456541,21.3726061 28.5354392,20.8829435 L31.088264,17.738246 L32.2182028,17.738246 C33.1376559,17.7378605 34.0138182,18.1288188 34.6276382,18.8133764 C35.2414582,19.497934 35.5349156,20.4113843 35.4346424,21.3253534 L34.0775201,30.2871433 L34.0775201,30.3469285 C33.9723705,31.2991062 33.334603,32.1084912 32.4334293,32.4334293 C31.9183176,32.6248853 31.5505804,33.0845568 31.4768673,33.6291317 L29.1273119,49.3346835 L29.1273119,49.3825116 C29.1088663,49.5598879 28.9588885,49.6943508 28.7805582,49.6933943 L25.0260525,49.6933943 C24.8477222,49.6943508 24.6977445,49.5598879 24.6792988,49.3825116 L24.6792988,49.3346835 L22.3656145,33.6052177 C22.2919014,33.0606428 21.9241642,32.6009713 21.4090526,32.4095152 C20.5078788,32.0845771 19.8701113,31.2751922 19.7649617,30.3230144 L19.7649617,30.2632293 L18.3958824,21.2954608 C18.2978022,20.3949837 18.586853,19.4952313 19.1910245,18.8203567 L19.1910245,18.8203567 Z" id="Shape"></path>
                        <path d="M46.5606538,51.2777 C46.5606538,48.4259497 43.1110522,46.1600935 36.8515498,44.8986274 C36.0459006,44.7335354 35.2589593,45.2528096 35.0938673,46.0584588 C34.9287752,46.864108 35.4480494,47.6510493 36.2536986,47.8161414 C41.7838225,48.9281447 43.5713977,50.6260422 43.5713977,51.2777 C43.5713977,51.8097876 42.4295018,52.9636405 39.2848044,53.9680306 C35.2606817,55.1195543 31.0883688,55.6695502 26.9033054,55.6001644 C22.7142443,55.6707318 18.5378153,55.1207245 14.5098494,53.9680306 C11.3651519,52.9636405 10.223256,51.8097876 10.223256,51.2777 C10.223256,50.6260422 12.0168097,48.9281447 17.5409551,47.8161414 C18.3466043,47.6510494 18.8658785,46.864108 18.7007865,46.0584588 C18.5356944,45.2528095 17.7487531,44.7335353 16.9431039,44.8986274 C10.6955585,46.1600935 7.24595691,48.4259497 7.24595691,51.2777 C7.24595691,52.8679843 8.34600318,55.1218834 13.6011155,56.8018454 C17.922329,58.0524955 22.4052256,58.6549162 26.9033054,58.5894206 C31.4016833,58.6529743 35.8845858,58.048538 40.2054952,56.7958669 C45.4366935,55.1218834 46.5606538,52.8739628 46.5606538,51.2777 Z" id="Shape"></path>
                        <path d="M43.5474836,12.0765949 C45.9878715,12.0790135 48.189308,10.6108206 49.1248804,8.35689003 C50.0604527,6.10295945 49.5458299,3.50737155 47.82107,1.78090059 C46.0963101,0.0544296206 43.5012338,-0.462766693 41.2463766,0.470570275 C38.9915195,1.40390724 37.5211444,3.60388689 37.5211432,6.04427594 C37.5244316,9.37213755 40.2196269,12.0700067 43.5474836,12.0765949 Z M43.5474836,2.98925615 C45.2347245,2.98925615 46.6025034,4.3570351 46.6025034,6.04427594 C46.6025034,7.73151678 45.2347245,9.09929573 43.5474836,9.09929573 C41.8602428,9.09929573 40.4924638,7.73151678 40.4924638,6.04427594 C40.4957534,4.35839955 41.8616072,2.99254568 43.5474836,2.98925615 Z" id="Shape"></path>
                        <path d="M46.632396,13.5712229 C46.1198962,13.5691837 45.6349083,13.8028596 45.3171233,14.2049452 L43.5654192,16.3930807 L41.8137151,14.2049452 C41.48158,13.7841696 40.9501935,13.5725489 40.4197236,13.6497985 C39.8892537,13.7270481 39.4402915,14.081432 39.2419567,14.5794572 C39.0436218,15.0774823 39.1260462,15.643487 39.4581812,16.0642626 L41.9452423,19.1671104 C42.3359496,19.6391465 42.9167918,19.9123786 43.5295481,19.9123786 C44.1423043,19.9123786 44.7231466,19.6391465 45.1138538,19.1671104 L47.2302472,16.5485221 L48.10311,16.5485221 C48.8325413,16.5480959 49.5279772,16.856848 50.0168848,17.3981793 C50.5057925,17.9395106 50.7423582,18.662695 50.6678918,19.3883154 L49.4721893,27.1005963 L49.4721893,27.1603814 C49.3888801,27.8999422 48.8928815,28.5280525 48.1927877,28.7805582 C47.6753472,28.9702298 47.3050307,29.4302502 47.2302472,29.9762607 L45.2573381,44.0795712 C45.1437614,44.8933877 45.7110553,45.6453198 46.5247828,45.7595332 L46.7340307,45.7595332 C47.4741493,45.7579639 48.1007134,45.212904 48.2047447,44.4801315 L50.0819976,31.1540276 C51.3935434,30.3700357 52.2645348,29.0193358 52.4375314,27.5011566 L53.6332339,19.7828972 L53.6332339,19.7290906 C53.8068227,18.1593633 53.3032066,16.5900509 52.2486062,15.4144682 C51.1940058,14.2388855 49.6883824,13.5684612 48.1090885,13.5712229 L46.632396,13.5712229 Z" id="Shape"></path>
                        <path d="M10.2591271,12.0765949 C13.5906849,12.0765949 16.291446,9.37583368 16.291446,6.04427594 C16.291446,2.7127182 13.5906849,0.0119570246 10.2591271,0.0119570246 C6.92756937,0.0119570246 4.2268082,2.7127182 4.2268082,6.04427594 C4.23010379,9.37446765 6.9289354,12.0732993 10.2591271,12.0765949 Z M10.2591271,2.98925615 C11.9423783,3.00572711 13.2951435,4.38071333 13.2841897,6.0640095 C13.2732358,7.74730566 11.9026907,9.10457022 10.2193677,9.09913354 C8.53604469,9.09369687 7.17429535,7.72760774 7.17421477,6.04427594 C7.17578159,5.22932502 7.50226096,4.44864242 8.08131802,3.87519637 C8.66037509,3.30175032 9.44419957,2.98288783 10.2591271,2.98925615 Z" id="Shape"></path>
                        <path d="M0.191312394,19.8068113 L1.36907932,27.5011566 C1.54562236,29.0149633 2.4161721,30.3605592 3.72461317,31.1420706 L5.60186603,44.4681745 C5.70589733,45.200947 6.33246147,45.7460068 7.07258006,45.7475762 L7.28182799,45.7475762 C8.09555541,45.6333628 8.66284937,44.8814307 8.5492726,44.0676142 L6.57636353,29.9702822 C6.50158002,29.4242717 6.13126356,28.9642513 5.61382305,28.7745797 C4.91372919,28.5220739 4.41773067,27.8939637 4.33442142,27.1544029 L4.33442142,27.0946178 L3.13871896,19.3823369 C3.06425251,18.6567165 3.30081826,17.9335321 3.7897259,17.3922008 C4.27863354,16.8508695 4.9740694,16.5421173 5.70350074,16.5425435 L6.57636353,16.5425435 L8.67482135,19.1611319 C9.04899955,19.6345785 9.61980066,19.9100617 10.223256,19.908446 L10.2591271,19.908446 C10.8742938,19.9236021 11.4608998,19.6491148 11.8434329,19.1671104 L14.3484295,16.0642626 C14.8084743,15.421314 14.6856988,14.5309032 14.0688215,14.0364474 C13.4519442,13.5419916 12.556159,13.6159788 12.0287668,14.2049452 L10.2770627,16.3930807 L8.53133706,14.2169023 C8.20642969,13.7992898 7.70321019,13.5598726 7.17421477,13.5712229 L5.67958669,13.5712229 C4.10550377,13.5769505 2.60794741,14.2510488 1.55998438,15.4255885 C0.512021349,16.6001281 0.0123088911,18.1645357 0.185333881,19.7290906 L0.191312394,19.8068113 Z" id="Shape"></path>
                    </g>
                </g>
            </g>
        </g>
    </g>
</svg>