<?xml version="1.0" encoding="UTF-8"?>
<svg width="49px" height="55px" viewBox="0 0 49 55" version="1.1" xmlns="http://www.w3.org/2000/svg" xmlns:xlink="http://www.w3.org/1999/xlink">
    <!-- Generator: Sketch 45.2 (43514) - http://www.bohemiancoding.com/sketch -->
    <title>noun_1123003_cc</title>
    <desc>Created with Sketch.</desc>
    <defs></defs>
    <g id="Activation" stroke="none" stroke-width="1" fill="none" fill-rule="evenodd">
        <g transform="translate(-908.000000, -1105.000000)" id="Promo" fill-rule="nonzero" fill="#4DC2F0">
            <g transform="translate(274.000000, 590.000000)">
                <g id="Group-2" transform="translate(110.000000, 511.000000)">
                    <g id="noun_1123003_cc" transform="translate(524.000000, 3.000000)">
                        <path d="M48.0038127,40.6757969 L48.0038127,15.8474834 C48.0027725,15.1095661 47.6095795,14.4278203 46.9713812,14.0573803 L25.4568399,1.63489754 C24.815393,1.26455796 24.0250977,1.26455796 23.3836508,1.63489754 L1.88576168,14.0490543 C1.24756332,14.4194943 0.854370395,15.1012401 0.853330138,15.8391573 L0.853330138,40.6757969 C0.854370395,41.4137141 1.24756332,42.0954599 1.88576168,42.4658999 L23.3919769,54.8883827 C24.0334238,55.2587223 24.823719,55.2587223 25.465166,54.8883827 L46.9630551,42.4658999 C47.604458,42.0975716 48.0010525,41.415429 48.0038127,40.6757969 Z M24.4244084,5.82290614 L41.7842453,15.8141792 L35.456439,19.4693199 L18.0966022,9.47804686 L24.4244084,5.82290614 Z M24.4244084,25.8720607 L7.06457153,15.8807876 L13.9585499,11.9009306 L31.3183868,21.8922036 L24.4244084,25.8720607 Z M4.99138238,19.4276896 L22.3512192,29.4189626 L22.3512192,49.5014213 L4.99138238,39.5101483 L4.99138238,19.4276896 Z M26.4975975,49.5014213 L26.4975975,29.4522668 L43.8574344,19.4609938 L43.8574344,39.4768441 L26.4975975,49.5014213 Z" id="Shape"></path>
                    </g>
                </g>
            </g>
        </g>
    </g>
</svg>