<?xml version="1.0" encoding="UTF-8"?>
<svg width="57px" height="64px" viewBox="0 0 57 64" version="1.1" xmlns="http://www.w3.org/2000/svg" xmlns:xlink="http://www.w3.org/1999/xlink">
    <!-- Generator: Sketch 45.2 (43514) - http://www.bohemiancoding.com/sketch -->
    <title>Products Icon</title>
    <desc>Created with Sketch.</desc>
    <defs></defs>
    <g id="Modules" stroke="none" stroke-width="1" fill="none" fill-rule="evenodd">
        <g id="Modules---Short" transform="translate(-455.000000, -528.000000)" fill-rule="nonzero" fill="#D4D4D4">
            <g id="Expand-your-Dashboard" transform="translate(274.000000, 170.000000)">
                <g id="Products" transform="translate(84.000000, 356.000000)">
                    <path d="M153.731426,48.8619265 L153.731426,19.4630278 C153.73019,18.5892691 153.2632,17.7820223 152.505221,17.3433888 L126.952687,2.63408068 C126.190849,2.19556618 125.252226,2.19556618 124.490388,2.63408068 L98.957631,17.3335301 C98.1996513,17.7721635 97.7326613,18.5794103 97.7314258,19.453169 L97.7314258,48.8619265 C97.7326613,49.7356852 98.1996513,50.542932 98.957631,50.9815654 L124.500276,65.6908736 C125.262114,66.1293881 126.200737,66.1293881 126.962575,65.6908736 L152.495332,50.9815654 C153.257118,50.5454324 153.728148,49.7377158 153.731426,48.8619265 Z M125.726481,7.59304986 L146.344528,19.4235926 L138.829077,23.7515995 L118.21103,11.9210567 L125.726481,7.59304986 Z M125.726481,31.3330057 L105.108434,19.5024629 L113.296321,14.7899634 L133.914368,26.6205061 L125.726481,31.3330057 Z M102.646135,23.7023056 L123.264182,35.5328483 L123.264182,59.3122393 L102.646135,47.4816965 L102.646135,23.7023056 Z M128.188781,59.3122393 L128.188781,35.5722835 L148.806828,23.7417407 L148.806828,47.4422614 L128.188781,59.3122393 Z" id="Products-Icon"></path>
                </g>
            </g>
        </g>
    </g>
</svg>