<?xml version="1.0" encoding="UTF-8"?>
<svg width="57px" height="49px" viewBox="0 0 57 49" version="1.1" xmlns="http://www.w3.org/2000/svg" xmlns:xlink="http://www.w3.org/1999/xlink">
    <!-- Generator: Sketch 45.2 (43514) - http://www.bohemiancoding.com/sketch -->
    <title>Reports Icon</title>
    <desc>Created with Sketch.</desc>
    <defs></defs>
    <g id="Modules" stroke="none" stroke-width="1" fill="none" fill-rule="evenodd">
        <g id="Modules---Short" transform="translate(-441.000000, -374.000000)" fill-rule="nonzero" fill="#D4D4D4">
            <g id="Expand-your-Dashboard" transform="translate(274.000000, 170.000000)">
                <g id="Reports" transform="translate(82.000000, 203.000000)">
                    <path d="M134.261646,3.61270751 C133.817016,1.78718079 131.983548,0.661685407 130.154469,1.09146989 L111.181284,5.5355869 C110.400041,5.7200693 109.916272,6.50294431 110.100754,7.28418718 C110.285236,8.06543005 111.068111,8.5492 111.849354,8.36471759 L130.822539,3.89736337 C130.955073,3.86607195 131.094615,3.88895263 131.210217,3.96093092 C131.325818,4.03290922 131.407924,4.14803562 131.438325,4.28077739 L138.409489,33.9895543 C138.44078,34.122089 138.4179,34.2616309 138.345921,34.3772324 C138.273943,34.4928339 138.158817,34.5749397 138.026075,34.6053405 L101.909636,43.1159698 C101.196413,43.2883152 100.723774,43.9655749 100.808048,44.6944697 C100.892322,45.4233645 101.507034,45.974906 102.240767,45.9799563 C102.35427,45.9794056 102.467331,45.9657603 102.577706,45.9392912 L106.644218,44.9807561 C106.700871,45.0057961 106.759086,45.0271416 106.818498,45.0446585 L124.879621,49.8896174 C125.164187,49.9634409 125.457032,50.0005346 125.751017,49.9999942 C127.303403,49.9951371 128.657998,48.9458032 129.050701,47.4439007 L131.182716,39.2063087 L138.699954,37.4635177 C140.53491,37.0294235 141.672838,35.1926324 141.244429,33.3563403 L134.261646,3.61270751 Z M126.238998,46.7119285 C126.205294,46.844403 126.119367,46.9575758 126.000817,47.0256309 C125.887842,47.0948755 125.751777,47.1158086 125.623212,47.0837239 L112.592945,43.5865234 L127.999217,39.9557088 L126.238998,46.7119285 Z M120.760825,21.4240314 C121.124325,21.6590255 121.547934,21.784091 121.980779,21.7842082 C122.144846,21.7843647 122.308451,21.7668356 122.468761,21.7319244 L128.278064,20.459687 C129.503081,20.1957485 130.282926,18.9895886 130.020855,17.7641703 C129.555144,15.6327147 128.261195,13.7738307 126.424053,12.5970137 C124.586911,11.4201967 122.357295,11.0219928 120.22637,11.4901228 L120.22637,11.4901228 C119.001352,11.7540613 118.221507,12.9602212 118.483579,14.1856395 L119.755816,19.9949428 C119.884458,20.5873152 120.24686,21.1026385 120.760825,21.4240314 Z M124.827338,15.0337978 C125.828565,15.6706114 126.585834,16.6264078 126.97678,17.7467424 L122.468761,18.7517519 L121.47537,14.2263046 C122.657417,14.1079404 123.844776,14.3924973 124.844766,15.0337978 L124.827338,15.0337978 Z M116.508415,17.2645702 C116.060783,16.9974792 115.523064,16.9260634 115.021234,17.0670539 C110.666726,18.3197751 107.899363,22.5876956 108.532382,27.0743797 C109.1654,31.5610637 113.005542,34.8967425 117.536662,34.8958057 C118.038483,34.9014202 118.539877,34.8644958 119.035462,34.7854289 C123.927788,33.9320588 127.241377,29.32555 126.494608,24.4158225 C126.4078,23.9080051 126.118461,23.4572229 125.692924,23.1668223 C125.256602,22.8682764 124.716358,22.7631706 124.199933,22.8763572 L118.623002,24.0963109 L117.397239,18.5193797 C117.288382,17.9956946 116.966317,17.5410151 116.508415,17.2645702 L116.508415,17.2645702 Z M118.361583,27.1113393 L123.694524,25.9494786 C123.634588,28.9917823 121.371312,31.5388472 118.357159,31.9560861 C115.343006,32.3733249 112.472932,30.5368523 111.588815,27.6252305 C110.704698,24.7136087 112.069048,21.5913486 114.80629,20.2621707 L115.96815,25.5951111 C116.082123,26.1143577 116.397719,26.5670521 116.845497,26.8535863 C117.293275,27.1401205 117.836546,27.2370179 118.355774,27.1229579 L118.361583,27.1113393 Z M92.5798952,48.4024358 C93.2353529,48.4030698 93.869633,48.1703632 94.3691606,47.7459845 C97.9646486,44.701161 100.50616,40.5981456 101.63079,36.0228105 L107.765414,10.2527412 C108.18321,8.569224 107.906411,6.78841703 106.99732,5.31114371 C106.088229,3.83387038 104.623233,2.78426166 102.932074,2.39856313 C99.4421062,1.65774855 95.9973134,3.83232235 95.1650352,7.30161509 L94.7235281,9.0850712 L94.7235281,9.0850712 L94.4679188,10.1656016 L91.4296532,9.41039218 C90.703966,9.23154886 89.9369539,9.34836897 89.2974134,9.73514389 C88.6578729,10.1219188 88.1982134,10.7469529 88.0195922,11.4726948 L85.0394196,23.4689061 C84.8564988,24.2411354 85.3273157,25.0172073 86.0967128,25.2116971 C86.2108579,25.2391237 86.3278778,25.252776 86.445271,25.2523622 C87.1116087,25.2505139 87.6912033,24.7954603 87.8511224,24.1485946 L90.8080577,12.2395229 L93.7998489,12.9831137 L89.0826947,32.9264518 C87.9396898,37.4922696 88.2670046,42.3023741 90.0179925,46.6712634 C90.4323197,47.721156 91.4453979,48.4118911 92.5740859,48.4140544 L92.5798952,48.4024358 Z M91.9060161,33.6235682 L97.5584681,9.80542481 L97.9999752,8.027778 C98.4427142,6.09810925 100.339695,4.8703481 102.281432,5.25674034 C103.213664,5.47000692 104.020673,6.04983875 104.520227,6.86530475 C105.019782,7.68077075 105.169756,8.66310237 104.936283,9.59048058 L98.8074683,35.3663592 C97.8388764,39.2671053 95.6856162,42.7719878 92.6437976,45.399026 C91.1860514,41.6446171 90.9282892,37.5305697 91.9060161,33.6235682 L91.9060161,33.6235682 Z" id="Reports-Icon"></path>
                </g>
            </g>
        </g>
    </g>
</svg>