<?xml version="1.0" encoding="UTF-8"?>
<svg width="72px" height="63px" viewBox="0 0 72 63" version="1.1" xmlns="http://www.w3.org/2000/svg" xmlns:xlink="http://www.w3.org/1999/xlink">
    <!-- Generator: Sketch 45.2 (43514) - http://www.bohemiancoding.com/sketch -->
    <title>Shape</title>
    <desc>Created with Sketch.</desc>
    <defs></defs>
    <g id="Activation" stroke="none" stroke-width="1" fill="none" fill-rule="evenodd">
        <g transform="translate(-501.000000, -1101.000000)" id="Promo" fill-rule="nonzero" fill="#4DC2F0">
            <g transform="translate(274.000000, 590.000000)">
                <g id="Group-2" transform="translate(110.000000, 511.000000)">
                    <path d="M179.960137,3.33923925 C179.391866,1.00607702 177.048553,-0.432391826 174.710851,0.116905488 L150.461676,5.79682561 C149.463188,6.03260817 148.844893,7.03318208 149.080676,8.03166999 C149.316458,9.0301579 150.317032,9.64845274 151.31552,9.41267018 L175.564696,3.70305113 C175.734085,3.66305831 175.91243,3.69230156 176.060178,3.7842953 C176.207925,3.87628905 176.312863,4.02342937 176.351717,4.19308345 L185.261396,42.1631638 C185.301389,42.3325532 185.272145,42.5108983 185.180152,42.6586459 C185.088158,42.8063934 184.941018,42.9113309 184.771363,42.9501854 L138.611803,53.8274181 C137.70025,54.0476886 137.096181,54.9132781 137.203889,55.8448612 C137.311598,56.7764443 138.097246,57.4813564 139.035013,57.487811 C139.180079,57.4871072 139.32458,57.4696675 139.465648,57.4358379 L144.66296,56.2107571 C144.735367,56.2427601 144.80977,56.2700412 144.885702,56.2924292 L167.969195,62.4846558 C168.332891,62.5790079 168.707169,62.6264164 169.082904,62.6257257 C171.066972,62.619518 172.798248,61.2783893 173.300152,59.3588436 L176.025029,48.8305733 L185.632632,46.6031537 C187.977846,46.0483483 189.432204,43.7007893 188.884665,41.353868 L179.960137,3.33923925 Z M169.706582,58.4233273 C169.663505,58.5926398 169.553683,58.7372832 169.402168,58.8242628 C169.257777,58.9127627 169.083875,58.9395168 168.91956,58.8985102 L152.265886,54.4288214 L171.956276,49.7883638 L169.706582,58.4233273 Z M162.705059,26.1034681 C163.16964,26.4038085 163.711045,26.5636518 164.264253,26.5638015 C164.473943,26.5640016 164.683043,26.541598 164.887931,26.4969789 L172.312663,24.8709626 C173.878329,24.533629 174.87503,22.9920648 174.540082,21.4258868 C173.944869,18.7017242 172.291103,16.3259288 169.943096,14.821867 C167.595088,13.3178052 164.745469,12.8088703 162.021984,13.4071761 L162.021984,13.4071761 C160.456318,13.7445097 159.459617,15.2860739 159.794564,16.8522518 L161.420581,24.276984 C161.584995,25.0340811 162.048172,25.6927035 162.705059,26.1034681 Z M167.902372,17.9362627 C169.182017,18.750159 170.149865,19.9717396 170.649523,21.4036126 L164.887931,22.6880913 L163.618301,16.9042249 C165.129047,16.7529465 166.646584,17.1166319 167.924646,17.9362627 L167.902372,17.9362627 Z M157.270155,20.7873599 C156.698047,20.4459972 156.010802,20.3547224 155.369424,20.534919 C149.804032,22.1359922 146.267131,27.5907197 147.076177,33.3250437 C147.885223,39.0593677 152.793217,43.3226194 158.584333,43.321422 C159.225699,43.3285979 159.866519,43.2814057 160.499914,43.1803521 C166.752679,42.0896802 170.987698,36.2022109 170.03327,29.9272052 C169.922323,29.2781758 169.552526,28.7020418 169.008657,28.3308878 C168.451004,27.9493233 167.760532,27.8149901 167.100501,27.9596512 L159.972758,29.5188449 L158.406139,22.391102 C158.267012,21.7217925 157.855389,21.1406774 157.270155,20.7873599 L157.270155,20.7873599 Z M159.638645,33.3722809 L166.454549,31.8873345 C166.377947,35.7756304 163.485307,39.0309734 159.632991,39.5642364 C155.780674,40.0974994 152.1125,37.7503475 150.982531,34.0290731 C149.852562,30.3077986 151.596306,26.3173123 155.094709,24.6185217 L156.579655,31.4344258 C156.725321,32.0980626 157.128677,32.6766404 157.700971,33.042853 C158.273266,33.4090656 158.967608,33.5329078 159.63122,33.3871304 L159.638645,33.3722809 Z M126.687684,60.5839244 C127.525408,60.5847347 128.336067,60.2873179 128.974501,59.7449296 C133.569809,55.8534132 136.818053,50.6094469 138.255416,44.7618201 L146.095934,11.8257081 C146.629908,9.67404495 146.276139,7.39803796 145.114251,5.50997011 C143.952363,3.62190226 142.079987,2.28042234 139.918556,1.78747023 C135.458112,0.840652764 131.055404,3.61992375 129.991689,8.05394419 L129.42741,10.333337 L129.42741,10.333337 L129.100722,11.7143372 L125.217587,10.749122 C124.290103,10.5205466 123.309803,10.6698516 122.492422,11.1641794 C121.67504,11.6585072 121.08756,12.4573484 120.859269,13.3849019 L117.050381,28.7169738 C116.816595,29.7039417 117.418334,30.6958207 118.401682,30.9443935 C118.547569,30.9794468 118.697129,30.9968955 118.847166,30.9963666 C119.698797,30.9940043 120.439563,30.4124112 120.643952,29.5856675 L124.42314,14.3649665 L128.246877,15.3153323 L122.217995,40.8044378 C120.757148,46.6399008 121.175481,52.7875808 123.413377,58.3713542 C123.942918,59.7131968 125.23771,60.5960089 126.680259,60.5987738 L126.687684,60.5839244 Z M125.826415,41.6954057 L133.050679,11.2540038 L133.614959,8.98203571 C134.180813,6.51577203 136.605299,4.94659974 139.086986,5.44043846 C140.27845,5.7130094 141.309869,6.45407865 141.948338,7.49630633 C142.586807,8.538534 142.778485,9.79402865 142.480089,10.9792887 L134.646996,43.9228253 C133.409062,48.908276 130.657032,53.3877829 126.769356,56.7453378 C124.906245,51.9469172 124.576805,46.6888512 125.826415,41.6954057 L125.826415,41.6954057 Z" id="Shape"></path>
                </g>
            </g>
        </g>
    </g>
</svg>