<svg xmlns="http://www.w3.org/2000/svg" xmlns:xlink="http://www.w3.org/1999/xlink" viewBox="0 0 883.61 290.76"><defs><style>.cls-1,.cls-2,.cls-3{fill:none;}.cls-2{clip-path:url(#clip-path);}.cls-2,.cls-3{clip-rule:evenodd;}.cls-3{clip-path:url(#clip-path-2);}.cls-4{clip-path:url(#clip-path-9);}.cls-5{fill:#fff;}.cls-6{clip-path:url(#clip-path-10);}.cls-7{clip-path:url(#clip-path-11);}.cls-8{clip-path:url(#clip-path-12);}.cls-9{clip-path:url(#clip-path-13);}.cls-10{clip-path:url(#clip-path-14);}.cls-11{clip-path:url(#clip-path-15);}.cls-12{clip-path:url(#clip-path-16);}.cls-13{clip-path:url(#clip-path-17);}.cls-14{clip-path:url(#clip-path-18);}</style><clipPath id="clip-path"><rect class="cls-1" x="206.97" y="10.34" width="702.96" height="270.89"/></clipPath><clipPath id="clip-path-2"><rect class="cls-1" x="0.16" y="76.52" width="1102.31" height="424.78"/></clipPath><clipPath id="clip-path-9" transform="translate(-196.42)"><path class="cls-2" d="M433.79,123.24c-18.52-17.57-20.15-33.84-20-40,0-.67,0-1.35.11-2-12,8.61-24.82,23-24.82,55.65a64.38,64.38,0,0,1-13.64,39.54c0,1,.05,2,.05,3a87.6,87.6,0,0,1-5.61,31,55,55,0,0,0,79.36-49.12,54.37,54.37,0,0,0-15.46-38.07"/></clipPath><clipPath id="clip-path-10" transform="translate(-196.42)"><path class="cls-2" d="M207.61,179.44a78.36,78.36,0,0,0,3.52,23.33,94.62,94.62,0,0,1,61.41-22.54,95.91,95.91,0,0,1,21.26,2.38,94.78,94.78,0,0,1,58.5,41.14A78.41,78.41,0,0,0,366,179.44c0-1.46,0-2.92-.13-4.36a79.05,79.05,0,0,0-79.05-74.53c-1.8,0-3.58.07-5.34.18a79.17,79.17,0,0,0-73.83,78.71"/></clipPath><clipPath id="clip-path-11" transform="translate(-196.42)"><path class="cls-2" d="M411.08,223.37a66.7,66.7,0,0,1-45-4.24,88.26,88.26,0,0,1-8.6,13.74,94.47,94.47,0,0,1,9.73,41.67c0,1.68,0,3.35-.14,5a521.7,521.7,0,0,1,44-56.19"/></clipPath><clipPath id="clip-path-12" transform="translate(-196.42)"><path class="cls-2" d="M482.06,85c-.35-3-2.37-15.6-12.61-22.22a30.29,30.29,0,0,0,1.83-6.93,31.25,31.25,0,0,0,.63-5.59,19.75,19.75,0,0,0-3.33-11.78c-1.29-2.55-5.25-6.39-11.79-3.93a4.65,4.65,0,0,1-.69.19c-.5-.47-.94-2.84-1.21-4.26-.55-3-1.18-6.42-3.41-8.64A4.15,4.15,0,0,0,448,20.46c-2.41.28-3.84,2.59-5.5,5.24-2.83,4.57-4.06,5.61-5.76,4.79-2.83-1.37-2.86-5.78-2.62-11,.16-3.27.27-5.63-1.13-7.09a3.26,3.26,0,0,0-2.38-1c-3.17,0-4.83,4-7.33,10.15-1,2.43-2.56,6.25-3.67,7.74a67.32,67.32,0,0,1-4.29-5.53c-5.16-7.13-10.52-14.51-15.94-12.16a4.49,4.49,0,0,0-2.61,2.72c-.83,2.57.8,5.31,2.86,8.79s4.82,8.13,3.93,11.86a4,4,0,0,1-.27.81c-.91.2-4.17-1.57-6.32-2.76-5.41-3-12.12-6.75-18.88-4.62-2.25.7-4.59,1.73-4.88,4-.32,2.59,2.09,4.08,5.16,6,4.3,2.63,7.82,5.08,7.24,8.36,0,.19-.08.4-.14.62-1.24,3.93-3.23,4.92-5.54,6.07a13.74,13.74,0,0,0-4,2.61c-2.06,2.11-2.94,5.2-2.76,9.75.2,5,3.87,9.35,9.8,11.77,7,2.86,17.45,2.66,24.81-4.25a50.94,50.94,0,0,1,9.25-6.88l.16-.09a42.13,42.13,0,0,1,11.44-4.46l.13,0a43.68,43.68,0,0,1,11.62-1c-5.13,2.2-10.85,5.74-14,11.24-6.47,11.13-4.12,27.23,5.33,36.64a2.42,2.42,0,0,0,2.37.61,2.42,2.42,0,0,0,1.7-1.75c0-.09,2.09-8.17,12.86-18.06,0,0,2.05-2.19,4.78-5.24a52.81,52.81,0,0,1-4.9,10c-2.74,4.73-5.84,10.09-7.73,17.4a16.84,16.84,0,0,0-.45,2.35,12.46,12.46,0,0,0,2.9,10.09,13.52,13.52,0,0,0,10.15,4.32,14.79,14.79,0,0,0,14.21-10.74c1.84-5.86,1.63-12.72-.62-20.36-1.35-4.55-3.92-11-5.73-15.46,8.09,2.65,15.79,5.23,17.14,5.82a2.45,2.45,0,0,0,1.33.39h.08a2.41,2.41,0,0,0,2.33-2.4,3.39,3.39,0,0,0-.06-.79"/></clipPath><clipPath id="clip-path-13" transform="translate(-196.42)"><rect class="cls-1" x="467.71" y="158.03" width="212.7" height="50.08"/></clipPath><clipPath id="clip-path-14" transform="translate(-196.42)"><rect class="cls-1" x="471.76" y="173.44" width="8.86" height="32.53"/></clipPath><clipPath id="clip-path-15" transform="translate(-196.42)"><path class="cls-3" d="M476.28,160.76a5.49,5.49,0,1,0,5.47,5.5,5.48,5.48,0,0,0-5.47-5.5"/></clipPath><clipPath id="clip-path-16" transform="translate(-196.42)"><path class="cls-3" d="M531.1,173.8s-8-2.26-13,4.56v-17h-9l0,38h-7.72s-3.28-.15-3.35-4.07v-15.1h7.81v-6.78H498v-12.1l-8.81,2.32v9.78h-5.45v6.78h5.45s-.2,15.29.08,17.71c0,0,.29,4.74,3.27,7,0,0,1.55,1.16,7.43,1.17h18V189.41c.4-2.92,1.94-8.25,7.75-8.64,0,0,3.18.22,3.18,5L529,206h8.75l0-22.8s.37-7.55-6.65-9.44"/></clipPath><clipPath id="clip-path-17" transform="translate(-196.42)"><path class="cls-3" d="M556.24,179.12c6.11.29,5.17,6.47,5.17,6.47H549.83c.88-6.94,6.41-6.46,6.41-6.46m55.66-5.62a11.57,11.57,0,0,0-11.34,6.19s-1.25-5.71-8.1-6.2c0,0-7.81-.78-11.05,5.56v-5h-8.35l0,25.31H557.27s-7.47.09-7.45-7.77l20,0s1.28-7.23-1.27-11.93c0,0-3.18-8.38-15.77-6.45,0,0-9.89,1.59-11.54,13.5,0,0-2.86,16.84,11.52,19.13,0,0,2.89.34,4,.34l25.14,0v-16c0-2.83,2.19-9.29,7-9.35,0,0,3.62-.67,3.71,4.74l0,20.62h8.68s0-11.93,0-16.15c.05-3.47,2.09-8.75,6.57-9.25,0,0,4-.48,4.15,4.26l0,21.15h8.83l0-22.75s.49-9.34-8.87-9.93"/></clipPath><clipPath id="clip-path-18" transform="translate(-196.42)"><path class="cls-3" d="M639,179.18c6.12.29,5.17,6.47,5.17,6.47H632.61c.87-6.94,6.41-6.46,6.41-6.46m33.32,8.35s-4.19-1.89-4.63-2-3.37-1.26-2.94-3.49c0,0-.38-4.6,10.42-1.68v-7s-10.47-2.33-16.6,2.94a9.67,9.67,0,0,0-2.95,7.55,8.07,8.07,0,0,0,4.38,7s.48.53,4.53,1.94c0,0,4.24,1.26,3.81,3.58,0,0,.19,2.81-4.39,3H640.06s-7.47.09-7.45-7.77l20,0s1.28-7.23-1.27-11.93c0,0-3.18-8.38-15.77-6.45,0,0-9.89,1.59-11.54,13.5,0,0-2.86,16.84,11.52,19.13,0,0,2.9.34,4,.34h15.69s0,0,0-.05h7.9s12.4.74,14.43-8.6a8.84,8.84,0,0,0-5.15-10"/></clipPath></defs><title>isa-logo-white</title><g id="Layer_2" data-name="Layer 2"><g id="Layer_2-2" data-name="Layer 2"><g class="cls-4"><rect class="cls-5" x="162.28" y="70.02" width="101.74" height="157.27"/></g><g class="cls-6"><rect class="cls-5" y="89.35" width="180.74" height="145.6"/></g><g class="cls-7"><rect class="cls-5" x="149.85" y="207.94" width="76.01" height="82.82"/></g><g class="cls-8"><rect class="cls-5" x="165.57" width="131.32" height="139.7"/></g><path class="cls-5" d="M483.47,278.52a27.17,27.17,0,0,1-8.17-5.7,2.3,2.3,0,0,1-.91-1.82,2.38,2.38,0,0,1,.72-1.67,2.2,2.2,0,0,1,1.63-.76,2.33,2.33,0,0,1,1.67.76,19.16,19.16,0,0,0,14.81,6.53,15.2,15.2,0,0,0,9.08-2.58,8,8,0,0,0,3.61-6.76,8.26,8.26,0,0,0-1.78-5.43,13.34,13.34,0,0,0-4.67-3.53,62.14,62.14,0,0,0-7.37-2.81,44.88,44.88,0,0,1-8.17-3.19,15,15,0,0,1-5.36-4.67,12.59,12.59,0,0,1-2.05-7.41,12.2,12.2,0,0,1,2.16-7.14,14.55,14.55,0,0,1,6.08-4.9,21.48,21.48,0,0,1,9-1.78,24.13,24.13,0,0,1,8.7,1.56,15.58,15.58,0,0,1,6.49,4.44,3.67,3.67,0,0,1,1.14,2.2,2.13,2.13,0,0,1-.76,1.56,2.37,2.37,0,0,1-1.67.72,1.75,1.75,0,0,1-1.29-.53,15,15,0,0,0-5.47-3.95,17.4,17.4,0,0,0-7.14-1.52,15.32,15.32,0,0,0-9,2.47,8.36,8.36,0,0,0-.15,13.48,35.6,35.6,0,0,0,9.57,4.33,57.92,57.92,0,0,1,8.81,3.27,14.5,14.5,0,0,1,5.58,4.75,13.77,13.77,0,0,1,2.17,8.09,11.85,11.85,0,0,1-2.24,7,15.17,15.17,0,0,1-6.23,5,21.6,21.6,0,0,1-9.08,1.82A24.2,24.2,0,0,1,483.47,278.52Z" transform="translate(-196.42)"/><path class="cls-5" d="M553.51,241.45a2.35,2.35,0,0,1,.65,1.67V277.3a2.28,2.28,0,1,1-4.56,0v-5.09a15.93,15.93,0,0,1-5.7,5.77,15.42,15.42,0,0,1-8.28,2.35,16.35,16.35,0,0,1-9.15-2.66,18.27,18.27,0,0,1-6.38-7.29A22.94,22.94,0,0,1,517.77,260a22.42,22.42,0,0,1,2.35-10.37,18.05,18.05,0,0,1,6.42-7.18,17,17,0,0,1,17.36-.38,14.53,14.53,0,0,1,5.7,5.77v-4.71a2.34,2.34,0,0,1,.65-1.67,2.29,2.29,0,0,1,3.27,0ZM543.18,274a14.16,14.16,0,0,0,4.94-5.77A18.66,18.66,0,0,0,549.9,260a18.08,18.08,0,0,0-1.78-8.05,14.23,14.23,0,0,0-4.94-5.73,12.58,12.58,0,0,0-7.1-2.09,12.74,12.74,0,0,0-7.1,2.05,14,14,0,0,0-4.94,5.66,18.16,18.16,0,0,0-1.78,8.17,19,19,0,0,0,1.75,8.24,13.87,13.87,0,0,0,4.9,5.77,13.25,13.25,0,0,0,14.28,0Z" transform="translate(-196.42)"/><path class="cls-5" d="M570.44,278.94a2.28,2.28,0,0,1-3.91-1.63V225.65a2.28,2.28,0,1,1,4.56,0V277.3A2.22,2.22,0,0,1,570.44,278.94Z" transform="translate(-196.42)"/><path class="cls-5" d="M614.92,259.49a2.25,2.25,0,0,1-1.6.65H584.61a17.54,17.54,0,0,0,1.86,8.17,14.05,14.05,0,0,0,5.32,5.7,15.48,15.48,0,0,0,8.17,2.09,13.81,13.81,0,0,0,6.53-1.52,13.46,13.46,0,0,0,4.63-3.87,2.57,2.57,0,0,1,1.59-.68,2.08,2.08,0,0,1,2,2,2.25,2.25,0,0,1-.76,1.59,19.12,19.12,0,0,1-6.12,4.86,16.77,16.77,0,0,1-7.79,1.9,20.8,20.8,0,0,1-10.33-2.51,17.76,17.76,0,0,1-7-7,21.17,21.17,0,0,1-2.51-10.44,23,23,0,0,1,2.47-10.9,17.8,17.8,0,0,1,6.57-7.14,16.66,16.66,0,0,1,8.74-2.47,17.9,17.9,0,0,1,8.55,2.13,16.82,16.82,0,0,1,6.49,6.23,18.78,18.78,0,0,1,2.58,9.72A2.06,2.06,0,0,1,614.92,259.49Zm-25.1-12.19A14.07,14.07,0,0,0,585,256h25.9v-.61a12,12,0,0,0-2.28-6,12.38,12.38,0,0,0-4.75-3.87,13.78,13.78,0,0,0-5.89-1.33A12.73,12.73,0,0,0,589.82,247.3Z" transform="translate(-196.42)"/><path class="cls-5" d="M622.21,271.76a2.49,2.49,0,0,1,2.2-2,2.33,2.33,0,0,1,1.67.76A14.21,14.21,0,0,0,638,276.47a11.59,11.59,0,0,0,6.34-1.71,5.53,5.53,0,0,0,2.7-5,5.3,5.3,0,0,0-2.51-4.79,24.46,24.46,0,0,0-7-2.73,29.58,29.58,0,0,1-9.87-4.14,8.6,8.6,0,0,1-3.57-7.48,9.43,9.43,0,0,1,1.75-5.58,11.53,11.53,0,0,1,4.75-3.84,16.21,16.21,0,0,1,6.8-1.37,18.43,18.43,0,0,1,6.57,1.25,13.86,13.86,0,0,1,5.66,4,1.81,1.81,0,0,1,.68,1.52,2.09,2.09,0,0,1-.76,1.6,2,2,0,0,1-1.37.46,1.89,1.89,0,0,1-1.37-.61,12,12,0,0,0-4.33-3.11,13.66,13.66,0,0,0-5.39-1.06,10.89,10.89,0,0,0-6.11,1.67,5.6,5.6,0,0,0-2.54,5,5.46,5.46,0,0,0,2.77,4.63,29.08,29.08,0,0,0,7.71,2.89,36.32,36.32,0,0,1,6.53,2.2,11,11,0,0,1,4.22,3.42,9.59,9.59,0,0,1,1.63,5.85,9.29,9.29,0,0,1-4,7.86,16,16,0,0,1-9.8,2.92,17.81,17.81,0,0,1-14.74-6.91A3.37,3.37,0,0,1,622.21,271.76Z" transform="translate(-196.42)"/><path class="cls-5" d="M702.43,275.48a4.3,4.3,0,0,1-1.29,3.23,4.14,4.14,0,0,1-3,1.25,4,4,0,0,1-2.47-.84,5.43,5.43,0,0,1-1.71-2.28l-4-9.19H667.41l-4,9.27a4.67,4.67,0,0,1-1.63,2.24,3.87,3.87,0,0,1-6.42-3.15,5,5,0,0,1,.23-1.44l18.91-45.42a5,5,0,0,1,1.82-2.35,4,4,0,0,1,2.74-.68,4.45,4.45,0,0,1,2.54.8,4.5,4.5,0,0,1,1.71,2.24L702,273.66A5.14,5.14,0,0,1,702.43,275.48Zm-31.3-16.56h15.19l-7.67-17.77Z" transform="translate(-196.42)"/><path class="cls-5" d="M736.23,241.2q3.95,2,4,5.36a4.59,4.59,0,0,1-1,2.92,3.13,3.13,0,0,1-2.58,1.25,4.85,4.85,0,0,1-2-.34,7.05,7.05,0,0,1-1.48-.91,10.73,10.73,0,0,0-1.41-.95,9.54,9.54,0,0,0-2.24-.68,12.58,12.58,0,0,0-2.39-.3q-5.7,0-8.93,3.53a14.52,14.52,0,0,0,0,18.31,10.77,10.77,0,0,0,8.36,3.61,12.93,12.93,0,0,0,5.54-.91,10.27,10.27,0,0,0,1.25-.8,8.66,8.66,0,0,1,1.48-.87,4.12,4.12,0,0,1,1.67-.3,3.85,3.85,0,0,1,3,1.22,4.47,4.47,0,0,1,1.1,3.11,4.4,4.4,0,0,1-2.13,3.42,16.58,16.58,0,0,1-5.62,2.54,28.29,28.29,0,0,1-7.44.95,19.24,19.24,0,0,1-10.29-2.73,18.38,18.38,0,0,1-6.87-7.56,23.53,23.53,0,0,1-2.43-10.75,22.93,22.93,0,0,1,2.54-10.94,18.73,18.73,0,0,1,7.1-7.48,19.91,19.91,0,0,1,10.33-2.7A23,23,0,0,1,736.23,241.2Z" transform="translate(-196.42)"/><path class="cls-5" d="M775.35,241.2q3.95,2,4,5.36a4.59,4.59,0,0,1-1,2.92,3.13,3.13,0,0,1-2.58,1.25,4.85,4.85,0,0,1-2-.34,7.05,7.05,0,0,1-1.48-.91,10.73,10.73,0,0,0-1.41-.95,9.54,9.54,0,0,0-2.24-.68,12.58,12.58,0,0,0-2.39-.3q-5.7,0-8.93,3.53a14.52,14.52,0,0,0,0,18.31A10.77,10.77,0,0,0,765.7,273a12.93,12.93,0,0,0,5.54-.91,10.27,10.27,0,0,0,1.25-.8,8.66,8.66,0,0,1,1.48-.87,4.12,4.12,0,0,1,1.67-.3,3.85,3.85,0,0,1,3,1.22,4.47,4.47,0,0,1,1.1,3.11,4.4,4.4,0,0,1-2.13,3.42,16.58,16.58,0,0,1-5.62,2.54,28.29,28.29,0,0,1-7.44.95,19.24,19.24,0,0,1-10.29-2.73,18.38,18.38,0,0,1-6.87-7.56A23.53,23.53,0,0,1,745,260.3a22.93,22.93,0,0,1,2.54-10.94,18.73,18.73,0,0,1,7.1-7.48,19.91,19.91,0,0,1,10.33-2.7A23,23,0,0,1,775.35,241.2Z" transform="translate(-196.42)"/><path class="cls-5" d="M821.38,262.28a4.83,4.83,0,0,1-3.19,1.14H793.12a11.45,11.45,0,0,0,4.18,7,11.67,11.67,0,0,0,7.37,2.54,16.33,16.33,0,0,0,4.86-.57,12.68,12.68,0,0,0,2.77-1.22l1.4-.87a5.8,5.8,0,0,1,2.58-.68,3.73,3.73,0,0,1,2.73,1.14,3.65,3.65,0,0,1,1.14,2.66,4.74,4.74,0,0,1-2.13,3.72,18.14,18.14,0,0,1-5.7,3A23.55,23.55,0,0,1,794,278.68a18.55,18.55,0,0,1-7.33-7.33,21.36,21.36,0,0,1-2.58-10.52,23.3,23.3,0,0,1,2.73-11.47A19.42,19.42,0,0,1,794,241.8a18.65,18.65,0,0,1,9.57-2.62,17.75,17.75,0,0,1,9.46,2.73,20.46,20.46,0,0,1,7.1,7.37,19.81,19.81,0,0,1,2.66,10A3.9,3.9,0,0,1,821.38,262.28Zm-28.18-6.46h19.9v-.53a7.86,7.86,0,0,0-3.11-5.47,9.86,9.86,0,0,0-6.38-2.28Q794.79,247.54,793.2,255.82Z" transform="translate(-196.42)"/><path class="cls-5" d="M886.48,262.28a4.83,4.83,0,0,1-3.19,1.14H858.23a11.45,11.45,0,0,0,4.18,7,11.67,11.67,0,0,0,7.37,2.54,16.33,16.33,0,0,0,4.86-.57,12.68,12.68,0,0,0,2.77-1.22l1.4-.87a5.8,5.8,0,0,1,2.58-.68,3.73,3.73,0,0,1,2.73,1.14,3.65,3.65,0,0,1,1.14,2.66,4.74,4.74,0,0,1-2.13,3.72,18.14,18.14,0,0,1-5.7,3,23.55,23.55,0,0,1-18.34-1.44,18.55,18.55,0,0,1-7.33-7.33,21.36,21.36,0,0,1-2.58-10.52,23.3,23.3,0,0,1,2.73-11.47,19.42,19.42,0,0,1,7.22-7.56,18.65,18.65,0,0,1,9.57-2.62,17.75,17.75,0,0,1,9.46,2.73,20.46,20.46,0,0,1,7.1,7.37,19.81,19.81,0,0,1,2.66,10A3.9,3.9,0,0,1,886.48,262.28Zm-28.18-6.46h19.9v-.53a7.86,7.86,0,0,0-3.11-5.47,9.86,9.86,0,0,0-6.38-2.28Q859.9,247.54,858.3,255.82Z" transform="translate(-196.42)"/><path class="cls-5" d="M839,279.25a4.49,4.49,0,0,1-3.3,1.33,4.27,4.27,0,0,1-3.19-1.33,4.55,4.55,0,0,1-1.29-3.3V229a4.54,4.54,0,0,1,4.63-4.63A4.27,4.27,0,0,1,839,225.7a4.56,4.56,0,0,1,1.29,3.3v46.94A4.49,4.49,0,0,1,839,279.25Z" transform="translate(-196.42)"/><path class="cls-5" d="M921.76,240.47a3.85,3.85,0,0,1,1.56,3A4.71,4.71,0,0,1,922.1,247a4,4,0,0,1-2.89,1.18,7.57,7.57,0,0,1-2.58-.53l-1-.3a6.18,6.18,0,0,0-1.71-.23,6.75,6.75,0,0,0-3.8,1.22,8.86,8.86,0,0,0-3,3.68,13.54,13.54,0,0,0-1.18,5.89v18a4.55,4.55,0,0,1-1.29,3.3,4.68,4.68,0,0,1-6.53,0,4.55,4.55,0,0,1-1.29-3.3V244.58a4.56,4.56,0,0,1,1.29-3.3,4.68,4.68,0,0,1,6.53,0,4.56,4.56,0,0,1,1.29,3.3v1a11.51,11.51,0,0,1,5-4.75,15.41,15.41,0,0,1,7-1.63A5.81,5.81,0,0,1,921.76,240.47Z" transform="translate(-196.42)"/><path class="cls-5" d="M965,240.47a4.52,4.52,0,0,1,1.29,3.34v32.13a4.55,4.55,0,0,1-1.29,3.3,4.36,4.36,0,0,1-3.27,1.33,4.3,4.3,0,0,1-3.23-1.29,4.76,4.76,0,0,1-1.33-3.27,16.47,16.47,0,0,1-11.93,5.32,17.36,17.36,0,0,1-9.5-2.7,18.89,18.89,0,0,1-6.72-7.48,23.33,23.33,0,0,1-2.47-10.86A23.89,23.89,0,0,1,929,249.4a18.68,18.68,0,0,1,6.65-7.52,16.93,16.93,0,0,1,9.31-2.7,17.6,17.6,0,0,1,6.84,1.33,18,18,0,0,1,5.39,3.38v-.08a4.55,4.55,0,0,1,1.29-3.3,4.36,4.36,0,0,1,3.27-1.33A4.43,4.43,0,0,1,965,240.47Zm-10.56,28.9a13.39,13.39,0,0,0,3.12-9.08,13.54,13.54,0,0,0-3.12-9.12,10.63,10.63,0,0,0-16,0,14.91,14.91,0,0,0,0,18.19,10,10,0,0,0,8,3.61A10.14,10.14,0,0,0,954.46,269.38Z" transform="translate(-196.42)"/><path class="cls-5" d="M997.72,273a4.06,4.06,0,0,1-1.37,6.15,9.31,9.31,0,0,1-5.05,1.4,14.72,14.72,0,0,1-7.94-2q-3.23-2-3.23-8.55v-21h-3.49a4.15,4.15,0,0,1-4.25-4.25,3.91,3.91,0,0,1,1.22-2.92,4.2,4.2,0,0,1,3-1.18h3.49v-4.86a4.54,4.54,0,0,1,4.63-4.63,4.28,4.28,0,0,1,3.19,1.33,4.56,4.56,0,0,1,1.29,3.3v4.86h5.39A4.15,4.15,0,0,1,998.9,245a3.91,3.91,0,0,1-1.22,2.92,4.19,4.19,0,0,1-3,1.18h-5.39v20.58a2.91,2.91,0,0,0,.84,2.32,3.37,3.37,0,0,0,2.28.72,6.52,6.52,0,0,0,1.67-.3,4.54,4.54,0,0,1,1.75-.38A2.53,2.53,0,0,1,997.72,273Z" transform="translate(-196.42)"/><path class="cls-5" d="M1043.18,271.2a19.32,19.32,0,0,1-7.48,7.48,21.92,21.92,0,0,1-20.93,0,19.38,19.38,0,0,1-7.44-7.48,23.09,23.09,0,0,1,0-21.8,19.67,19.67,0,0,1,7.44-7.52,21.65,21.65,0,0,1,20.93,0,19.6,19.6,0,0,1,7.48,7.52,23.09,23.09,0,0,1,0,21.8Zm-7.94-17.55a11.47,11.47,0,0,0-4.18-4.52,11.38,11.38,0,0,0-11.62,0,11.45,11.45,0,0,0-4.18,4.52,13.92,13.92,0,0,0-1.56,6.65,13.69,13.69,0,0,0,1.56,6.61,11.51,11.51,0,0,0,4.18,4.48,11.38,11.38,0,0,0,11.62,0,11.52,11.52,0,0,0,4.18-4.48,13.71,13.71,0,0,0,1.56-6.61A13.94,13.94,0,0,0,1035.24,253.65Z" transform="translate(-196.42)"/><path class="cls-5" d="M1078.47,240.47a3.85,3.85,0,0,1,1.56,3,4.71,4.71,0,0,1-1.22,3.53,4,4,0,0,1-2.89,1.18,7.57,7.57,0,0,1-2.58-.53l-1-.3a6.18,6.18,0,0,0-1.71-.23,6.75,6.75,0,0,0-3.8,1.22,8.86,8.86,0,0,0-3,3.68,13.54,13.54,0,0,0-1.18,5.89v18a4.55,4.55,0,0,1-1.29,3.3,4.68,4.68,0,0,1-6.53,0,4.55,4.55,0,0,1-1.29-3.3V244.58a4.56,4.56,0,0,1,1.29-3.3,4.68,4.68,0,0,1,6.53,0,4.56,4.56,0,0,1,1.29,3.3v1a11.51,11.51,0,0,1,5-4.75,15.41,15.41,0,0,1,7-1.63A5.81,5.81,0,0,1,1078.47,240.47Z" transform="translate(-196.42)"/><g class="cls-9"><g class="cls-10"><rect class="cls-5" x="257.79" y="155.89" width="43.97" height="67.63"/></g><g class="cls-11"><rect class="cls-5" x="256.83" y="143.21" width="46.06" height="46.09"/></g><g class="cls-12"><rect class="cls-5" x="269.79" y="143.82" width="89.09" height="79.83"/></g><g class="cls-13"><rect class="cls-5" x="327.02" y="155.34" width="114.89" height="68.36"/></g><g class="cls-14"><rect class="cls-5" x="409.8" y="155.32" width="89.02" height="68.43"/></g></g></g></g></svg>