<?xml version="1.0" encoding="UTF-8"?>
<svg width="17px" height="18px" viewBox="0 0 17 18" version="1.1" xmlns="http://www.w3.org/2000/svg" xmlns:xlink="http://www.w3.org/1999/xlink">
    <!-- Generator: Sketch 46 (44423) - http://www.bohemiancoding.com/sketch -->
    <title>Group 2</title>
    <desc>Created with Sketch.</desc>
    <defs></defs>
    <g id="Page-1" stroke="none" stroke-width="1" fill="none" fill-rule="evenodd">
        <g id="Group-2" fill="#FFFFFF">
            <g id="Group">
                <path d="M5.78016,10.3788 C5.7816,10.278 5.78736,10.17792 5.796,10.08 C4.0176,11.358 2.57484375,11.9868272 2.57484375,16.8338672 C5.73075064,16.8338672 7.96974098,16.7174216 8.74008,16.32456 C5.99904,13.71456 5.7564,11.29608 5.78016,10.3788 Z" id="Fill-25" transform="translate(5.727840, 13.788838) rotate(4.000000) translate(-5.727840, -13.788838) "></path>
                <path d="M14.2514602,7.65713963 C14.3781802,7.33457963 14.4725002,6.99041963 14.5229002,6.62825963 C14.5805002,6.33953963 14.6114602,6.06017963 14.6157802,5.79737963 C14.6237002,5.11985963 14.4581002,4.53161963 14.1218602,4.04777963 C13.9310602,3.66833963 13.3457002,3.09809963 12.3765802,3.46385963 C12.3110602,3.48905963 12.2786602,3.48977963 12.2786602,3.48977963 C12.2009002,3.42353963 12.1361002,3.07073963 12.0972202,2.85905963 C12.0151402,2.41121963 11.9229802,1.90505963 11.5925002,1.57529963 C11.4024202,1.38521963 11.2109002,1.36505963 11.0820202,1.37801963 C10.7241802,1.41905963 10.5139402,1.76177963 10.2677002,2.15705963 C9.84866018,2.83529963 9.66722018,2.98937963 9.41522018,2.86841963 C8.99618018,2.66537963 8.99042018,2.00945963 9.02714018,1.23833963 C9.04946018,0.75233963 9.06674018,0.40169963 8.86010018,0.18569963 C8.76866018,0.0892196296 8.64194018,0.0366596296 8.50658018,0.0366596296 C8.03858018,0.0366596296 7.79234018,0.63569963 7.42154018,1.54433963 C7.27394018,1.90505963 7.04138018,2.47313963 6.87866018,2.69417963 C6.71522018,2.52353963 6.45818018,2.16857963 6.24290018,1.87265963 C5.47754018,0.81281963 4.68482018,-0.28302037 3.88346018,0.0661796296 C3.63866018,0.17345963 3.53858018,0.34481963 3.49610018,0.47081963 C3.37370018,0.85241963 3.61418018,1.25921963 3.91946018,1.77617963 C4.23914018,2.31329963 4.63370018,2.98361963 4.50194018,3.53801963 C4.48250018,3.62585963 4.45946018,3.65681963 4.45946018,3.65681963 C4.32626018,3.68921963 3.84386018,3.42569963 3.52562018,3.24857963 C2.72570018,2.80361963 1.73138018,2.24633963 0.73058018,2.56169963 C0.39722018,2.66609963 0.0509001798,2.81801963 0.00770017979,3.16001963 C-0.0405398202,3.54449963 0.31658018,3.76553963 0.77090018,4.04417963 C1.40810018,4.43585963 1.92866018,4.79873963 1.84298018,5.28617963 C1.83722018,5.31425963 1.83146018,5.34593963 1.82138018,5.37761963 C1.63850018,5.96081963 1.34330018,6.10841963 1.00202018,6.27905963 C0.80042018,6.37841963 0.59378018,6.48209963 0.41234018,6.66713963 C0.10706018,6.98033963 -0.0232598202,7.43969963 0.00338017979,8.11577963 C0.0329001798,8.85161963 0.57578018,9.50537963 1.45418018,9.86393963 C2.49818018,10.2887396 4.03754018,10.2584996 5.12762018,9.23321963 C5.55674018,8.83217963 6.01106018,8.49233963 6.49562018,8.21081963 C7.05434018,7.89329963 7.62530018,7.67009963 8.21426018,7.53545963 C8.77658018,7.40801963 9.35906018,7.35689963 9.95378018,7.38425963 C9.19418018,7.71113963 8.34818018,8.23745963 7.87370018,9.05465963 C6.91610018,10.7077796 7.26386018,13.0988996 8.66282018,14.4971396 C8.73050018,14.5655396 8.82194018,14.6015396 8.91482018,14.6015396 C8.94866018,14.6015396 8.98106018,14.5972196 9.01346018,14.5878596 C9.13802018,14.5525796 9.23378018,14.4524996 9.26474018,14.3272196 C9.26762018,14.3142596 9.57434018,13.1140196 11.1691402,11.6444996 C11.1734602,11.6394596 11.4729802,11.3197796 11.8761802,10.8661796 C11.7120202,11.3773796 11.4441802,11.8432196 11.1504202,12.3544196 C10.7457802,13.0571396 10.2871402,13.8548996 10.0056202,14.9392196 C9.97466018,15.0601796 9.95234018,15.1768196 9.94010018,15.2884196 C9.86954018,15.8723396 10.0171402,16.3914596 10.3685002,16.7881796 C10.7313802,17.1956996 11.2785802,17.4296996 11.8704202,17.4296996 C12.8453002,17.4296996 13.6718602,16.8040196 13.9742602,15.8341796 C14.2471402,14.9629796 14.2161802,13.9448996 13.8813802,12.8087396 C13.6819402,12.1333796 13.3025002,11.1692996 13.0339402,10.5119396 C14.2320202,10.9050596 15.3710602,11.2888196 15.5719402,11.3766596 C15.6281002,11.4133796 15.6972202,11.4342596 15.7685002,11.4342596 C15.9737002,11.4277796 16.1256202,11.2700996 16.1256202,11.0771396 C16.1256202,11.0332196 16.1256202,10.9943396 16.1177002,10.9590596 C16.0651402,10.5162596 15.7656202,8.64209963 14.2514602,7.65713963 Z" id="Fill-28"></path>
            </g>
        </g>
    </g>
</svg>