<?xml version="1.0" encoding="UTF-8"?>
<svg width="67px" height="69px" viewBox="0 0 67 69" version="1.1" xmlns="http://www.w3.org/2000/svg" xmlns:xlink="http://www.w3.org/1999/xlink">
    <!-- Generator: Sketch 45.2 (43514) - http://www.bohemiancoding.com/sketch -->
    <title>Group 14</title>
    <desc>Created with Sketch.</desc>
    <defs>
        <polygon id="path-1" points="13.8604208 15.7433256 0.949959819 15.7433256 0.949959819 0.642206584 13.8604208 0.642206584 13.8604208 15.7433256"></polygon>
        <polygon id="path-3" points="0.0520181945 0.754468606 26.2776941 0.754468606 26.2776941 30.0707208 0.0520181945 30.0707208 0.0520181945 0.754468606"></polygon>
    </defs>
    <g id="Activation" stroke="none" stroke-width="1" fill="none" fill-rule="evenodd">
        <g transform="translate(-700.000000, -215.000000)" id="Welcome">
            <g transform="translate(274.000000, 170.000000)">
                <g id="Group-14" transform="translate(426.267857, 45.157778)">
                    <path d="M54.6445409,29.3291551 C50.186884,24.9391893 49.7922871,20.8725672 49.8309271,19.3285103 C49.8344399,19.1601778 49.8426362,18.9918453 49.8566872,18.8259349 C46.9645378,20.9767153 43.8803592,24.5795149 43.8803592,32.7333465 C43.8803592,36.3010263 42.715303,39.8045218 40.5971257,42.6128889 C40.6041511,42.8659931 40.6100057,43.1190974 40.6100057,43.3734126 C40.6100057,46.0437228 40.1556923,48.6474267 39.2599457,51.1167068 C41.0748572,52.044352 43.0981908,52.5323951 45.1285499,52.5323951 C52.4268361,52.5323951 58.3656949,46.391287 58.3656949,38.8429679 C58.3656949,35.271655 57.0437368,31.8928951 54.6445409,29.3291551" id="Fill-1" fill="#4DC2F0"></path>
                    <path d="M0,42.7249637 C0,44.720733 0.284531291,46.6813826 0.846568408,48.5548383 C4.95880665,44.9193411 10.1904355,42.9235719 15.6316573,42.9235719 C17.3575796,42.9235719 19.0811601,43.124602 20.7508787,43.5193962 C22.726205,43.9892739 24.6359603,44.7340543 26.4262827,45.7319389 C29.8500255,47.6417254 32.7492003,50.42345 34.8345922,53.7997878 C35.5113785,52.7704165 36.094492,51.6756499 36.5687108,50.5360753 C37.6002831,48.0655842 38.1236802,45.4376599 38.1236802,42.7249637 C38.1236802,42.3604452 38.1143129,41.9959267 38.0932365,41.6350412 C37.8555417,37.0973303 36.0827829,32.7509614 33.1039862,29.395211 C29.4999232,25.3370661 24.3818727,23.0094759 19.0612546,23.0094759 C18.6280177,23.0094759 18.1982935,23.0276413 17.7744238,23.0554949 C7.80646138,23.7421461 0,32.3828098 0,42.7249637" id="Fill-3" fill="#4DC2F0"></path>
                    <g id="Group-7" transform="translate(35.233285, 52.294263)">
                        <mask id="mask-2" fill="white">
                            <use xlink:href="#path-1"></use>
                        </mask>
                        <g id="Clip-6"></g>
                        <path d="M13.8604208,1.7018535 C10.3324669,2.67430662 6.30453427,2.28920065 3.02130078,0.642206584 C2.43467454,1.84959856 1.73798269,3.00249441 0.949959819,4.0754626 C2.48151096,7.29073411 3.29178114,10.8874785 3.29178114,14.489067 C3.29178114,14.9080817 3.28124294,15.3270963 3.25899564,15.743689 C6.18158865,11.2132442 9.81843716,6.39578659 13.8604208,1.7018535" id="Fill-5" fill="#4DC2F0" mask="url(#mask-2)"></path>
                    </g>
                    <g id="Group-10" transform="translate(40.266611, 0.000000)">
                        <mask id="mask-4" fill="white">
                            <use xlink:href="#path-3"></use>
                        </mask>
                        <g id="Clip-9"></g>
                        <path d="M26.2636432,19.1872387 C26.1793376,18.4424583 25.6922388,15.2901601 23.2286428,13.6334778 C23.4347231,13.0909386 23.5881124,12.5120686 23.6700761,11.902923 C23.763749,11.417302 23.8140981,10.9474242 23.8211236,10.5054001 C23.8340036,9.36582553 23.5646941,8.37641806 23.0190498,7.5613982 C22.7075875,6.92439903 21.7556372,5.96526719 20.1807623,6.58046791 C20.0730385,6.62285379 20.0203476,6.62406482 20.0203476,6.62406482 C19.8950601,6.51265051 19.7896782,5.91924824 19.7252781,5.56320687 C19.5929652,4.80994929 19.4419177,3.95859868 18.9044697,3.40394921 C18.5953493,3.0842386 18.285058,3.05032989 18.0742941,3.07091732 C17.4935224,3.14115677 17.1504455,3.7176047 16.7499941,4.38124642 C16.0685241,5.52324305 15.7734546,5.78240241 15.3636359,5.5789502 C14.6821659,5.23623011 14.6739695,4.13419731 14.732515,2.83718949 C14.7699842,2.01974758 14.7969151,1.42997838 14.4608638,1.06667086 C14.3121581,0.904393507 14.1060778,0.815988678 13.8871175,0.815988678 C13.1248547,0.815988678 12.7244032,1.82356152 12.1213843,3.35187513 C11.8813476,3.95859868 11.5043143,4.91409745 11.2385176,5.28588214 C10.9727209,4.9988692 10.5547058,4.40183385 10.2046035,3.90410255 C8.96109638,2.12147368 7.67075283,0.278293556 6.36752926,0.865640705 C5.96941964,1.04608344 5.80666306,1.3343074 5.73875024,1.54623678 C5.53852452,2.18808006 5.93077959,2.87230921 6.42724571,3.7418252 C6.94595913,4.64524988 7.58761817,5.77271421 7.37334152,6.70520349 C7.34172693,6.85173752 7.3054287,6.9038116 7.3054287,6.9038116 C7.08763932,6.95951875 6.30312918,6.51628359 5.78675758,6.21837142 C4.48470492,5.46995794 2.86884821,4.53141353 1.24011148,5.06305353 C0.697979845,5.23744113 0.135942728,5.49417844 0.0645171774,6.06941534 C-0.0127629262,6.71610272 0.568008762,7.08788741 1.30685339,7.5565541 C2.34193841,8.21414071 3.18850682,8.82570836 3.04916845,9.64557231 C3.03980117,9.69280229 3.03043388,9.74608739 3.01521204,9.7993725 C2.71780073,10.7803028 2.23655645,11.0285629 1.6815448,11.3155759 C1.35486073,11.4826973 1.01763846,11.6570849 0.723739879,11.9683184 C0.227273759,12.4951143 0.014168019,13.2677482 0.0574917134,14.4049008 C0.105499051,15.6425684 0.988365689,16.7409681 2.41804761,17.3452696 C4.11469715,18.0597744 6.61927506,18.0089113 8.39086289,16.2844116 C9.08872564,15.6098707 9.82757027,15.0382669 10.6167641,14.5647561 C10.6296441,14.5574899 10.643695,14.5514348 10.6554041,14.5429576 C11.5242198,14.030694 12.452752,13.6552763 13.4105569,13.4288146 C13.4199242,13.4276035 13.4316333,13.4251815 13.4410006,13.4227594 C14.326209,13.2144631 15.2711339,13.1284804 16.239477,13.1744993 C15.0053372,13.7243047 13.6283463,14.609564 12.8567161,15.9828664 C11.3005759,18.7633799 11.8649548,22.7864051 14.1400342,25.1382158 C14.2500998,25.2532632 14.3988055,25.3138144 14.549853,25.3138144 C14.6048858,25.3138144 14.6575767,25.3065483 14.7102677,25.2908049 C14.9140062,25.2314647 15.0685664,25.0631322 15.1189155,24.8524139 C15.1235992,24.8306154 15.6224071,22.8118367 18.2159742,20.3401345 C18.2229997,20.3316574 18.7100985,19.7939622 19.3658085,19.0310164 C19.0988409,19.8908442 18.664433,20.6743774 18.1867015,21.5329942 C17.5274788,22.7161657 16.7816087,24.0567704 16.3249535,25.8817852 C16.2746044,26.0852374 16.2371352,26.2802124 16.2172297,26.4691323 C16.1024805,27.4512736 16.3425172,28.3244227 16.9150925,28.9916975 C17.5052315,29.6771377 18.3939527,30.0707208 19.3576121,30.0707208 C20.9418543,30.0707208 22.2872306,29.01834 22.7778422,27.3870893 C23.2216173,25.921749 23.1712682,24.2081485 22.6279656,22.298362 C22.3024524,21.1624205 21.6853825,19.540858 21.2486329,18.4351921 C23.1970282,19.0964118 25.0494089,19.7418882 25.3760929,19.8896332 C25.467424,19.9513955 25.5798314,19.9865152 25.6969225,19.9865152 L25.7168279,19.9865152 C26.0294611,19.974405 26.2776941,19.7104015 26.2776941,19.3858468 C26.2776941,19.3119743 26.2776941,19.2465789 26.2636432,19.1872387" id="Fill-8" fill="#4DC2F0" mask="url(#mask-4)"></path>
                    </g>
                </g>
            </g>
        </g>
    </g>
</svg>