<?xml version="1.0" encoding="UTF-8"?>
<svg width="19px" height="17px" viewBox="0 0 19 17" version="1.1" xmlns="http://www.w3.org/2000/svg" xmlns:xlink="http://www.w3.org/1999/xlink">
    <!-- Generator: Sketch 3.6.1 (26313) - http://www.bohemiancoding.com/sketch -->
    <title>noun_1032042_cc</title>
    <desc>Created with Sketch.</desc>
    <defs></defs>
    <g id="Page-1" stroke="none" stroke-width="1" fill="none" fill-rule="evenodd">
        <g id="noun_1032042_cc" fill="#C2CCD4">
            <path d="M3.80076907,7.12644201 L1.90038454,9.37523038 L0,7.12644201 L1.20357687,7.12644201 C1.77369223,3.10396141 5.28940363,0 9.50192268,0 C12.4158456,0 14.9813648,1.45696148 16.4699993,3.70574985 C16.8184031,4.21251906 16.4383262,4.87765364 15.8365378,4.87765364 C15.5831532,4.87765364 15.3297686,4.75096134 15.2030763,4.56092289 C13.9678263,2.7238845 11.8774034,1.52030763 9.50192268,1.52030763 C6.11290359,1.52030763 3.29399986,3.95913445 2.75555758,7.12644201 L3.80076907,7.12644201 L3.80076907,7.12644201 Z M19.0038454,9.3435573 L17.1034608,7.09476893 L15.2030763,9.3435573 L16.2482878,9.3435573 C15.7098455,12.5108649 12.8909418,14.9496917 9.50192268,14.9496917 C7.12644201,14.9496917 5.00434595,13.7461148 3.80076907,11.9090764 C3.67407677,11.6873649 3.42069217,11.5923457 3.16730756,11.5923457 L3.16730756,11.5923457 C2.56551912,11.5923457 2.18544222,12.2574803 2.53384605,12.7642495 C4.0224806,14.9813648 6.58799973,16.4699993 9.50192268,16.4699993 C13.7144417,16.4699993 17.2301531,13.3660379 17.8002685,9.3435573 L19.0038454,9.3435573 L19.0038454,9.3435573 Z" id="Shape"></path>
        </g>
    </g>
</svg>