<?xml version="1.0" encoding="UTF-8"?>
<svg width="19px" height="14px" viewBox="0 0 19 14" version="1.1" xmlns="http://www.w3.org/2000/svg" xmlns:xlink="http://www.w3.org/1999/xlink">
    <!-- Generator: Sketch 46 (44423) - http://www.bohemiancoding.com/sketch -->
    <title>noun_546702_cc</title>
    <desc>Created with Sketch.</desc>
    <defs></defs>
    <g id="Page-1" stroke="none" stroke-width="1" fill="none" fill-rule="evenodd">
        <g id="noun_546702_cc" fill-rule="nonzero" fill="#C2CCD4">
            <path d="M19,7.009 L14.6666667,12.015 L14.6666667,8 L6,8 L6,6 L14.6666667,6 L14.6666667,2 L19,7.009 Z M1.46666667,3 L1.46666667,11 C1.46666667,11.552 1.7952,12 2.2,12 L11,12 L11,14 L2.2,14 C0.984866667,14 0,12.657 0,11 L0,3 C0,1.343 0.984866667,0 2.2,0 L11,0 L11,2 L2.2,2 C1.7952,2 1.46666667,2.448 1.46666667,3 Z" id="Shape"></path>
        </g>
    </g>
</svg>