<?xml version="1.0" encoding="UTF-8"?>
<svg width="36px" height="32px" viewBox="0 0 36 32" version="1.1" xmlns="http://www.w3.org/2000/svg" xmlns:xlink="http://www.w3.org/1999/xlink">
    <!-- Generator: Sketch 46.1 (44463) - http://www.bohemiancoding.com/sketch -->
    <title>Shape</title>
    <desc>Created with Sketch.</desc>
    <defs></defs>
    <g id="Emails" stroke="none" stroke-width="1" fill="none" fill-rule="evenodd">
        <g id="Welcome-Email-A" transform="translate(-494.000000, -995.000000)" fill-rule="nonzero" fill="#4DC2F0">
            <g id="Marketing" transform="translate(222.000000, 945.000000)">
                <g id="Group" transform="translate(137.000000, 50.000000)">
                    <path d="M166.480068,1.70625797 C166.195933,0.514077249 165.024277,-0.220940143 163.855426,0.0597354383 L151.730838,2.96201593 C151.231594,3.08249424 150.922447,3.59375955 151.040338,4.10395898 C151.158229,4.6141584 151.658516,4.93008979 152.15776,4.80961149 L164.282348,1.89215567 C164.367042,1.87172046 164.456215,1.88666294 164.530089,1.93366917 C164.603963,1.98067541 164.656431,2.05586 164.675859,2.1425485 L169.130698,21.5441988 C169.150694,21.630752 169.136073,21.7218814 169.090076,21.7973762 C169.044079,21.8728711 168.970509,21.9264913 168.885682,21.9463448 L145.805902,27.5043068 C145.350125,27.6168589 145.048091,28.0591509 145.101945,28.5351639 C145.155799,29.0111768 145.548623,29.3713672 146.017507,29.3746653 C146.09004,29.3743057 146.16229,29.3653945 146.232824,29.3481085 L148.83148,28.7221265 C148.867683,28.7384791 148.904885,28.752419 148.942851,28.7638586 L160.484597,31.9279134 C160.666445,31.9761247 160.853585,32.0003491 161.041452,31.9999962 C162.033486,31.9968242 162.899124,31.311545 163.150076,30.3307107 L164.512514,24.9510587 L169.316316,23.8129095 C170.488923,23.5294195 171.216102,22.3298824 170.942333,21.1306712 L166.480068,1.70625797 Z M161.353291,29.852688 C161.331753,29.939202 161.276842,30.0131107 161.201084,30.0575549 C161.128888,30.1027758 161.041938,30.1164464 160.95978,30.0954932 L152.632943,27.8116071 L162.478138,25.4404629 L161.353291,29.852688 Z M157.85253,13.3381429 C158.08482,13.4916085 158.355522,13.5732839 158.632127,13.5733604 C158.736971,13.5734627 158.841522,13.5620151 158.943965,13.539216 L162.656331,12.708367 C163.439164,12.535999 163.937515,11.7483028 163.770041,10.9480296 C163.472434,9.55605858 162.645552,8.34209349 161.471548,7.57355994 C160.297544,6.80502639 158.872735,6.54497487 157.510992,6.85069241 L157.510992,6.85069241 C156.728159,7.02306044 156.229809,7.81075668 156.397282,8.61102986 L157.21029,12.4048606 C157.292497,12.7917161 157.524086,13.1282537 157.85253,13.3381429 Z M160.451186,9.16492915 C161.091009,9.58080741 161.574932,10.205001 161.824761,10.9366481 L158.943965,11.5929808 L158.309151,8.63758668 C159.064524,8.56028762 159.823292,8.74612071 160.462323,9.16492915 L160.451186,9.16492915 Z M155.135078,10.6217601 C154.849024,10.4473334 154.505401,10.4006945 154.184712,10.4927699 C151.402016,11.3108736 149.633565,14.098087 150.038088,17.0281663 C150.442611,19.9582456 152.896608,22.1366481 155.792167,22.1360363 C156.112849,22.139703 156.433259,22.1155891 156.749957,22.0639536 C159.876339,21.5066507 161.993849,18.4983183 161.516635,15.2919657 C161.461162,14.9603299 161.276263,14.6659415 161.004329,14.4762921 C160.725502,14.2813234 160.380266,14.2126829 160.05025,14.2866006 L156.486379,15.0833051 L155.70307,11.4412276 C155.633506,11.0992291 155.427695,10.8022955 155.135078,10.6217601 L155.135078,10.6217601 Z M156.319323,17.0523032 L159.727275,16.2935371 C159.688974,18.2803476 158.242654,19.943737 156.316495,20.2162195 C154.390337,20.488702 152.55625,19.2893729 151.991266,17.3879056 C151.426281,15.4864384 152.298153,13.4474113 154.047354,12.5793768 L154.789828,16.0621134 C154.862661,16.4012132 155.064339,16.6968503 155.350486,16.8839747 C155.636633,17.0710991 155.983804,17.1343791 156.31561,17.0598909 L156.319323,17.0523032 Z M139.843842,30.9566928 C140.262704,30.9571068 140.668033,30.8051352 140.987251,30.5279899 C143.284904,28.5395337 144.909027,25.8600134 145.627708,22.8720395 L149.547967,6.04260647 C149.814954,4.94316669 149.638069,3.78019071 149.057125,2.81544079 C148.476182,1.85069086 147.539993,1.1652321 146.459278,0.913347348 C144.229056,0.429550076 142.027702,1.8496799 141.495845,4.11534047 L141.213705,5.2800465 L141.213705,5.2800465 L141.050361,5.98569901 L139.108793,5.49250102 C138.645052,5.37570538 138.154902,5.45199606 137.746211,5.70458376 C137.33752,5.95717147 137.04378,6.365357 136.929634,6.83931092 L135.025191,14.6735713 C134.908297,15.1778843 135.209167,15.6847068 135.700841,15.8117206 C135.773784,15.8296318 135.848565,15.8385476 135.923583,15.8382774 C136.349398,15.8370703 136.719781,15.5398924 136.821976,15.1174495 L138.71157,7.34009657 L140.623439,7.8257069 L137.608997,20.8499277 C136.878574,23.8316863 137.08774,26.972979 138.206688,29.8261312 C138.471459,30.5117753 139.118855,30.9628676 139.840129,30.9642804 L139.843842,30.9566928 Z M139.413207,21.3051874 L143.02534,5.75048151 L143.307479,4.58956931 C143.590406,3.32937747 144.80265,2.52757427 146.043493,2.77991206 C146.639225,2.9191882 147.154934,3.29785388 147.474169,3.8304031 C147.793404,4.36295233 147.889242,5.00447501 147.740044,5.61010977 L143.823498,22.4433366 C143.204531,24.9907626 141.828516,27.2796655 139.884678,28.9952823 C138.953122,26.5434234 138.788403,23.8566986 139.413207,21.3051874 L139.413207,21.3051874 Z" id="Shape"></path>
                </g>
            </g>
        </g>
    </g>
</svg>