<?xml version="1.0" encoding="UTF-8"?>
<svg width="39px" height="42px" viewBox="0 0 39 42" version="1.1" xmlns="http://www.w3.org/2000/svg" xmlns:xlink="http://www.w3.org/1999/xlink">
    <!-- Generator: Sketch 46.1 (44463) - http://www.bohemiancoding.com/sketch -->
    <title>noun_1122984_cc</title>
    <desc>Created with Sketch.</desc>
    <defs></defs>
    <g id="Emails" stroke="none" stroke-width="1" fill="none" fill-rule="evenodd">
        <g id="Welcome-Email-B" transform="translate(-905.000000, -1368.000000)" stroke="#4DC2F0" fill-rule="nonzero" fill="#4DC2F0">
            <g id="noun_1122984_cc" transform="translate(906.250000, 1369.000000)">
                <path d="M18.2395291,9.18866942 C20.7735523,9.18866942 22.8277839,7.13443774 22.8277839,4.60041455 C22.8277839,2.06639136 20.7735523,0.012159686 18.2395291,0.012159686 C15.7055059,0.012159686 13.6512742,2.06639136 13.6512742,4.60041455 C13.6557362,7.13258722 15.7073564,9.18420743 18.2395291,9.18866942 L18.2395291,9.18866942 Z M18.2395291,2.02661434 C19.6609997,2.02661434 20.8133293,3.17894395 20.8133293,4.60041455 C20.8133293,6.02188516 19.6609997,7.17421477 18.2395291,7.17421477 C16.8180585,7.17421477 15.6657289,6.02188516 15.6657289,4.60041455 C15.6679607,3.17986942 16.8189839,2.02884615 18.2395291,2.02661434 Z" id="Shape"></path>
                <path d="M10.4654365,14.692954 L10.4654365,14.729433 L11.3936258,20.809276 C11.529163,21.9816299 12.2157453,23.0190318 13.2418981,23.6019506 L14.729433,33.7350223 C14.8667469,34.864154 15.8253116,35.7131188 16.962762,35.7129979 L19.5081896,35.7129979 C20.6456401,35.7131188 21.6042048,34.864154 21.7415186,33.7350223 L23.2290536,23.6019506 C24.2552064,23.0190318 24.9417887,21.9816299 25.0773258,20.809276 L26.0055152,14.729433 L26.0055152,14.692954 C26.1391595,13.5034307 25.7602885,12.3132382 24.9636009,11.4198652 C24.1669133,10.5264922 23.0276935,10.0143595 21.8306897,10.0114748 L20.6714663,10.0114748 C20.3177683,10.0106988 19.9832078,10.1720048 19.763543,10.4492235 L18.2395291,12.3299216 L16.7357812,10.4532768 C16.5125678,10.1688746 16.1690772,10.0053791 15.8075919,10.0114748 L14.6321555,10.0114748 C13.4365666,10.0166567 12.2995327,10.5297828 11.5046434,11.4228734 C10.7097541,12.315964 10.3319415,13.5048298 10.4654365,14.692954 Z M13.0108641,12.7595639 C13.4214396,12.2943179 14.0116522,12.0272467 14.6321555,12.0259295 L15.402269,12.0259295 L17.104625,14.1538746 C17.3689527,14.4884903 17.7725783,14.6828285 18.1989968,14.6807943 L18.255742,14.6807943 C18.6800508,14.6825625 19.0817994,14.4899024 19.3460605,14.1579278 L21.0767891,12.0259295 L21.8428494,12.0259295 C22.4662074,12.0256681 23.0602157,12.2907246 23.4763649,12.7548315 C23.892514,13.2189383 24.0914682,13.8382267 24.0234864,14.4578667 L23.1034035,20.5336565 L23.1034035,20.5741888 C23.0321156,21.219733 22.5997309,21.7684686 21.9887656,21.9887656 C21.6395374,22.1185663 21.390224,22.430208 21.340249,22.7994113 L19.7473301,33.4472431 L19.7473301,33.4796689 C19.7348246,33.599924 19.6331447,33.6910853 19.5122429,33.6904368 L16.9668153,33.6904368 C16.8459134,33.6910853 16.7442335,33.599924 16.731728,33.4796689 L16.731728,33.4472431 L15.1631285,22.7831984 C15.1131535,22.4139951 14.8638401,22.1023534 14.5146119,21.9725527 C13.9036466,21.7522557 13.4712619,21.2035201 13.399974,20.5579759 L13.399974,20.5174436 L12.4717847,14.4376006 C12.4052896,13.8271076 12.6012563,13.217106 13.0108641,12.7595639 L13.0108641,12.7595639 Z" id="Shape"></path>
                <path d="M31.566545,34.7645424 C31.566545,32.8311523 29.227832,31.2949786 24.9841016,30.4397474 C24.4378987,30.3278206 23.9043792,30.6798709 23.7924524,31.2260738 C23.6805256,31.7722766 24.0325759,32.3057961 24.5787787,32.417723 C28.3280153,33.1716235 29.5399306,34.3227405 29.5399306,34.7645424 C29.5399306,35.1252797 28.7657639,35.9075529 26.6337657,36.5884953 C23.9055469,37.3691894 21.0768602,37.7420679 18.2395291,37.6950267 C15.3994876,37.742869 12.5680104,37.3699827 9.83718601,36.5884953 C7.70518772,35.9075529 6.93102104,35.1252797 6.93102104,34.7645424 C6.93102104,34.3227405 8.14698965,33.1716235 11.8921729,32.417723 C12.4383758,32.3057962 12.7904261,31.7722766 12.6784993,31.2260738 C12.5665725,30.6798709 12.033053,30.3278206 11.4868501,30.4397474 C7.25122611,31.2949786 4.91251316,32.8311523 4.91251316,34.7645424 C4.91251316,35.8427012 5.65830724,37.3707684 9.22109525,38.5097257 C12.1507315,39.3576241 15.1899834,39.7660449 18.2395291,39.7216411 C21.2892768,39.7647283 24.3285327,39.354941 27.2579629,38.5056725 C30.804538,37.3707684 31.566545,35.8467545 31.566545,34.7645424 Z" id="Shape"></path>
                <path d="M29.5237177,8.18752194 C31.1782179,8.18916168 32.6707173,7.19377668 33.3050036,5.66568815 C33.93929,4.13759963 33.5903931,2.37787902 32.4210644,1.20739023 C31.2517357,0.0369014377 29.4923619,-0.313740131 27.9636452,0.319030695 C26.4349284,0.95180152 25.438064,2.44331315 25.4380632,4.0978142 C25.4402926,6.35399156 27.2675437,8.18305536 29.5237177,8.18752194 Z M29.5237177,2.02661434 C30.6676098,2.02661434 31.5949176,2.9539221 31.5949176,4.0978142 C31.5949176,5.24170629 30.6676098,6.16901405 29.5237177,6.16901405 C28.3798256,6.16901405 27.4525179,5.24170629 27.4525179,4.0978142 C27.454748,2.95484715 28.3807507,2.02884453 29.5237177,2.02661434 Z" id="Shape"></path>
                <path d="M31.6151837,9.20082911 C31.2677262,9.19944654 30.9389209,9.35787093 30.7234734,9.63047135 L29.5358774,11.113953 L28.3482814,9.63047135 C28.1231051,9.34519976 27.762843,9.20172807 27.4032024,9.25410067 C27.0435618,9.30647328 26.7391807,9.54673354 26.6047164,9.88437773 C26.4702521,10.2220219 26.526133,10.6057539 26.7513093,10.8910255 L28.4374524,12.9946512 C28.7023387,13.3146756 29.0961301,13.4999177 29.511558,13.4999177 C29.926986,13.4999177 30.3207773,13.3146756 30.5856636,12.9946512 L32.0205066,11.219337 L32.612278,11.219337 C33.1068077,11.219048 33.5782896,11.4283715 33.9097524,11.7953758 C34.2412152,12.1623801 34.4015988,12.6526746 34.3511131,13.1446206 L33.5404673,18.3732856 L33.5404673,18.4138179 C33.4839865,18.915215 33.1477163,19.3410525 32.6730764,19.5122429 C32.3222693,19.6408338 32.0712073,19.952712 32.0205066,20.3228886 L30.6829411,29.8844551 C30.6059399,30.4361951 30.990546,30.9459795 31.5422256,31.0234123 L31.6840886,31.0234123 C32.1858639,31.0223484 32.6106532,30.6528163 32.6811829,30.1560214 L33.9538967,21.1213747 C34.8430803,20.5898547 35.4335829,19.6741259 35.5508688,18.6448519 L36.3615145,13.4121337 L36.3615145,13.3756546 C36.4792019,12.3114328 36.1377672,11.2474922 35.4227839,10.4504869 C34.7078005,9.65348171 33.6870389,9.19895676 32.6163312,9.20082911 L31.6151837,9.20082911 Z" id="Shape"></path>
                <path d="M6.95534042,8.18752194 C9.21402363,8.18752194 11.0450482,6.35649741 11.0450482,4.0978142 C11.0450482,1.83913098 9.21402363,0.00810645736 6.95534042,0.00810645736 C4.6966572,0.00810645736 2.86563268,1.83913098 2.86563268,4.0978142 C2.86786698,6.35557129 4.69758333,8.18528764 6.95534042,8.18752194 Z M6.95534042,2.02661434 C8.09652769,2.03778109 9.01365663,2.96997514 9.00623027,4.11119288 C8.99880392,5.25241062 8.06962084,6.17258998 6.92838489,6.1689041 C5.78714894,6.16521822 4.86392905,5.2390561 4.86387442,4.0978142 C4.86493667,3.5453051 5.08627861,3.01602876 5.47885968,2.62725178 C5.87144074,2.23847479 6.40284717,2.02229683 6.95534042,2.02661434 Z" id="Shape"></path>
                <path d="M0.129703318,13.4283466 L0.928189368,18.6448519 C1.04787957,19.6711615 1.63808278,20.58343 2.52516147,21.1132682 L3.79787527,30.1479149 C3.86840497,30.6447098 4.29319422,31.0142419 4.79496953,31.0153059 L4.93683253,31.0153059 C5.48851215,30.9378731 5.87311822,30.4280886 5.79611701,29.8763486 L4.45855155,20.3188354 C4.40785086,19.9486588 4.15678886,19.6367805 3.80598173,19.5081896 C3.33134182,19.3369993 2.99507164,18.9111618 2.93859079,18.4097647 L2.93859079,18.3692324 L2.12794506,13.1405674 C2.07745933,12.6486213 2.23784289,12.1583269 2.56930569,11.7913226 C2.9007685,11.4243183 3.37225044,11.2149948 3.86678016,11.2152838 L4.45855155,11.2152838 L5.88123482,12.9905979 C6.13491495,13.3115787 6.52189875,13.4983469 6.93102104,13.4972515 L6.95534042,13.4972515 C7.3724026,13.5075269 7.77010153,13.3214338 8.02944602,12.9946512 L9.72774883,10.8910255 C10.0396436,10.4551281 9.95640597,9.85145977 9.53818408,9.51623553 C9.11996219,9.18101128 8.5126502,9.23117207 8.15509611,9.63047135 L6.9675001,11.113953 L5.78395733,9.6385778 C5.56368114,9.35545069 5.22251538,9.19313394 4.86387442,9.20082911 L3.85056725,9.20082911 C2.78339238,9.20471223 1.76809994,9.66172802 1.05761653,10.4580261 C0.347133118,11.2543241 0.00834501089,12.3149394 0.125650089,13.3756546 L0.129703318,13.4283466 Z" id="Shape"></path>
            </g>
        </g>
    </g>
</svg>