<?xml version="1.0" encoding="UTF-8"?>
<svg width="42px" height="43px" viewBox="0 0 42 43" version="1.1" xmlns="http://www.w3.org/2000/svg" xmlns:xlink="http://www.w3.org/1999/xlink">
    <!-- Generator: Sketch 46.1 (44463) - http://www.bohemiancoding.com/sketch -->
    <title>noun_1015798_cc</title>
    <desc>Created with Sketch.</desc>
    <defs></defs>
    <g id="Emails" stroke="none" stroke-width="1" fill="none" fill-rule="evenodd">
        <g id="Welcome-Email-B" transform="translate(-506.000000, -1367.000000)" stroke="#FFFFFF" stroke-width="2" fill="#4DC2F0" fill-rule="nonzero">
            <g id="noun_1015798_cc" transform="translate(507.000000, 1368.410000)">
                <path d="M2.45901639,5.30491813 L4.3442623,5.30491813 L11.1803279,26.9483608 C11.5037861,27.9706461 12.452353,28.665488 13.5245902,28.6655739 L31.9672131,28.6655739 C33.0454125,28.6650377 33.997505,27.962184 34.3155738,26.9319673 L39.2336066,10.9483608 C39.4638711,10.2025402 39.3263666,9.39169208 38.8630924,8.76348262 C38.3998183,8.13527315 37.6658033,7.76432263 36.8852459,7.76393453 L10.2786885,7.76393453 L8.49180328,2.10409846 C8.16834507,1.0818131 7.21977816,0.38697126 6.14754098,0.386885346 L2.45901639,0.386885346 C1.10093914,0.386885346 9.10018873e-17,1.48782449 0,2.84590174 C-1.82003775e-16,4.20397899 1.10093914,5.30491813 2.45901639,5.30491813 L2.45901639,5.30491813 Z M33.557377,12.6819673 L30.1516393,23.7475411 L15.3278689,23.7475411 L11.8319672,12.6819673 L33.557377,12.6819673 Z M15.9836066,39.7311476 C13.9464907,39.7311476 12.295082,38.0797389 12.295082,36.0426231 C12.295082,34.0055072 13.9464907,32.3540985 15.9836066,32.3540985 C18.0207224,32.3540985 19.6721311,34.0055072 19.6721311,36.0426231 C19.6721311,38.0797389 18.0207224,39.7311476 15.9836066,39.7311476 L15.9836066,39.7311476 Z M25.8196721,36.0426231 C25.8196721,34.0055072 27.4710808,32.3540985 29.5081967,32.3540985 C31.5453126,32.3540985 33.1967213,34.0055072 33.1967213,36.0426231 C33.1967213,38.0797389 31.5453126,39.7311476 29.5081967,39.7311476 C27.4710808,39.7311476 25.8196721,38.0797389 25.8196721,36.0426231 L25.8196721,36.0426231 Z" id="Shape"></path>
            </g>
        </g>
    </g>
</svg>