<?xml version="1.0" encoding="UTF-8"?>
<svg width="35px" height="40px" viewBox="0 0 35 40" version="1.1" xmlns="http://www.w3.org/2000/svg" xmlns:xlink="http://www.w3.org/1999/xlink">
    <!-- Generator: Sketch 46.1 (44463) - http://www.bohemiancoding.com/sketch -->
    <title>noun_1123003_cc</title>
    <desc>Created with Sketch.</desc>
    <defs></defs>
    <g id="Emails" stroke="none" stroke-width="1" fill="none" fill-rule="evenodd">
        <g id="Welcome-Email-A" transform="translate(-500.000000, -1169.000000)" fill-rule="nonzero" fill="#4DC2F0">
            <g id="Marketing" transform="translate(222.000000, 945.000000)">
                <g id="Group-2" transform="translate(137.000000, 224.000000)">
                    <g id="noun_1123003_cc" transform="translate(141.000000, 0.000000)">
                        <path d="M34.9882017,28.855125 L34.9882017,10.7981697 C34.9874435,10.2615027 34.7008597,9.76568752 34.2357006,9.4962766 L18.5545481,0.461743663 C18.0870211,0.192405792 17.5110042,0.192405792 17.0434773,0.461743663 L1.37446187,9.49022128 C0.909302715,9.75963221 0.622718947,10.2554473 0.621960742,10.7921144 L0.621960742,28.855125 C0.622718947,29.3917921 0.909302715,29.8876072 1.37446187,30.1570181 L17.0495458,39.1915511 C17.5170727,39.4608889 18.0930897,39.4608889 18.5606166,39.1915511 L34.229632,30.1570181 C34.6971268,29.889143 34.9861899,29.3930393 34.9882017,28.855125 Z M17.8020469,3.5075681 L30.4549893,10.7739485 L25.8428856,13.4322326 L13.1899433,6.16585226 L17.8020469,3.5075681 Z M17.8020469,18.0887714 L5.14910461,10.822391 L10.1738702,7.9279495 L22.8268125,15.1943299 L17.8020469,18.0887714 Z M3.6380338,13.401956 L16.2909761,20.6683364 L16.2909761,35.273761 L3.6380338,28.0073806 L3.6380338,13.401956 Z M19.3131177,35.273761 L19.3131177,20.6925577 L31.9660601,13.4261773 L31.9660601,27.9831593 L19.3131177,35.273761 Z" id="Shape"></path>
                    </g>
                </g>
            </g>
        </g>
    </g>
</svg>