<?xml version="1.0" encoding="UTF-8"?>
<svg width="596px" height="316px" viewBox="0 0 596 316" version="1.1" xmlns="http://www.w3.org/2000/svg" xmlns:xlink="http://www.w3.org/1999/xlink">
    <!-- Generator: Sketch 46.1 (44463) - http://www.bohemiancoding.com/sketch -->
    <title>Rectangle</title>
    <desc>Created with Sketch.</desc>
    <defs>
        <path d="M8,0 L572,0 C576.418278,-5.68434189e-14 580,3.581722 580,8 L580,170.38054 C580,171.965052 579.06469,173.400201 577.615084,174.039981 L507.945007,204.788673 C507.747952,204.875642 483.926418,223.225283 436.480406,259.837595 C435.542226,260.562205 434.330971,260.833361 433.173392,260.577914 L362.70976,245.028452 C362.616601,245.007894 338.736494,242.365325 291.069442,237.100744 C290.36893,237.023452 289.660432,237.132613 289.015673,237.417175 L218.698153,268.451614 C217.919715,268.795176 217.052003,268.881555 216.221112,268.698199 L146.278888,253.263797 C145.447997,253.080442 144.580285,253.166821 143.801847,253.510382 L72.8642901,284.818472 C72.7027825,284.889753 50.035338,289.918656 4.86195654,299.905181 C2.70471853,300.381226 0.570020501,299.01835 0.0939750485,296.861112 C0.0523317431,296.672402 0.021006727,200.385365 0,8 C0,3.581722 3.581722,0 8,0 Z" id="path-1"></path>
    </defs>
    <g id="Emails" stroke="none" stroke-width="1" fill="none" fill-rule="evenodd">
        <g id="Welcome-Email-A" transform="translate(-214.000000, -135.000000)">
            <g id="Hero" transform="translate(222.000000, 143.000000)">
                <mask id="mask-2" fill="white">
                    <use xlink:href="#path-1"></use>
                </mask>
                <g id="Rectangle" stroke-linecap="round" stroke-linejoin="round">
                    <use fill="#132E47" fill-rule="evenodd" xlink:href="#path-1"></use>
                    <path stroke="#F9F9F9" stroke-width="8" d="M509.963341,208.27014 C509.777384,208.410432 509.518652,208.606924 509.188744,208.858422 C508.430089,209.436769 507.301155,210.301332 505.803212,211.451149 C502.803052,213.754065 498.325771,217.198848 492.372029,221.784994 C480.462355,230.958973 462.646262,244.69885 438.925463,263.003302 C437.049104,264.452522 434.626593,264.994833 432.311436,264.483939 L361.847804,248.934477 C362.072286,248.984014 361.063698,248.86627 361.962105,248.968315 C361.773048,248.946841 361.490375,248.915043 361.114861,248.873011 C360.361208,248.788653 359.235521,248.663284 357.738205,248.496951 C354.742223,248.164135 350.259371,247.667423 344.289857,247.006838 C332.350144,245.685591 314.463601,243.708831 290.630757,241.076616 L220.313236,272.111055 C218.756362,272.798177 217.020937,272.970935 215.359156,272.604224 L145.416931,257.169822 L74.4793738,288.477913 C73.8952897,288.735697 67.7852888,290.091236 5.72391308,303.811206 C1.40943706,304.763296 -2.859959,302.037545 -3.8120499,297.723069 C-3.96316526,297.038277 -3.97110426,272.635332 -4,8 C-4,1.372583 1.372583,-4 8,-4 L572,-4 C578.627417,-4 584,1.372583 584,8 L584,170.38054 C584,173.549563 582.12938,176.419862 579.230167,177.699421 L509.963341,208.27014 Z"></path>
                </g>
            </g>
        </g>
    </g>
</svg>