<?xml version="1.0" encoding="UTF-8"?>
<svg width="49px" height="11px" viewBox="0 0 49 11" version="1.1" xmlns="http://www.w3.org/2000/svg" xmlns:xlink="http://www.w3.org/1999/xlink">
    <!-- Generator: Sketch 3.6.1 (26313) - http://www.bohemiancoding.com/sketch -->
    <title>ithemes-logo (1)</title>
    <desc>Created with Sketch.</desc>
    <defs></defs>
    <g id="Page-1" stroke="none" stroke-width="1" fill="none" fill-rule="evenodd">
        <g id="ithemes-logo-(1)" fill="#8CC63F">
            <g id="Group-10">
                <path d="M0.262447761,10.6696716 L2.35868657,10.6696716 L2.35868657,3.0001791 L0.262447761,3.0001791 L0.262447761,10.6696716 Z" id="Fill-5"></path>
                <path d="M1.32571642,0.00989402985 C0.609940299,0.00989402985 0.0300895522,0.589326866 0.0300895522,1.3055209 C0.0300895522,2.02067015 0.609940299,2.6005209 1.32571642,2.6005209 C2.04128358,2.6005209 2.62071642,2.02067015 2.62071642,1.3055209 C2.62071642,0.589326866 2.04128358,0.00989402985 1.32571642,0.00989402985" id="Fill-6"></path>
                <path d="M14.2968,3.07433731 C14.2968,3.07433731 12.3960388,2.54359104 11.2147104,4.15275522 L11.2147104,0.146665672 L9.09224776,0.146665672 L9.09224776,9.11753134 L7.2659791,9.11753134 C7.2659791,9.11753134 6.49002388,9.08294925 6.47288955,8.15894925 L6.47288955,4.59793433 L8.32109851,4.59793433 L8.32109851,3.00026269 L6.47288955,3.00026269 L6.47288955,0.146665672 L4.39002388,0.694546269 L4.39002388,3.00026269 L3.09972537,3.00026269 L3.09972537,4.59793433 L4.39002388,4.59793433 C4.39002388,4.59793433 4.34457612,8.20439701 4.41290448,8.77505373 C4.41290448,8.77505373 4.48133731,9.8938 5.18833731,10.4186955 C5.18833731,10.4186955 5.55411343,10.6925313 6.94711343,10.6925313 L11.2147104,10.6925313 L11.2147104,6.75706866 C11.3097851,6.06918806 11.6718,4.81242687 13.0471433,4.71735224 C13.0471433,4.71735224 13.8005313,4.76854627 13.8005313,5.89909851 L13.8005313,10.675397 L15.8714866,10.675397 L15.8714866,5.29971045 C15.8714866,5.29971045 15.9575761,3.51941194 14.2968,3.07433731" id="Fill-7"></path>
                <path d="M20.2455985,4.32393134 C21.6921955,4.3922597 21.4701806,5.84805075 21.4701806,5.84805075 L18.7302552,5.84805075 C18.9363896,4.21255821 20.2455985,4.32393134 20.2455985,4.32393134 M33.4132254,2.98870746 C33.4132254,2.98870746 31.6790015,2.73764776 30.7312851,4.44972239 C30.7312851,4.44972239 30.4347776,3.10248358 28.8144343,2.98870746 C28.8144343,2.98870746 26.9658075,2.8060806 26.2004045,4.30146866 L26.2004045,3.11439403 L24.2259866,3.11439403 L24.2259866,9.08288657 L20.4939418,9.08288657 C20.4939418,9.08288657 18.7255537,9.10587164 18.7302552,7.2510806 L23.4554642,7.2510806 C23.4554642,7.2510806 23.7578224,5.54485672 23.1532104,4.43812537 C23.1532104,4.43812537 22.3998224,2.46339403 19.4215836,2.91985672 C19.4215836,2.91985672 17.0809716,3.29712537 16.6936731,6.10454328 C16.6936731,6.10454328 16.0202104,10.0759463 19.4215836,10.6122299 C19.4215836,10.6122299 20.1055985,10.6925731 20.3566582,10.6925731 L26.3032104,10.6925731 L26.3032104,6.9173791 C26.3032104,6.24903582 26.8199567,4.72648358 27.9581358,4.71206567 C27.9581358,4.71206567 28.8144343,4.55242388 28.8367925,5.83018507 L28.8367925,10.6925731 L30.8911358,10.6925731 C30.8911358,10.6925731 30.8772403,7.87878209 30.8911358,6.88352836 C30.9025239,6.06411045 31.384897,4.8202 32.4433597,4.70057313 C32.4433597,4.70057313 33.3903448,4.58690149 33.4249269,5.7050209 L33.4249269,10.6925731 L35.5136433,10.6925731 L35.5136433,5.32827463 C35.5136433,5.32827463 35.6277328,3.12546866 33.4132254,2.98870746" id="Fill-8"></path>
                <path d="M39.8306582,4.32393134 C41.2774642,4.3922597 41.0546134,5.84805075 41.0546134,5.84805075 L38.3153149,5.84805075 C38.5210313,4.21255821 39.8306582,4.32393134 39.8306582,4.32393134 M47.7138075,6.28685672 C47.7138075,6.28685672 46.7210612,5.84178209 46.6182552,5.81921493 C46.5155537,5.79633433 45.8199418,5.52249851 45.9220164,4.99697612 C45.9220164,4.99697612 45.8310164,3.91281194 48.3873746,4.59787164 L48.3873746,2.95485672 C48.3873746,2.95485672 45.9109418,2.40645373 44.4615239,3.65036418 C44.4615239,3.65036418 43.6849418,4.32393134 43.7652851,5.43066269 C43.7652851,5.43066269 43.7534791,6.56090149 44.8035836,7.0742 C44.8035836,7.0742 44.9181955,7.19999104 45.8762552,7.5310806 C45.8762552,7.5310806 46.880703,7.82821493 46.7777925,8.37557313 C46.7777925,8.37557313 46.8237627,9.03754328 45.7395985,9.08288657 L43.6509866,9.08288657 L42.8639567,9.08288657 L40.0783746,9.08288657 C40.0783746,9.08288657 38.3101955,9.10587164 38.3153149,7.2510806 L43.0405239,7.2510806 C43.0405239,7.2510806 43.3424642,5.54485672 42.7382701,4.43812537 C42.7382701,4.43812537 41.9842552,2.46339403 39.005703,2.91985672 C39.005703,2.91985672 36.6659269,3.29712537 36.2777925,6.10454328 C36.2777925,6.10454328 35.6046433,10.0759463 39.005703,10.6122299 C39.005703,10.6122299 39.6906582,10.6925731 39.9417179,10.6925731 L43.6543299,10.6925731 C43.6543299,10.688603 43.6541209,10.6844239 43.6541209,10.6805582 L45.5228075,10.6805582 C45.5228075,10.6805582 48.4558075,10.8522149 48.9349418,8.64940896 C48.9349418,8.64940896 49.3344642,7.02822985 47.7138075,6.28685672" id="Fill-9"></path>
            </g>
        </g>
    </g>
</svg>