<?xml version="1.0" encoding="UTF-8"?>
<svg width="51px" height="43px" viewBox="0 0 51 43" version="1.1" xmlns="http://www.w3.org/2000/svg" xmlns:xlink="http://www.w3.org/1999/xlink">
    <!-- Generator: Sketch 46.1 (44463) - http://www.bohemiancoding.com/sketch -->
    <title>noun_739701_cc (1)</title>
    <desc>Created with Sketch.</desc>
    <defs></defs>
    <g id="Page-1" stroke="none" stroke-width="1" fill="none" fill-rule="evenodd">
        <g id="noun_739701_cc-(1)" transform="translate(-1.000000, 0.000000)" fill-rule="nonzero" fill="#F15C46">
            <path d="M45.5424505,13.1660335 C42.57539,13.1660335 40.1499464,15.5306212 40.0512247,18.4746918 L36.2294776,20.2029978 L30.7145856,10.7487041 C31.5679198,9.69184087 32.0662616,8.35571697 32.0662616,6.9452137 C32.0662616,3.60422777 29.352767,0.886 26.0171905,0.886 C22.681614,0.886 19.9681195,3.60422777 19.9681195,6.9452137 C19.9681195,8.35571697 20.4664612,9.69251705 21.3197954,10.7487041 L15.8049034,20.2029978 L11.9831563,18.4746918 C11.8844346,15.5306212 9.45966726,13.1660335 6.49193051,13.1660335 C3.46266175,13.1660335 0.998,15.6306952 0.998,18.659964 C0.998,21.2902889 2.85545565,23.4939467 5.32687916,24.0294781 L7.76111299,35.0667 L7.76111299,40.1812957 C7.76111299,41.6749687 8.97214432,42.886 10.4658172,42.886 L41.5699162,42.886 C43.0635891,42.886 44.2746204,41.6749687 44.2746204,40.1812957 L44.2746204,35.0667 L46.7081781,24.0301543 C49.1796016,23.4932705 51.036381,21.2896127 51.036381,18.659964 C51.036381,15.6300191 48.5717193,13.1660335 45.5424505,13.1660335 Z M10.4658172,40.1812957 L10.4658172,35.4480633 L41.5699162,35.4480633 L41.5699162,40.1812957 L10.4658172,40.1812957 Z M45.5424505,21.4491903 C45.1894866,21.4491903 44.856808,21.3694015 44.5518526,21.2490421 L41.7193511,34.0957112 L10.3170585,34.0957112 L7.48523315,21.2490421 C7.18027775,21.3694015 6.84624677,21.4491903 6.49328287,21.4491903 C4.95633467,21.4491903 3.70405661,20.1935313 3.70405661,18.659964 C3.70405661,17.1115208 4.95633467,15.8707377 6.49328287,15.8707377 C8.03023106,15.8707377 9.28250913,17.1115208 9.28250913,18.659964 C9.28250913,19.1623628 9.1391598,19.6296005 8.901822,20.0495058 L16.9138322,23.6711048 L24.8433489,10.0772612 C23.5741664,9.60190946 22.6741761,8.38208784 22.6741761,6.94453753 C22.6741761,5.09249129 24.171906,3.59002808 26.0185429,3.59002808 C27.8651797,3.59002808 29.3629097,5.09249129 29.3629097,6.94453753 C29.3629097,8.38208784 28.4629193,9.60190946 27.1937369,10.0772612 L35.1232536,23.6711048 L43.1352637,20.0495058 C42.8979259,19.6296005 42.7545766,19.1623628 42.7545766,18.659964 C42.7545766,17.1115208 44.0068547,15.8707377 45.5438029,15.8707377 C47.0807511,15.8707377 48.3316768,17.1115208 48.3316768,18.659964 C48.3316768,20.1928551 47.0793987,21.4491903 45.5424505,21.4491903 Z" id="Shape"></path>
        </g>
    </g>
</svg>