<?xml version="1.0" encoding="UTF-8"?>
<svg width="68px" height="85px" viewBox="0 0 68 85" version="1.1" xmlns="http://www.w3.org/2000/svg" xmlns:xlink="http://www.w3.org/1999/xlink">
    <!-- Generator: Sketch 46 (44423) - http://www.bohemiancoding.com/sketch -->
    <title>noun_1079586_cc</title>
    <desc>Created with Sketch.</desc>
    <defs></defs>
    <g id="Page-1" stroke="none" stroke-width="1" fill="none" fill-rule="evenodd" opacity="0.35">
        <g id="noun_1079586_cc" transform="translate(0.000000, -1.000000)" fill-rule="nonzero" fill="#C2CCD4">
            <g id="Group" transform="translate(0.000000, 0.637820)">
                <path d="M21.78125,0.36218 C21.3293607,0.419122162 20.9104373,0.628583828 20.59375,0.95593 L0.59375,20.95593 C0.0285985504,21.5276848 -0.139322873,22.3822364 0.167458086,23.125328 C0.474239046,23.8684197 1.19609897,24.3556303 2,24.36218 L13,24.36218 L13,56.36218 C13.0001104,57.4667038 13.8954762,58.3620696 15,58.36218 L29,58.36218 C30.1045238,58.3620696 30.9998896,57.4667038 31,56.36218 L31,24.36218 L42,24.36218 C42.803901,24.3556303 43.525761,23.8684197 43.8325419,23.125328 C44.1393229,22.3822364 43.9714014,21.5276848 43.40625,20.95593 L23.40625,0.95593 C22.9826199,0.521876005 22.3849224,0.303486553 21.78125,0.36218 Z M22,5.17468 L37.1875,20.36218 L29,20.36218 C27.8954762,20.3622904 27.0001104,21.2576562 27,22.36218 L27,54.36218 L17,54.36218 L17,22.36218 C16.9998896,21.2576562 16.1045238,20.3622904 15,20.36218 L6.8125,20.36218 L22,5.17468 Z M38.8125,27.36218 C37.7817888,27.4593216 36.995536,28.3269109 37,29.36218 L37,61.36218 L26,61.36218 C25.196099,61.3687297 24.474239,61.8559403 24.1674581,62.599032 C23.8606771,63.3421236 24.0285986,64.1966752 24.59375,64.76843 L44.59375,84.76843 C45.3729866,85.5388116 46.6270134,85.5388116 47.40625,84.76843 L67.40625,64.76843 C67.9714014,64.1966752 68.1393229,63.3421236 67.8325419,62.599032 C67.525761,61.8559403 66.803901,61.3687297 66,61.36218 L55,61.36218 L55,29.36218 C54.9998896,28.2576562 54.1045238,27.3622904 53,27.36218 L39,27.36218 C38.9375344,27.359249 38.8749656,27.359249 38.8125,27.36218 Z M41,31.36218 L51,31.36218 L51,63.36218 C51.0001104,64.4667038 51.8954762,65.3620696 53,65.36218 L61.1875,65.36218 L46,80.54968 L30.8125,65.36218 L39,65.36218 C40.1045238,65.3620696 40.9998896,64.4667038 41,63.36218 L41,31.36218 Z" id="Shape"></path>
            </g>
        </g>
    </g>
</svg>