<?xml version="1.0" encoding="UTF-8"?>
<svg width="76px" height="84px" viewBox="0 0 76 84" version="1.1" xmlns="http://www.w3.org/2000/svg" xmlns:xlink="http://www.w3.org/1999/xlink">
    <!-- Generator: Sketch 46 (44423) - http://www.bohemiancoding.com/sketch -->
    <title>noun_459293_cc</title>
    <desc>Created with Sketch.</desc>
    <defs></defs>
    <g id="Page-1" stroke="none" stroke-width="1" fill="none" fill-rule="evenodd" fill-opacity="0.35">
        <g id="noun_459293_cc" fill-rule="nonzero" fill="#C2CCD4">
            <path d="M39.5333333,63.2666667 C42.5333333,63.2666667 42.8666667,63.2666667 42.5333333,60.2666667 L41,46.2666667 C40.6666667,43.2666667 41,43.2666667 38,43.2666667 C35,43.2666667 35.3333333,43.2666667 35,46.2666667 L33.4666667,60.2666667 C33.1333333,63.2666667 33.4666667,63.2666667 36.4666667,63.2666667 L39.5333333,63.2666667 Z M38,38.8 C41,38.8 43.2666667,36.6 43.2666667,33.6 C43.2666667,30.5333333 41,28.2666667 38,28.2666667 C35,28.2666667 32.8,30.5333333 32.8,33.6 C32.8,36.6 35,38.8 38,38.8 Z M73.8666667,24.4666667 C68.8,26.9333333 67.1333333,33.6 66.4,45.9333333 C65.5333333,60.3333333 61.4,73.4666667 44.6,76.1333333 C44.2,81.1333333 41.0666667,83.2666667 37.9333333,83.2666667 C34.8,83.2666667 31.8,81 31.4,76.1333333 C14.6666667,73.4666667 10.5333333,60.4666667 9.6,45.9333333 C8.86666667,34.4 7.53333333,27 2.13333333,24.4 C0.133333333,23.4 0.0666666667,23.7333333 0.0666666667,20 C0.0666666667,16.6 0.0666666667,16.6 3.46666667,16.6 L72.6,16.6 C76,16.6 76,16.6 76,20 C76,23.4 76.0666667,23.4 73.8666667,24.4666667 Z M11.0666667,23.2666667 C14.8666667,28.0666667 15.6,35.4666667 16.2666667,45.4666667 C17.4666667,64.1333333 23.6,69.9333333 38,69.9333333 C52.4,69.9333333 58.6,64.1333333 59.7333333,45.5333333 C60.3333333,35.4666667 61.1333333,28.0666667 65,23.2666667 L11.0666667,23.2666667 Z M37.9333333,-4.0003556e-11 C43.0666667,-4.0003556e-11 48.2666667,3 48.2666667,9.93333333 L27.7333333,9.93333333 C27.7333333,3.2 32.6666667,-4.0003556e-11 37.9333333,-4.0003556e-11 Z" id="Shape" transform="translate(38.033442, 41.633333) scale(-1, 1) rotate(-180.000000) translate(-38.033442, -41.633333) "></path>
        </g>
    </g>
</svg>