<?xml version="1.0" encoding="UTF-8"?>
<svg width="100px" height="90px" viewBox="0 0 100 90" version="1.1" xmlns="http://www.w3.org/2000/svg" xmlns:xlink="http://www.w3.org/1999/xlink">
    <!-- Generator: Sketch 46 (44423) - http://www.bohemiancoding.com/sketch -->
    <title>noun_974820_cc</title>
    <desc>Created with Sketch.</desc>
    <defs></defs>
    <g id="Page-1" stroke="none" stroke-width="1" fill="none" fill-rule="evenodd" opacity="0.35">
        <g id="noun_974820_cc" fill-rule="nonzero" fill="#C2CCD4">
            <g id="Group">
                <path d="M44.91,34.42 L55.09,34.42 L55.09,58.08 L44.91,58.08 L44.91,34.42 Z M50,73.42 C46.9237739,73.42 44.43,70.9262261 44.43,67.85 C44.43,64.7737739 46.9237739,62.28 50,62.28 C53.0762261,62.28 55.57,64.7737739 55.57,67.85 C55.5726553,69.3289877 54.9869901,70.7483094 53.9421245,71.7950508 C52.897259,72.8417923 51.4789901,73.4300024 50,73.43 L50,73.42 Z" id="Shape"></path>
                <path d="M97.92,74.3 L58.92,6.68 C56.43,2.44 53.22,0.33 50,0.33 C46.78,0.33 43.57,2.44 41.13,6.67 L2.08,74.3 C-2.8,82.75 1.2,89.67 11,89.67 L89,89.67 C98.8,89.67 102.8,82.75 97.92,74.3 Z M92.53,81.43 C92.41,81.59 91.42,82.23 89.05,82.23 L11,82.23 C8.63,82.23 7.64,81.59 7.52,81.44 C7.4,81.29 7.38,80.08 8.52,78.02 L47.52,10.4 C48.71,8.35 49.76,7.81 49.94,7.78 C50.12,7.75 51.19,8.34 52.37,10.4 L91.47,78 C92.66,80.07 92.6,81.25 92.53,81.42 L92.53,81.43 Z" id="Shape"></path>
                <circle id="Oval" cx="50" cy="67.86" r="5.57"></circle>
                <rect id="Rectangle-path" x="44.91" y="34.42" width="10.18" height="23.66"></rect>
            </g>
        </g>
    </g>
</svg>