<?xml version="1.0" encoding="UTF-8" standalone="no"?>
<svg width="79px" height="65px" viewBox="0 0 79 65" version="1.1" xmlns="http://www.w3.org/2000/svg" xmlns:xlink="http://www.w3.org/1999/xlink">
    <!-- Generator: Sketch 40.3 (33839) - http://www.bohemiancoding.com/sketch -->
    <title>noun_749373_cc</title>
    <desc>Created with Sketch.</desc>
    <defs></defs>
    <g id="Page-1" stroke="none" stroke-width="1" fill="none" fill-rule="evenodd" opacity="0.346665112">
        <g id="noun_749373_cc" transform="translate(-1.000000, 0.000000)" fill="#C2CCD4">
            <g id="Group">
                <path d="M31.125,47.125 C29.25,47.125 27.5,47.625 26,48.625 L17.125,13.5 C16.875,12.5 16.625,11.375 16.375,10.375 C16.25,9.75 15.875,9.5 15.25,9.25 C11.25,8 7.375,6.75 3.375,5.625 C2,5.25 0.875,4.125 1.25,2.375 C1.5,1.125 2.5,0.25 3.75,0.25 C4,0.25 4.25,0.25 4.5,0.375 C9.25,1.75 14,3.125 19.125,4.75 C20.25,5.125 21,5.875 21.25,7.25 L31.125,47.125 L31.125,47.125 Z" id="Shape"></path>
                <path d="M38.5,57.75 C38.5,61.625 35.25,64.75 31.375,64.75 L31.375,64.75 C27.375,64.75 24.375,61.625 24.375,57.625 C24.375,53.75 27.625,50.625 31.5,50.625 C33.375,50.625 35.25,51.375 36.5,52.75 C37.75,54.125 38.5,55.875 38.5,57.75 L38.5,57.75 Z" id="Shape"></path>
                <path d="M75.625,53.125 C73.375,53.75 69.25,54.875 66.875,55.375 L52.5,58.875 C49,59.75 45.375,60.625 41.875,61.5 C42,61 42.125,60.625 42.25,60.125 C42.375,59.375 42.375,58.75 42.375,58.125 C42.375,57 42.25,55.75 41.875,54.625 C41.75,54.125 41.5,53.5 41.25,53 L73.625,45 C74.125,44.875 74.5,44.875 74.875,44.875 C77,44.875 78.75,46.375 79,48.5 C79.25,50.625 77.875,52.5 75.625,53.125 L75.625,53.125 Z" id="Shape"></path>
                <path d="M69.5,33.25 C67.75,26.25 65.875,18.5 63.375,8.75 C62.75,6.375 60.375,4.875 57.625,5.5 C55.5,6 53.25,6.625 51.125,7.125 L50.875,7.25 C50.125,7.375 49.375,7.625 48.625,7.875 C48.875,9 49.125,10 49.5,11.125 L50.25,14.125 L49,14.375 C47.75,14.75 46.625,15 45.375,15.25 L44.25,15.5 L43.625,13.25 C43.25,12 43,10.75 42.625,9.625 C42.5,9.25 42.5,9.25 42.375,9.25 C42.375,9.25 42.375,9.25 42.125,9.25 L38,10.25 C36.375,10.625 34.875,11 33.25,11.5 C30.5,12.25 29.125,14.625 29.875,17.375 C31.5,23.875 33.125,30.25 34.625,36.75 L35.75,41.25 C36.375,43.75 38,45.125 40.375,45.125 C40.875,45.125 41.375,45 41.875,44.875 C43.5,44.5 45,44.125 46.625,43.75 L48.125,43.375 L48.125,43.375 L65.625,39 C68.625,38.375 70.125,36 69.5,33.25 L69.5,33.25 Z" id="Shape"></path>
            </g>
        </g>
    </g>
</svg>