<?xml version="1.0" encoding="UTF-8" standalone="no"?>
<svg width="111px" height="91px" viewBox="0 0 111 91" version="1.1" xmlns="http://www.w3.org/2000/svg" xmlns:xlink="http://www.w3.org/1999/xlink">
    <!-- Generator: Sketch 45.2 (43514) - http://www.bohemiancoding.com/sketch -->
    <title>noun_1127925_cc</title>
    <desc>Created with Sketch.</desc>
    <defs></defs>
    <g id="Page-1" stroke="none" stroke-width="1" fill="none" fill-rule="evenodd" opacity="0.35">
        <g id="noun_1127925_cc" fill-rule="nonzero" fill="#C2CCD4">
            <g id="Group">
                <g id="Shape">
                    <path d="M100.819916,15.5580595 L78.8624073,37.5155682 C79.0372298,38.1692908 79.1304348,38.8563697 79.1304348,39.5652174 C79.1304348,43.9354706 75.5876445,47.4782609 71.2173913,47.4782609 C66.8471381,47.4782609 63.3043478,43.9354706 63.3043478,39.5652174 C63.3043478,39.4725161 63.3059419,39.3801875 63.309104,39.2882569 L43.2810445,26.7707195 C42.1731172,27.3610733 40.9082397,27.6956522 39.5652174,27.6956522 C38.8563697,27.6956522 38.1692908,27.6024472 37.5155682,27.4276247 L15.5580594,49.3851334 C15.7328822,50.0388561 15.826087,50.7259349 15.826087,51.4347826 C15.826087,55.8050358 12.2832967,59.3478261 7.91304348,59.3478261 C3.54279024,59.3478261 0,55.8050358 0,51.4347826 C0,47.0645294 3.54279024,43.5217391 7.91304348,43.5217391 C8.62189126,43.5217391 9.30896991,43.6149441 9.96269266,43.7897666 L31.9202014,21.8322579 C31.7453789,21.1785352 31.6521739,20.4914564 31.6521739,19.7826087 C31.6521739,15.4123555 35.1949642,11.8695652 39.5652174,11.8695652 C43.9354706,11.8695652 47.4782609,15.4123555 47.4782609,19.7826087 C47.4782609,19.87531 47.4766668,19.9676386 47.4735047,20.0595692 L67.5015642,32.5771066 C68.6094915,31.9867528 69.874369,31.6521739 71.2173913,31.6521739 C71.926239,31.6521739 72.6133179,31.7453789 73.2670405,31.9202014 L95.2245492,9.96269266 C95.0497267,9.30896991 94.9565217,8.62189126 94.9565217,7.91304348 C94.9565217,3.54279024 98.499312,0 102.869565,0 C107.239818,0 110.782609,3.54279024 110.782609,7.91304348 C110.782609,12.2832967 107.239818,15.826087 102.869565,15.826087 C102.160718,15.826087 101.473639,15.732882 100.819916,15.5580595 Z M7.91304348,71.2173913 L7.91304348,71.2173913 C10.0981701,71.2173913 11.8695652,72.9887866 11.8695652,75.173913 L11.8695652,87.0434783 C11.8695652,89.2286047 10.0981701,91 7.91304348,91 C5.72791686,91 3.95652174,89.2286047 3.95652174,87.0434783 L3.95652174,75.173913 C3.95652174,72.9887866 5.72791686,71.2173913 7.91304348,71.2173913 L7.91304348,71.2173913 Z M71.2173913,59.3478261 C73.4025177,59.3478261 75.173913,61.1192214 75.173913,63.3043478 L75.173913,87.0434783 C75.173913,89.2286047 73.4025177,91 71.2173913,91 C69.0322649,91 67.2608696,89.2286047 67.2608696,87.0434783 L67.2608696,63.3043478 C67.2608696,61.1192214 69.0322649,59.3478261 71.2173913,59.3478261 Z M102.869565,27.6956522 C105.054692,27.6956522 106.826087,29.4670475 106.826087,31.6521739 L106.826087,87.0434783 C106.826087,89.2286047 105.054692,91 102.869565,91 C100.684439,91 98.9130435,89.2286047 98.9130435,87.0434783 L98.9130435,31.6521739 C98.9130435,29.4670475 100.684439,27.6956522 102.869565,27.6956522 Z M39.5652174,39.5652174 C41.7503438,39.5652174 43.5217391,41.3366127 43.5217391,43.5217391 L43.5217391,87.0434783 L43.5217391,87.0434783 C43.5217391,89.2286047 41.7503438,91 39.5652174,91 C37.380091,91 35.6086957,89.2286047 35.6086957,87.0434783 L35.6086957,43.5217391 C35.6086957,41.3366127 37.380091,39.5652174 39.5652174,39.5652174 Z"></path>
                </g>
            </g>
        </g>
    </g>
</svg>