<?xml version="1.0" encoding="UTF-8" standalone="no"?>
<svg width="70px" height="91px" viewBox="0 0 70 91" version="1.1" xmlns="http://www.w3.org/2000/svg" xmlns:xlink="http://www.w3.org/1999/xlink">
    <!-- Generator: Sketch 40.3 (33839) - http://www.bohemiancoding.com/sketch -->
    <title>Shape</title>
    <desc>Created with Sketch.</desc>
    <defs></defs>
    <g id="Page-1" stroke="none" stroke-width="1" fill="none" fill-rule="evenodd" fill-opacity="0.35">
        <g id="noun_885573_cc" transform="translate(0.000000, -1.000000)" fill="#C2CCD4">
            <g id="Group" transform="translate(0.000000, 0.637820)">
                <path d="M35,0.36218 C30.608446,0.36218 26.654818,1.81178 23.875,4.36218 L13,4.36218 C11.9003881,4.35890776 10.8870863,4.95742979 10.3591631,5.92203025 C9.83123989,6.88663071 9.8732889,8.06274338 10.46875,8.98718 L20.46875,24.67468 C16.606723,27.142845 13.181295,30.444524 10.28125,34.14343 C4.098179,42.02972 0.15625,51.75988 0.15625,60.36218 C0.15625,74.14548 10.626834,85.26873 24.28125,89.08093 C25.76883,89.4125688 27.2248109,88.3678229 27.5847348,86.7104989 C27.9446587,85.0531749 27.0809234,83.3708364 25.625,82.89343 C13.790264,79.58923 5.84375,70.47158 5.84375,60.36218 C5.84375,54.05278 9.101348,45.27925 14.5,38.39343 C19.898652,31.50764 27.210864,26.54968 35,26.54968 C42.789136,26.54968 50.101348,31.50764 55.5,38.39343 C60.898652,45.27925 64.15625,54.05278 64.15625,60.36218 C64.15625,66.67158 61.175909,72.47353 55.9375,76.89343 C50.699091,81.31333 43.263333,84.17468 35,84.17468 C33.4351932,84.17468 32.1666666,85.6017724 32.1666666,87.36218 C32.1666666,89.1225876 33.4351932,90.54968 35,90.54968 C44.409779,90.54968 53.000437,87.33938 59.34375,81.98718 C65.687063,76.63498 69.84375,68.96448 69.84375,60.36218 C69.84375,51.75988 65.901821,42.02972 59.71875,34.14343 C53.535679,26.25714 44.883976,20.17468 35,20.17468 C31.805267,20.17468 28.741316,20.82685 25.84375,21.95593 L18.46875,10.36218 L25,10.36218 C25.8954257,10.3609407 26.7434993,9.95982487 27.3125,9.26843 C28.547066,7.78867 31.492462,6.36218 35,6.36218 C38.507538,6.36218 41.452936,7.78867 42.6875,9.26843 C43.2565007,9.95982487 44.1045743,10.3609407 45,10.36218 L51.5,10.36218 L48.71875,14.73718 C48.1147168,15.6419517 48.0477613,16.8028061 48.5437644,17.7710256 C49.0397676,18.739245 50.0210128,19.3631231 51.1082086,19.4015055 C52.1954044,19.4398879 53.2182027,18.8867607 53.78125,17.95593 L59.53125,8.98718 C60.1267111,8.06274338 60.1687601,6.88663071 59.6408369,5.92203025 C59.1129137,4.95742979 58.0996119,4.35890776 57,4.36218 L46.125,4.36218 C43.345182,1.81178 39.391554,0.36218 35,0.36218 L35,0.36218 Z M34.96875,35.29968 C34.167611,35.3079318 33.4030499,35.6362605 32.8454025,36.2115178 C32.287755,36.7867752 31.983348,37.5611716 32,38.36218 L32,38.70593 C30.307812,39.113621 28.749076,39.881605 27.4375,40.98718 C25.378602,42.7227 24,45.39898 24,48.36218 C24,52.69838 27.118242,55.53238 29.65625,56.79968 C32.194258,58.06698 34.625,58.33093 34.625,58.33093 C34.625,58.33093 36.194285,58.53843 37.65625,59.26843 C39.118215,59.99853 40,60.68788 40,62.36218 C40,63.58678 39.538735,64.39468 38.6875,65.11218 C37.836265,65.82968 36.534579,66.36218 35,66.36218 C31.917862,66.36218 28.9375,64.04968 28.9375,64.04968 C28.1169056,63.3574779 26.9893597,63.1556386 25.9795978,63.5201932 C24.969836,63.8847477 24.2312652,64.7603116 24.0420978,65.8170682 C23.8529304,66.8738249 24.2419055,67.9512279 25.0625,68.64343 C25.0625,68.64343 27.835122,71.108247 32,72.01843 L32,72.36218 C31.9846991,73.4440877 32.5531259,74.4504241 33.4876185,74.9958432 C34.4221112,75.5412622 35.5778888,75.5412622 36.5123815,74.9958432 C37.4468741,74.4504241 38.0153009,73.4440877 38,72.36218 L38,72.01843 C39.692099,71.60153 41.250984,70.811442 42.5625,69.70593 C44.621398,67.97033 46,65.32538 46,62.36218 C46,58.02598 42.881755,55.19198 40.34375,53.92468 C37.805745,52.65738 35.375,52.36218 35.375,52.36218 C35.375,52.36218 33.805717,52.15468 32.34375,51.42468 C30.881783,50.69468 30,50.03648 30,48.36218 C30,47.13758 30.461263,46.29843 31.3125,45.58093 C32.163737,44.86333 33.465419,44.36218 35,44.36218 C38.082116,44.36218 41.0625,46.64343 41.0625,46.64343 C42.331029,47.7134816 44.2268233,47.552584 45.2968749,46.2840549 C46.3669266,45.0155259 46.206029,43.1197317 44.9375,42.04968 C44.9375,42.04968 42.164879,39.608453 38,38.70593 L38,38.36218 C38.0168793,37.5503324 37.7039673,36.7663125 37.1327324,36.1891885 C36.5614974,35.6120645 35.7807281,35.291128 34.96875,35.29968 L34.96875,35.29968 Z" id="Shape"></path>
            </g>
        </g>
    </g>
</svg>