<svg xmlns="http://www.w3.org/2000/svg" xmlns:xlink="http://www.w3.org/1999/xlink" viewBox="0 0 65.21 21.46"><defs><style>.cls-1,.cls-2,.cls-3{fill:none;}.cls-2{clip-path:url(#clip-path);}.cls-2,.cls-3{clip-rule:evenodd;}.cls-3{clip-path:url(#clip-path-2);}.cls-4{clip-path:url(#clip-path-9);}.cls-5{fill:#d4d4d4;}.cls-6{clip-path:url(#clip-path-10);}.cls-7{clip-path:url(#clip-path-11);}.cls-8{clip-path:url(#clip-path-12);}.cls-9{clip-path:url(#clip-path-13);}.cls-10{clip-path:url(#clip-path-14);}.cls-11{clip-path:url(#clip-path-15);}.cls-12{clip-path:url(#clip-path-16);}.cls-13{clip-path:url(#clip-path-17);}.cls-14{clip-path:url(#clip-path-18);}</style><clipPath id="clip-path"><rect class="cls-1" x="15.27" y="0.76" width="51.88" height="19.99"/></clipPath><clipPath id="clip-path-2"><rect class="cls-1" x="0.01" y="5.65" width="81.35" height="31.35"/></clipPath><clipPath id="clip-path-9" transform="translate(-14.5)"><path class="cls-2" d="M32,9.1a4,4,0,0,1-1.48-3s0-.1,0-.15c-.89.64-1.83,1.7-1.83,4.11a4.75,4.75,0,0,1-1,2.92c0,.07,0,.15,0,.22a6.46,6.46,0,0,1-.41,2.29,4.06,4.06,0,0,0,5.86-3.62A4,4,0,0,0,32,9.1"/></clipPath><clipPath id="clip-path-10" transform="translate(-14.5)"><path class="cls-2" d="M15.32,13.24A5.78,5.78,0,0,0,15.58,15a7,7,0,0,1,4.53-1.66,7.08,7.08,0,0,1,1.57.18,7,7,0,0,1,4.32,3,5.79,5.79,0,0,0,1-3.27c0-.11,0-.22,0-.32a5.83,5.83,0,0,0-5.83-5.5h-.39a5.84,5.84,0,0,0-5.45,5.81"/></clipPath><clipPath id="clip-path-11" transform="translate(-14.5)"><path class="cls-2" d="M30.34,16.49A4.92,4.92,0,0,1,27,16.17a6.51,6.51,0,0,1-.63,1,7,7,0,0,1,.72,3.08c0,.12,0,.25,0,.37a38.5,38.5,0,0,1,3.25-4.15"/></clipPath><clipPath id="clip-path-12" transform="translate(-14.5)"><path class="cls-2" d="M35.58,6.27a2.34,2.34,0,0,0-.93-1.64,2.24,2.24,0,0,0,.14-.51,2.31,2.31,0,0,0,0-.41,1.46,1.46,0,0,0-.25-.87.66.66,0,0,0-.87-.29h-.05a1,1,0,0,1-.09-.31,1.17,1.17,0,0,0-.25-.64.31.31,0,0,0-.25-.1c-.18,0-.28.19-.41.39s-.3.41-.42.35S32,1.82,32,1.44s0-.42-.08-.52a.24.24,0,0,0-.18-.07c-.23,0-.36.3-.54.75a3.6,3.6,0,0,1-.27.57,5,5,0,0,1-.32-.41c-.38-.53-.78-1.07-1.18-.9a.33.33,0,0,0-.19.2c-.06.19.06.39.21.65a1.35,1.35,0,0,1,.29.88.29.29,0,0,1,0,.06,1.45,1.45,0,0,1-.47-.2,1.83,1.83,0,0,0-1.39-.34c-.17.05-.34.13-.36.3s.15.3.38.44.58.37.53.62v0a.65.65,0,0,1-.41.45,1,1,0,0,0-.29.19.92.92,0,0,0-.2.72,1,1,0,0,0,.72.87,1.76,1.76,0,0,0,1.83-.31,3.76,3.76,0,0,1,.68-.51h0a3.11,3.11,0,0,1,.84-.33h0a3.22,3.22,0,0,1,.86-.07,2.16,2.16,0,0,0-1,.83A2.33,2.33,0,0,0,31.86,8a.18.18,0,0,0,.13.05h0a.18.18,0,0,0,.13-.13,3.09,3.09,0,0,1,.95-1.33l.35-.39A3.9,3.9,0,0,1,33.1,7a4.91,4.91,0,0,0-.57,1.28,1.24,1.24,0,0,0,0,.17.92.92,0,0,0,.21.74,1,1,0,0,0,.75.32,1.09,1.09,0,0,0,1-.79,2.57,2.57,0,0,0,0-1.5c-.1-.34-.29-.81-.42-1.14l1.27.43a.18.18,0,0,0,.1,0h0a.18.18,0,0,0,.17-.18.25.25,0,0,0,0-.06"/></clipPath><clipPath id="clip-path-13" transform="translate(-14.5)"><rect class="cls-1" x="34.52" y="11.66" width="15.7" height="3.7"/></clipPath><clipPath id="clip-path-14" transform="translate(-14.5)"><rect class="cls-1" x="34.82" y="12.8" width="0.65" height="2.4"/></clipPath><clipPath id="clip-path-15" transform="translate(-14.5)"><path class="cls-3" d="M35.15,11.86a.41.41,0,1,0,.4.41.4.4,0,0,0-.4-.41"/></clipPath><clipPath id="clip-path-16" transform="translate(-14.5)"><path class="cls-3" d="M39.2,12.83a.93.93,0,0,0-1,.34V11.91h-.66v2.81H37a.27.27,0,0,1-.25-.3V13.3h.58v-.5h-.58v-.89l-.65.17v.72h-.4v.5h.4s0,1.13,0,1.31a.78.78,0,0,0,.24.51,1,1,0,0,0,.55.09h1.33V14a.65.65,0,0,1,.57-.64s.24,0,.23.37v1.49h.65V13.52a.69.69,0,0,0-.49-.7"/></clipPath><clipPath id="clip-path-17" transform="translate(-14.5)"><path class="cls-3" d="M41.05,13.22a.4.4,0,0,1,.38.48h-.85c.06-.51.47-.48.47-.48m4.11-.41a.85.85,0,0,0-.84.46.63.63,0,0,0-.6-.46.86.86,0,0,0-.82.41v-.37h-.62v1.87H41.13a.54.54,0,0,1-.55-.57h1.47a1.6,1.6,0,0,0-.09-.88s-.23-.62-1.16-.48a1.1,1.1,0,0,0-.85,1s-.21,1.24.85,1.41l.29,0h1.86V14c0-.21.16-.69.52-.69,0,0,.27,0,.27.35v1.52h.64s0-.88,0-1.19.15-.65.48-.68c0,0,.3,0,.31.31v1.56h.65V13.54a.68.68,0,0,0-.65-.73"/></clipPath><clipPath id="clip-path-18" transform="translate(-14.5)"><path class="cls-3" d="M47.16,13.22a.4.4,0,0,1,.38.48h-.85c.06-.51.47-.48.47-.48m2.46.62-.34-.15s-.25-.09-.22-.26c0,0,0-.34.77-.12V12.8a1.6,1.6,0,0,0-1.22.22.71.71,0,0,0-.22.56.6.6,0,0,0,.32.51,1.16,1.16,0,0,0,.33.14s.31.09.28.26c0,0,0,.21-.32.22H47.24a.54.54,0,0,1-.55-.57h1.47a1.6,1.6,0,0,0-.09-.88s-.23-.62-1.16-.48a1.1,1.1,0,0,0-.85,1s-.21,1.24.85,1.41l.29,0h1.74s.91.05,1.06-.63a.65.65,0,0,0-.38-.74"/></clipPath></defs><title>isa-logo-lightgrey-small</title><g id="Layer_2" data-name="Layer 2"><g id="Layer_2-2" data-name="Layer 2"><g class="cls-4"><rect class="cls-5" x="11.98" y="5.17" width="7.51" height="11.61"/></g><g class="cls-6"><rect class="cls-5" y="6.59" width="13.34" height="10.75"/></g><g class="cls-7"><rect class="cls-5" x="11.06" y="15.35" width="5.61" height="6.11"/></g><g class="cls-8"><rect class="cls-5" x="12.22" width="9.69" height="10.31"/></g><path class="cls-5" d="M35.68,20.63a2,2,0,0,1-.6-.42.17.17,0,0,1-.07-.13.18.18,0,0,1,.05-.12.16.16,0,0,1,.12-.06.17.17,0,0,1,.12.06,1.41,1.41,0,0,0,1.09.48,1.12,1.12,0,0,0,.67-.19.59.59,0,0,0,.27-.5.61.61,0,0,0-.13-.4,1,1,0,0,0-.34-.26,4.59,4.59,0,0,0-.54-.21,3.31,3.31,0,0,1-.6-.24,1.1,1.1,0,0,1-.4-.34.93.93,0,0,1-.15-.55.9.9,0,0,1,.16-.53,1.07,1.07,0,0,1,.45-.36,1.59,1.59,0,0,1,.66-.13,1.78,1.78,0,0,1,.64.11,1.15,1.15,0,0,1,.48.33.27.27,0,0,1,.08.16.16.16,0,0,1-.06.11.18.18,0,0,1-.12.05.13.13,0,0,1-.1,0,1.1,1.1,0,0,0-.4-.29,1.28,1.28,0,0,0-.53-.11,1.13,1.13,0,0,0-.67.18.62.62,0,0,0,0,1,2.63,2.63,0,0,0,.71.32,4.27,4.27,0,0,1,.65.24,1.07,1.07,0,0,1,.41.35,1,1,0,0,1,.16.6.87.87,0,0,1-.17.52,1.12,1.12,0,0,1-.46.37,1.59,1.59,0,0,1-.67.13A1.79,1.79,0,0,1,35.68,20.63Z" transform="translate(-14.5)"/><path class="cls-5" d="M40.85,17.89a.17.17,0,0,1,0,.12v2.52a.17.17,0,1,1-.34,0v-.38a1.18,1.18,0,0,1-.42.43,1.14,1.14,0,0,1-.61.17,1.21,1.21,0,0,1-.68-.2,1.35,1.35,0,0,1-.47-.54,1.69,1.69,0,0,1-.17-.77,1.65,1.65,0,0,1,.17-.77,1.33,1.33,0,0,1,.47-.53,1.25,1.25,0,0,1,1.28,0,1.07,1.07,0,0,1,.42.43V18a.17.17,0,0,1,0-.12.17.17,0,0,1,.24,0Zm-.76,2.4a1,1,0,0,0,.36-.43,1.38,1.38,0,0,0,.13-.61,1.33,1.33,0,0,0-.13-.59,1,1,0,0,0-.36-.42.93.93,0,0,0-.52-.15.94.94,0,0,0-.52.15,1,1,0,0,0-.36.42,1.34,1.34,0,0,0-.13.6,1.4,1.4,0,0,0,.13.61,1,1,0,0,0,.36.43,1,1,0,0,0,1.05,0Z" transform="translate(-14.5)"/><path class="cls-5" d="M42.1,20.66a.17.17,0,0,1-.29-.12V16.73a.17.17,0,1,1,.34,0v3.81A.16.16,0,0,1,42.1,20.66Z" transform="translate(-14.5)"/><path class="cls-5" d="M45.38,19.22a.17.17,0,0,1-.12,0H43.14a1.29,1.29,0,0,0,.14.6,1,1,0,0,0,.39.42,1.14,1.14,0,0,0,.6.15,1,1,0,0,0,.48-.11,1,1,0,0,0,.34-.29.19.19,0,0,1,.12-.05.15.15,0,0,1,.15.15.17.17,0,0,1-.06.12,1.41,1.41,0,0,1-.45.36,1.24,1.24,0,0,1-.57.14,1.54,1.54,0,0,1-.76-.18,1.31,1.31,0,0,1-.52-.52,1.56,1.56,0,0,1-.18-.77,1.7,1.7,0,0,1,.18-.8,1.31,1.31,0,0,1,.48-.53,1.23,1.23,0,0,1,.64-.18,1.32,1.32,0,0,1,.63.16,1.24,1.24,0,0,1,.48.46,1.39,1.39,0,0,1,.19.72A.15.15,0,0,1,45.38,19.22Zm-1.85-.9a1,1,0,0,0-.36.64h1.91v0a.89.89,0,0,0-.17-.44.91.91,0,0,0-.35-.29,1,1,0,0,0-.43-.1A.94.94,0,0,0,43.53,18.32Z" transform="translate(-14.5)"/><path class="cls-5" d="M45.92,20.13a.18.18,0,0,1,.16-.15.17.17,0,0,1,.12.06,1,1,0,0,0,.88.44.86.86,0,0,0,.47-.13.41.41,0,0,0,.2-.37.39.39,0,0,0-.19-.35,1.81,1.81,0,0,0-.52-.2,2.18,2.18,0,0,1-.73-.31.63.63,0,0,1-.26-.55.7.7,0,0,1,.13-.41.85.85,0,0,1,.35-.28,1.2,1.2,0,0,1,.5-.1,1.36,1.36,0,0,1,.48.09,1,1,0,0,1,.42.29.13.13,0,0,1,.05.11.15.15,0,0,1-.06.12.15.15,0,0,1-.1,0,.14.14,0,0,1-.1,0,.89.89,0,0,0-.32-.23,1,1,0,0,0-.4-.08.8.8,0,0,0-.45.12.41.41,0,0,0-.19.37.4.4,0,0,0,.2.34,2.15,2.15,0,0,0,.57.21,2.68,2.68,0,0,1,.48.16.81.81,0,0,1,.31.25.71.71,0,0,1,.12.43.69.69,0,0,1-.29.58,1.18,1.18,0,0,1-.72.22A1.31,1.31,0,0,1,46,20.25.25.25,0,0,1,45.92,20.13Z" transform="translate(-14.5)"/><path class="cls-5" d="M51.84,20.4a.32.32,0,0,1-.1.24.31.31,0,0,1-.22.09.29.29,0,0,1-.18-.06.4.4,0,0,1-.13-.17l-.29-.68H49.26l-.29.68a.34.34,0,0,1-.12.17.29.29,0,0,1-.47-.23.37.37,0,0,1,0-.11L49.78,17a.37.37,0,0,1,.13-.17.29.29,0,0,1,.2-.05.33.33,0,0,1,.19.06.33.33,0,0,1,.13.17l1.38,3.29A.38.38,0,0,1,51.84,20.4Zm-2.31-1.22h1.12l-.57-1.31Z" transform="translate(-14.5)"/><path class="cls-5" d="M54.33,17.8a.45.45,0,0,1,.29.4.34.34,0,0,1-.07.22.23.23,0,0,1-.19.09.36.36,0,0,1-.15,0l-.11-.07-.1-.07-.17-.05-.18,0a.85.85,0,0,0-.66.26,1.07,1.07,0,0,0,0,1.35.79.79,0,0,0,.62.27,1,1,0,0,0,.41-.07l.09-.06.11-.06.12,0a.28.28,0,0,1,.22.09.33.33,0,0,1,.08.23.32.32,0,0,1-.16.25,1.22,1.22,0,0,1-.41.19,2.09,2.09,0,0,1-.55.07,1.42,1.42,0,0,1-.76-.2,1.36,1.36,0,0,1-.51-.56,1.74,1.74,0,0,1-.18-.79,1.69,1.69,0,0,1,.19-.81,1.38,1.38,0,0,1,.52-.55,1.47,1.47,0,0,1,.76-.2A1.7,1.7,0,0,1,54.33,17.8Z" transform="translate(-14.5)"/><path class="cls-5" d="M57.22,17.8a.45.45,0,0,1,.29.4.34.34,0,0,1-.07.22.23.23,0,0,1-.19.09.36.36,0,0,1-.15,0L57,18.41l-.1-.07-.17-.05-.18,0a.85.85,0,0,0-.66.26,1.07,1.07,0,0,0,0,1.35.79.79,0,0,0,.62.27,1,1,0,0,0,.41-.07L57,20l.11-.06.12,0a.28.28,0,0,1,.22.09.33.33,0,0,1,.08.23.32.32,0,0,1-.16.25,1.22,1.22,0,0,1-.41.19,2.09,2.09,0,0,1-.55.07,1.42,1.42,0,0,1-.76-.2,1.36,1.36,0,0,1-.51-.56,1.74,1.74,0,0,1-.18-.79,1.69,1.69,0,0,1,.19-.81,1.38,1.38,0,0,1,.52-.55,1.47,1.47,0,0,1,.76-.2A1.7,1.7,0,0,1,57.22,17.8Z" transform="translate(-14.5)"/><path class="cls-5" d="M60.62,19.36a.36.36,0,0,1-.24.08H58.53a.85.85,0,0,0,.31.52.86.86,0,0,0,.54.19,1.21,1.21,0,0,0,.36,0l.2-.09.1-.06a.43.43,0,0,1,.19-.05.28.28,0,0,1,.2.08.27.27,0,0,1,.08.2.35.35,0,0,1-.16.27,1.34,1.34,0,0,1-.42.22,1.74,1.74,0,0,1-1.35-.11,1.37,1.37,0,0,1-.54-.54,1.58,1.58,0,0,1-.19-.78,1.72,1.72,0,0,1,.2-.85,1.43,1.43,0,0,1,.53-.56,1.38,1.38,0,0,1,.71-.19,1.31,1.31,0,0,1,.7.2,1.51,1.51,0,0,1,.52.54,1.46,1.46,0,0,1,.2.74A.29.29,0,0,1,60.62,19.36Zm-2.08-.48H60v0a.58.58,0,0,0-.23-.4.73.73,0,0,0-.47-.17A.7.7,0,0,0,58.54,18.88Z" transform="translate(-14.5)"/><path class="cls-5" d="M65.42,19.36a.36.36,0,0,1-.24.08H63.34a.85.85,0,0,0,.31.52.86.86,0,0,0,.54.19,1.21,1.21,0,0,0,.36,0l.2-.09.1-.06A.43.43,0,0,1,65,19.9a.28.28,0,0,1,.2.08.27.27,0,0,1,.08.2.35.35,0,0,1-.16.27,1.34,1.34,0,0,1-.42.22,1.74,1.74,0,0,1-1.35-.11,1.37,1.37,0,0,1-.54-.54,1.58,1.58,0,0,1-.19-.78,1.72,1.72,0,0,1,.2-.85,1.43,1.43,0,0,1,.53-.56,1.38,1.38,0,0,1,.71-.19,1.31,1.31,0,0,1,.7.2,1.51,1.51,0,0,1,.52.54,1.46,1.46,0,0,1,.2.74A.29.29,0,0,1,65.42,19.36Zm-2.08-.48h1.47v0a.58.58,0,0,0-.23-.4.73.73,0,0,0-.47-.17A.7.7,0,0,0,63.34,18.88Z" transform="translate(-14.5)"/><path class="cls-5" d="M61.92,20.61a.33.33,0,0,1-.24.1.32.32,0,0,1-.24-.1.34.34,0,0,1-.1-.24V16.9a.34.34,0,0,1,.34-.34.32.32,0,0,1,.24.1.34.34,0,0,1,.1.24v3.46A.33.33,0,0,1,61.92,20.61Z" transform="translate(-14.5)"/><path class="cls-5" d="M68,17.75a.28.28,0,0,1,.11.22.35.35,0,0,1-.09.26.3.3,0,0,1-.21.09.56.56,0,0,1-.19,0l-.08,0-.13,0a.5.5,0,0,0-.28.09.65.65,0,0,0-.22.27,1,1,0,0,0-.09.43v1.33a.34.34,0,0,1-.1.24.35.35,0,0,1-.48,0,.34.34,0,0,1-.1-.24V18a.34.34,0,0,1,.1-.24.35.35,0,0,1,.48,0,.34.34,0,0,1,.1.24v.07a.85.85,0,0,1,.37-.35,1.14,1.14,0,0,1,.52-.12A.43.43,0,0,1,68,17.75Z" transform="translate(-14.5)"/><path class="cls-5" d="M71.22,17.75a.33.33,0,0,1,.1.25v2.37a.34.34,0,0,1-.1.24.32.32,0,0,1-.24.1.32.32,0,0,1-.24-.1.35.35,0,0,1-.1-.24,1.22,1.22,0,0,1-.88.39,1.28,1.28,0,0,1-.7-.2,1.39,1.39,0,0,1-.5-.55,1.72,1.72,0,0,1-.18-.8,1.76,1.76,0,0,1,.18-.8,1.38,1.38,0,0,1,.49-.56,1.25,1.25,0,0,1,.69-.2,1.3,1.3,0,0,1,.5.1,1.33,1.33,0,0,1,.4.25h0a.34.34,0,0,1,.1-.24.32.32,0,0,1,.24-.1A.33.33,0,0,1,71.22,17.75Zm-.78,2.13a1,1,0,0,0,.23-.67,1,1,0,0,0-.23-.67.78.78,0,0,0-1.18,0,1.1,1.1,0,0,0,0,1.34.74.74,0,0,0,.59.27A.75.75,0,0,0,70.44,19.88Z" transform="translate(-14.5)"/><path class="cls-5" d="M73.63,20.15a.3.3,0,0,1-.1.45.69.69,0,0,1-.37.1,1.09,1.09,0,0,1-.59-.15.69.69,0,0,1-.24-.63V18.38h-.26a.31.31,0,0,1-.31-.31.29.29,0,0,1,.09-.22.31.31,0,0,1,.22-.09h.26v-.36a.34.34,0,0,1,.34-.34.32.32,0,0,1,.24.1.34.34,0,0,1,.1.24v.36h.4a.31.31,0,0,1,.31.31.29.29,0,0,1-.09.22.31.31,0,0,1-.22.09H73V19.9a.21.21,0,0,0,.06.17.25.25,0,0,0,.17.05l.12,0,.13,0A.19.19,0,0,1,73.63,20.15Z" transform="translate(-14.5)"/><path class="cls-5" d="M77,20a1.43,1.43,0,0,1-.55.55,1.62,1.62,0,0,1-1.54,0,1.43,1.43,0,0,1-.55-.55,1.7,1.7,0,0,1,0-1.61,1.45,1.45,0,0,1,.55-.56,1.6,1.6,0,0,1,1.54,0,1.45,1.45,0,0,1,.55.56A1.7,1.7,0,0,1,77,20Zm-.59-1.3a.85.85,0,0,0-.31-.33.84.84,0,0,0-.86,0,.85.85,0,0,0-.31.33,1,1,0,0,0-.11.49,1,1,0,0,0,.11.49.85.85,0,0,0,.31.33.84.84,0,0,0,.86,0,.85.85,0,0,0,.31-.33,1,1,0,0,0,.11-.49A1,1,0,0,0,76.4,18.72Z" transform="translate(-14.5)"/><path class="cls-5" d="M79.59,17.75a.28.28,0,0,1,.11.22.35.35,0,0,1-.09.26.3.3,0,0,1-.21.09.56.56,0,0,1-.19,0l-.08,0-.13,0a.5.5,0,0,0-.28.09.65.65,0,0,0-.22.27,1,1,0,0,0-.09.43v1.33a.34.34,0,0,1-.1.24.35.35,0,0,1-.48,0,.34.34,0,0,1-.1-.24V18a.34.34,0,0,1,.1-.24.35.35,0,0,1,.48,0,.34.34,0,0,1,.1.24v.07a.85.85,0,0,1,.37-.35,1.14,1.14,0,0,1,.52-.12A.43.43,0,0,1,79.59,17.75Z" transform="translate(-14.5)"/><g class="cls-9"><g class="cls-10"><rect class="cls-5" x="19.03" y="11.5" width="3.24" height="4.99"/></g><g class="cls-11"><rect class="cls-5" x="18.95" y="10.57" width="3.4" height="3.4"/></g><g class="cls-12"><rect class="cls-5" x="19.91" y="10.61" width="6.58" height="5.89"/></g><g class="cls-13"><rect class="cls-5" x="24.13" y="11.46" width="8.48" height="5.04"/></g><g class="cls-14"><rect class="cls-5" x="30.24" y="11.46" width="6.57" height="5.05"/></g></g></g></g></svg>