<?xml version="1.0" encoding="UTF-8"?>
<svg width="88px" height="80px" viewBox="0 0 88 80" version="1.1" xmlns="http://www.w3.org/2000/svg" xmlns:xlink="http://www.w3.org/1999/xlink">
    <!-- Generator: Sketch 3.6.1 (26313) - http://www.bohemiancoding.com/sketch -->
    <title>send_newsletter</title>
    <desc>Created with Sketch.</desc>
    <defs></defs>
    <g id="Page-1" stroke="none" stroke-width="1" fill="none" fill-rule="evenodd">
        <g id="send_newsletter" fill="#FFFFFF">
            <path d="M4,31.8 L29.1,45.8 L35.3,73.9 C35.9,76.9 38.4,79.1 41.4,79.7 C41.8,79.7 42.1,79.8 42.6,79.8 C45.3,79.8 47.7,78.5 49,76.1 L86.9,11.5 C88.4,9 88.2,5.7 86.5,3.3 C84.7,0.9 81.7,-0.1 78.8,0.5 L5.9,18.1 C2.9,18.8 0.7,21.2 0.3,24.3 C-0.2,27.4 1.2,30.3 4,31.8 L4,31.8 Z M43.2,68.4 L38,44.7 L71.6,19.7 L43.2,68.4 L43.2,68.4 Z M66.3,12.6 L32.7,37.6 L11.6,25.9 L66.3,12.6 L66.3,12.6 Z" id="Shape"></path>
        </g>
    </g>
</svg>